<svg width="60" height="40" viewBox="0 0 60 40" fill="none" xmlns="http://www.w3.org/2000/svg">
<path d="M59.5402 26.9297C58.1249 26.2605 55.1129 24.5134 55.9838 24.2904C56.8548 24.0673 57.8709 23.5841 56.4556 23.1008C55.0766 22.6176 53.625 20.9076 54.6411 20.9076C55.6572 20.9076 56.0201 20.4987 54.4234 20.0526C52.8266 19.6065 50.867 18.3798 51.9194 18.1939C52.9718 18.0452 52.5 17.562 51.7743 17.4876C51.0485 17.4133 48.4356 16.5955 49.4154 16.0007C50.3953 15.4059 49.8509 15.0714 49.1251 15.3316C48.4356 15.5918 46.0405 16.1494 44.5526 15.0342C43.0285 13.919 38.9641 11.0567 35.7343 12.4692C32.5045 13.8818 30.2183 14.4394 29.0208 12.0975C29.5288 12.0603 30.182 11.4656 28.4764 11.2797C27.9684 11.1682 28.0409 10.6106 28.7304 10.6106C29.4199 10.6106 29.6377 10.2017 28.1135 9.94146C26.5894 9.64407 27.3514 8.93778 27.8595 8.93778C28.3675 8.93778 29.0208 8.30583 27.7869 8.26866C26.5531 8.23148 27.1337 7.74823 27.4603 7.67388C27.7869 7.59954 27.9684 7.2278 26.7708 7.07911C26.1176 6.96759 25.7184 6.85607 25.9724 6.59586C26.2265 6.33564 25.6821 6.29847 25.1378 6.37282C25.1741 6.03826 25.5733 5.55501 24.2306 5.66653C24.2306 5.1461 24.5934 4.43981 23.1782 4.5885C23.2144 4.25394 23.1056 4.21677 22.2346 4.25394C22.2346 3.95655 22.1621 3.77069 21.1822 3.84503C21.2185 3.51047 20.9645 3.51047 20.7105 3.4733C20.8919 3.02722 20.8919 2.65549 19.8395 2.95287C19.9121 2.3581 19.15 1.72615 16.2106 2.28375C15.0856 2.43245 14.9767 2.43245 14.6138 1.94919C14.2872 1.42877 13.6703 0.276395 13.5615 1.35442C13.4526 1.8005 12.9445 1.91202 12.4002 2.24658C11.8558 2.58114 12.001 3.32461 11.1663 2.76701C10.2954 2.24658 10.5131 0.350742 9.93251 1.54029C9.35187 2.72983 10.3317 4.14242 10.5494 4.36546C10.622 4.66285 10.6583 4.84871 10.0777 5.29479C9.49703 5.74087 8.2269 6.63303 8.55351 8.41735C8.04545 9.16082 6.33985 11.2053 5.72293 12.0975C5.10601 12.9897 4.99714 13.7331 5.4689 14.2907C5.50519 15.1829 5.72293 15.9635 7.28338 16.1494C7.68256 16.3724 8.37206 16.1866 9.42445 15.1085C10.4768 14.0305 11.6744 13.064 12.9082 12.9525C14.1421 12.841 14.1784 12.1719 14.3598 12.0603C14.5413 11.9488 14.9767 11.8001 15.4122 12.841C15.8477 13.8818 16.5372 15.0342 17.0089 15.5546C17.4807 16.0379 16.9727 17.7479 16.2832 19.0117C15.5937 20.2756 15.5574 22.2086 15.7025 23.138C15.3759 23.6212 10.9849 27.859 8.84382 29.5318C6.70274 31.2418 3.0738 34.1041 1.76738 35.0706C0.424668 36.0371 -0.954332 37.2267 0.896431 38.0445C1.76738 38.3419 3.14638 38.6021 3.36411 37.0408C3.36411 37.0408 3.65443 35.7397 4.4528 35.4052C5.25117 35.1078 6.01324 34.6245 7.24709 33.1748C8.48093 31.6878 13.8155 28.0077 17.771 26.4836C19.4041 25.8516 20.0573 26.149 20.7468 26.4836C21.4363 26.8181 20.529 27.4501 19.8758 27.8962C19.8758 27.8962 17.6984 29.569 17.0815 30.2381C16.4646 30.9072 16.9727 32.357 17.5896 33.0633C18.2065 33.7695 19.1863 35.1078 19.4766 35.591C19.7669 36.0743 21.2548 35.8513 21.7992 35.9256C22.3798 35.9999 23.7588 36.1486 24.2306 35.8884C24.7023 35.6654 24.92 34.9963 24.3394 34.4015C23.7588 33.8067 22.6338 32.58 21.4726 33.8439C21.0734 34.2528 20.8193 34.2528 20.2387 33.6209C19.6581 32.9889 18.9686 32.3198 19.4403 31.502C19.9121 30.6842 21.654 29.9779 23.0693 29.3088C24.4846 28.6396 25.9362 27.5616 26.5894 26.8181C27.6055 26.8181 30.1094 26.8181 30.1094 26.8181C30.1094 26.8181 30.3635 26.8925 30.1094 27.3386C29.8554 27.8218 28.549 31.3905 25.1741 34.9591C23.8677 36.4089 23.6136 36.446 22.9967 36.8178C22.3435 37.1895 21.7629 38.379 23.3959 39.0482C24.2668 39.3084 25.1741 38.3419 25.1741 37.2267C25.1378 36.7434 26.6257 35.8513 27.17 35.1821C27.0248 35.7026 26.8434 36.7062 27.2789 36.7806C27.7506 36.8549 29.8191 36.5575 29.8191 35.5539C29.8191 34.5502 29.8191 34.2528 30.2183 33.9554C30.6175 33.658 34.1376 31.502 36.7141 30.3868C38.4197 29.5318 37.331 28.7512 38.3471 27.1527C39.3633 25.5542 39.581 24.7736 42.6656 22.506C44.3712 21.1306 44.4801 19.9411 45.2421 19.1233C46.0042 18.2683 46.8026 18.2311 47.2381 19.4207C47.6735 20.6102 49.9961 25.926 53.9879 26.8925C55.5484 27.3386 56.8185 27.636 57.762 27.6731C58.7418 27.6731 60.9555 27.636 59.5402 26.9297ZM35.8795 27.0412C35.19 28.5653 33.2666 30.6098 31.5973 31.2789C29.928 31.9481 28.4764 33.6952 28.4764 33.6952C27.8232 34.4758 27.2426 35.1078 27.3152 34.9219C27.8232 33.7695 28.9482 32.5428 28.9482 32.5428C29.4925 32.0224 31.307 30.424 31.9239 29.2716C32.5408 28.1192 33.2303 25.926 33.2303 25.926C34.0287 25.7773 35.2263 25.294 35.9883 24.7364C36.7504 24.1788 36.5327 25.5171 35.8795 27.0412Z" fill="url(#paint0_linear_1805_30522)"/>
<defs>
<linearGradient id="paint0_linear_1805_30522" x1="0" y1="0.909119" x2="44.5455" y2="58.6364" gradientUnits="userSpaceOnUse">
<stop stop-color="white"/>
<stop offset="1" stop-color="#6C7A88"/>
</linearGradient>
</defs>
</svg>
