<svg width="609" height="145" viewBox="0 0 609 145" fill="none" xmlns="http://www.w3.org/2000/svg">
<path d="M35.8027 29.66C42.5548 29.66 48.1576 31.8867 52.6112 36.3402C57.0647 40.7937 59.2914 46.3606 59.2914 53.0409C59.2914 59.7212 57.0647 65.2881 52.6112 69.7416C48.1576 74.1233 42.5548 76.3141 35.8027 76.3141H15.8696V105.082H10.1591V29.66H35.8027ZM35.8027 70.9268C40.9745 70.9268 45.2126 69.2388 48.5168 65.8627C51.8928 62.4867 53.5809 58.2127 53.5809 53.0409C53.5809 47.7973 51.8928 43.4874 48.5168 40.1113C45.2126 36.7353 40.9745 35.0473 35.8027 35.0473H15.8696V70.9268H35.8027ZM135.04 94.9542C127.498 102.496 118.304 106.268 107.457 106.268C96.6109 106.268 87.4166 102.496 79.8743 94.9542C72.3321 87.3402 68.561 78.1458 68.561 67.3712C68.561 56.5965 72.3321 47.4381 79.8743 39.8959C87.4166 32.2818 96.6109 28.4747 107.457 28.4747C118.304 28.4747 127.498 32.2818 135.04 39.8959C142.583 47.4381 146.354 56.5965 146.354 67.3712C146.354 78.1458 142.583 87.3402 135.04 94.9542ZM83.861 91.0754C90.3257 97.5402 98.1912 100.773 107.457 100.773C116.724 100.773 124.553 97.5402 130.946 91.0754C137.411 84.5388 140.643 76.6374 140.643 67.3712C140.643 58.105 137.411 50.2395 130.946 43.7747C124.553 37.2381 116.724 33.9698 107.457 33.9698C98.1912 33.9698 90.3257 37.2381 83.861 43.7747C77.468 50.2395 74.2715 58.105 74.2715 67.3712C74.2715 76.6374 77.468 84.5388 83.861 91.0754ZM166.546 99.6951H202.102V105.082H160.836V29.66H166.546V99.6951ZM270.776 94.9542C263.233 102.496 254.039 106.268 243.193 106.268C232.346 106.268 223.152 102.496 215.609 94.9542C208.067 87.3402 204.296 78.1458 204.296 67.3712C204.296 56.5965 208.067 47.4381 215.609 39.8959C223.152 32.2818 232.346 28.4747 243.193 28.4747C254.039 28.4747 263.233 32.2818 270.776 39.8959C278.318 47.4381 282.089 56.5965 282.089 67.3712C282.089 78.1458 278.318 87.3402 270.776 94.9542ZM219.596 91.0754C226.061 97.5402 233.926 100.773 243.193 100.773C252.459 100.773 260.288 97.5402 266.681 91.0754C273.146 84.5388 276.378 76.6374 276.378 67.3712C276.378 58.105 273.146 50.2395 266.681 43.7747C260.288 37.2381 252.459 33.9698 243.193 33.9698C233.926 33.9698 226.061 37.2381 219.596 43.7747C213.203 50.2395 210.007 58.105 210.007 67.3712C210.007 76.6374 213.203 84.5388 219.596 91.0754Z" fill="url(#paint0_linear_1854_30002)"/>
<path d="M432.494 98.4122C427.149 95.8877 415.773 89.2959 419.062 88.4544C422.352 87.6129 426.189 85.7896 420.844 83.9664C415.636 82.1431 410.154 75.6916 413.991 75.6916C417.829 75.6916 419.199 74.1488 413.169 72.4658C407.139 70.7828 399.738 66.1545 403.712 65.4533C407.687 64.8923 405.905 63.069 403.164 62.7885C400.423 62.508 390.555 59.4225 394.256 57.1785C397.956 54.9344 395.9 53.6722 393.159 54.6539C390.555 55.6357 381.51 57.7395 375.89 53.5319C370.134 49.3244 354.784 38.5251 342.586 43.8546C330.388 49.1842 321.754 51.2879 317.231 42.4521C319.15 42.3119 321.617 40.0678 315.175 39.3666C313.257 38.9458 313.531 36.8421 316.135 36.8421C318.739 36.8421 319.561 35.2993 313.805 34.3175C308.049 33.1955 310.927 30.5308 312.846 30.5308C314.764 30.5308 317.231 28.1465 312.571 28.0063C307.912 27.866 310.104 26.0427 311.338 25.7622C312.571 25.4817 313.257 24.0792 308.734 23.5182C306.267 23.0975 304.759 22.6767 305.719 21.695C306.678 20.7132 304.622 20.573 302.566 20.8535C302.704 19.5912 304.211 17.7679 299.14 18.1887C299.14 16.2252 300.511 13.5604 295.166 14.1214C295.303 12.8592 294.891 12.7189 291.602 12.8592C291.602 11.7371 291.328 11.0359 287.628 11.3164C287.765 10.0541 286.805 10.0541 285.846 9.91389C286.531 8.23087 286.531 6.82837 282.557 7.95037C282.831 5.70636 279.953 3.32209 268.851 5.42586C264.603 5.98686 264.191 5.98686 262.821 4.1636C261.587 2.20008 259.257 -2.1477 258.846 1.91958C258.435 3.60259 256.516 4.02335 254.461 5.2856C252.405 6.54786 252.953 9.35288 249.801 7.24912C246.511 5.2856 247.334 -1.86719 245.141 2.62084C242.948 7.10887 246.648 12.4384 247.471 13.2799C247.745 14.4019 247.882 15.1032 245.689 16.7862C243.496 18.4692 238.699 21.8352 239.933 28.5673C238.014 31.3723 231.573 39.0861 229.243 42.4521C226.913 45.8181 226.502 48.6231 228.283 50.7269C228.42 54.0929 229.243 57.0382 235.136 57.7395C236.644 58.581 239.248 57.8797 243.222 53.8124C247.197 49.7452 251.719 46.0986 256.379 45.6779C261.039 45.2571 261.176 42.7326 261.861 42.3119C262.547 41.8911 264.191 41.3301 265.836 45.2571C267.481 49.1842 270.085 53.5319 271.866 55.4954C273.648 57.3187 271.729 63.7702 269.125 68.5388C266.521 73.3073 266.384 80.6004 266.932 84.1066C265.699 85.9299 249.115 101.919 241.029 108.23C232.943 114.681 219.238 125.481 214.304 129.127C209.233 132.774 204.025 137.262 211.014 140.347C214.304 141.469 219.512 142.451 220.334 136.56C220.334 136.56 221.431 131.652 224.446 130.389C227.461 129.267 230.339 127.444 234.999 121.974C239.659 116.364 259.806 102.48 274.745 96.7292C280.912 94.345 283.379 95.467 285.983 96.7292C288.587 97.9915 285.161 100.376 282.694 102.059C282.694 102.059 274.47 108.37 272.141 110.895C269.811 113.419 271.729 118.889 274.059 121.554C276.389 124.218 280.09 129.267 281.186 131.091C282.283 132.914 287.902 132.072 289.958 132.353C292.15 132.633 297.358 133.194 299.14 132.213C300.922 131.371 301.744 128.847 299.551 126.603C297.358 124.359 293.11 119.73 288.724 124.499C287.216 126.042 286.257 126.042 284.064 123.657C281.871 121.273 279.267 118.749 281.049 115.663C282.831 112.578 289.409 109.913 294.754 107.388C300.1 104.864 305.582 100.797 308.049 97.9915C311.886 97.9915 321.343 97.9915 321.343 97.9915C321.343 97.9915 322.302 98.272 321.343 99.955C320.384 101.778 315.45 115.242 302.704 128.706C297.77 134.176 296.81 134.316 294.48 135.719C292.013 137.121 289.82 141.61 295.988 144.134C299.277 145.116 302.704 141.469 302.704 137.262C302.566 135.438 308.186 132.072 310.242 129.548C309.693 131.511 309.008 135.298 310.653 135.579C312.434 135.859 320.246 134.737 320.246 130.95C320.246 127.164 320.246 126.042 321.754 124.92C323.262 123.798 336.556 115.663 346.287 111.456C352.728 108.23 348.617 105.285 352.454 99.2537C356.292 93.2229 357.114 90.2777 368.764 81.7224C375.205 76.5331 375.616 72.0451 378.494 68.9595C381.373 65.7338 384.388 65.5935 386.032 70.0815C387.677 74.5696 396.448 94.6255 411.524 98.272C417.418 99.955 422.215 101.077 425.778 101.217C429.478 101.217 437.839 101.077 432.494 98.4122ZM343.134 98.833C340.53 104.583 333.267 112.297 326.962 114.822C320.658 117.346 315.175 123.938 315.175 123.938C312.708 126.883 310.516 129.267 310.79 128.566C312.708 124.218 316.957 119.59 316.957 119.59C319.013 117.627 325.866 111.596 328.196 107.248C330.526 102.9 333.13 94.6255 333.13 94.6255C336.145 94.0644 340.667 92.2412 343.546 90.1374C346.424 88.0337 345.601 93.0827 343.134 98.833Z" fill="url(#paint1_linear_1854_30002)"/>
<path d="M312.347 106.995L284.225 31.5722H290.474L315.364 99.5601L340.361 31.5722H346.502L318.381 106.995H312.347ZM357.435 31.5722H363.146V106.995H357.435V31.5722ZM387.557 101.607H423.113V106.995H381.846V31.5722H387.557V101.607ZM440.694 101.607H476.25V106.995H434.983V31.5722H440.694V101.607ZM540.973 106.995L533.646 87.8158H495.827L488.5 106.995H482.466L511.773 31.5722H517.807L547.006 106.995H540.973ZM497.982 82.4285H531.599L514.79 38.5757L497.982 82.4285ZM578.94 108.18C571.972 108.18 566.046 106.6 561.162 103.439C556.349 100.207 553.081 95.8608 551.357 90.4017L556.313 87.4925C557.678 92.1615 560.264 95.8608 564.071 98.5904C567.95 101.32 572.906 102.685 578.94 102.685C585.045 102.685 589.714 101.284 592.947 98.4827C596.251 95.6813 597.903 92.0538 597.903 87.6003C597.903 83.4341 596.323 80.2376 593.162 78.0109C590.002 75.7841 585.081 73.5933 578.401 71.4383C575.959 70.6482 574.163 70.0735 573.014 69.7144C571.936 69.2834 570.356 68.6728 568.273 67.8827C566.19 67.0207 564.645 66.2665 563.64 65.62C562.634 64.9736 561.413 64.1116 559.976 63.0341C558.612 61.9567 557.606 60.8792 556.96 59.8017C556.313 58.6524 555.738 57.3236 555.236 55.8151C554.733 54.2348 554.481 52.5109 554.481 50.6433C554.481 44.5377 556.636 39.6532 560.946 35.9898C565.328 32.2546 570.787 30.387 577.324 30.387C583.214 30.387 588.242 31.8595 592.408 34.8046C596.574 37.7496 599.627 41.5567 601.567 46.2257L596.718 48.9193C593.126 40.2278 586.662 35.882 577.324 35.882C572.152 35.882 568.022 37.2468 564.933 39.9764C561.844 42.706 560.3 46.1898 560.3 50.4278C560.3 54.5222 561.736 57.575 564.61 59.5862C567.483 61.5975 572.188 63.6806 578.724 65.8355C582.891 67.2003 586.123 68.3855 588.421 69.3912C590.792 70.325 593.306 71.6538 595.964 73.3778C598.693 75.0299 600.669 77.0411 601.89 79.4116C603.111 81.7102 603.721 84.4038 603.721 87.4925C603.721 93.7418 601.459 98.77 596.933 102.577C592.408 106.312 586.41 108.18 578.94 108.18Z" fill="url(#paint2_linear_1854_30002)"/>
<defs>
<linearGradient id="paint0_linear_1854_30002" x1="8.84792" y1="30.2917" x2="468.792" y2="136.94" gradientUnits="userSpaceOnUse">
<stop stop-color="#C0D1E1"/>
<stop offset="1" stop-color="#C0D1E1" stop-opacity="0"/>
</linearGradient>
<linearGradient id="paint1_linear_1854_30002" x1="207.629" y1="95.5332" x2="434.23" y2="95.5332" gradientUnits="userSpaceOnUse">
<stop stop-color="#353D47"/>
<stop offset="1"/>
</linearGradient>
<linearGradient id="paint2_linear_1854_30002" x1="282.982" y1="35.4516" x2="1064.77" y2="165.132" gradientUnits="userSpaceOnUse">
<stop stop-color="#C0D1E1"/>
<stop offset="1" stop-color="#C0D1E1" stop-opacity="0"/>
</linearGradient>
</defs>
</svg>
