<svg width="174" height="42" viewBox="0 0 174 42" fill="none" xmlns="http://www.w3.org/2000/svg">
<path d="M65.4942 28.6226C63.9374 27.8866 60.6242 25.9647 61.5822 25.7194C62.5403 25.474 63.658 24.9424 62.1012 24.4109C60.5843 23.8793 58.9875 21.9983 60.1052 21.9983C61.2229 21.9983 61.6221 21.5485 59.8657 21.0578C58.1093 20.5671 55.9537 19.2177 57.1114 19.0133C58.269 18.8497 57.75 18.3182 56.9517 18.2364C56.1533 18.1546 53.2792 17.255 54.357 16.6007C55.4348 15.9465 54.836 15.5785 54.0376 15.8647C53.2792 16.1509 50.6446 16.7643 49.0079 15.5376C47.3313 14.3109 42.8605 11.1623 39.3077 12.7161C35.755 14.27 33.2401 14.8833 31.9228 12.3072C32.4817 12.2663 33.2002 11.6121 31.3241 11.4076C30.7652 11.285 30.845 10.6716 31.6035 10.6716C32.3619 10.6716 32.6014 10.2218 30.9249 9.93557C29.2483 9.60844 30.0866 8.83152 30.6454 8.83152C31.2043 8.83152 31.9228 8.13638 30.5656 8.09549C29.2084 8.0546 29.8471 7.52302 30.2063 7.44124C30.5656 7.35946 30.7652 6.95055 29.4479 6.78699C28.7294 6.66432 28.2903 6.54165 28.5697 6.25541C28.8491 5.96918 28.2503 5.92829 27.6516 6.01007C27.6915 5.64205 28.1306 5.11048 26.6536 5.23315C26.6536 4.66068 27.0528 3.88376 25.496 4.04732C25.5359 3.6793 25.4161 3.63841 24.4581 3.6793C24.4581 3.35218 24.3783 3.14772 23.3005 3.22951C23.3404 2.86149 23.0609 2.86149 22.7815 2.8206C22.9811 2.32991 22.9811 1.92101 21.8235 2.24813C21.9033 1.59388 21.065 0.898739 17.8316 1.5121C16.5942 1.67566 16.4744 1.67566 16.0752 1.14408C15.716 0.571614 15.0374 -0.695996 14.9176 0.489833C14.7978 0.980521 14.239 1.10319 13.6402 1.47121C13.0414 1.83922 13.2011 2.65704 12.283 2.04368C11.3249 1.47121 11.5645 -0.614214 10.9258 0.694286C10.2871 2.00279 11.3649 3.55663 11.6044 3.80197C11.6842 4.1291 11.7241 4.33355 11.0854 4.82424C10.4467 5.31493 9.04959 6.2963 9.40886 8.25905C8.85 9.07687 6.97383 11.3259 6.29522 12.3072C5.61661 13.2886 5.49685 14.1064 6.01579 14.7198C6.05571 15.7011 6.29522 16.5599 8.01171 16.7643C8.45082 17.0096 9.20926 16.8052 10.3669 15.6194C11.5245 14.4335 12.8418 13.3704 14.1991 13.2477C15.5563 13.125 15.5962 12.389 15.7958 12.2663C15.9954 12.1437 16.4744 11.9801 16.9534 13.125C17.4325 14.27 18.1909 15.5376 18.7098 16.1101C19.2288 16.6416 18.6699 18.5226 17.9115 19.9129C17.153 21.3032 17.1131 23.4295 17.2728 24.4517C16.9135 24.9833 12.0834 29.6449 9.7282 31.4849C7.37302 33.3659 3.38118 36.5145 1.94412 37.5776C0.467135 38.6408 -1.04976 39.9493 0.986074 40.8489C1.94412 41.176 3.46101 41.4623 3.70053 39.7448C3.70053 39.7448 4.01987 38.3137 4.89808 37.9457C5.77628 37.6185 6.61457 37.087 7.97179 35.4922C9.32902 33.8566 15.197 29.8084 19.5481 28.1319C21.3445 27.4368 22.063 27.7639 22.8214 28.1319C23.5799 28.4999 22.5819 29.1951 21.8634 29.6857C21.8634 29.6857 19.4683 31.5258 18.7897 32.2619C18.1111 32.9979 18.6699 34.5926 19.3485 35.3695C20.0272 36.1465 21.1049 37.6185 21.4243 38.1501C21.7436 38.6817 23.3803 38.4363 23.9791 38.5181C24.6178 38.5999 26.1347 38.7635 26.6536 38.4772C27.1725 38.2319 27.4121 37.4959 26.7734 36.8416C26.1347 36.1874 24.8972 34.838 23.6198 36.2282C23.1807 36.678 22.9013 36.678 22.2626 35.9829C21.6239 35.2878 20.8654 34.5517 21.3844 33.6521C21.9033 32.7525 23.8194 31.9756 25.3762 31.2396C26.933 30.5036 28.5298 29.3177 29.2483 28.4999C30.366 28.4999 33.1204 28.4999 33.1204 28.4999C33.1204 28.4999 33.3998 28.5817 33.1204 29.0724C32.841 29.604 31.4039 33.5295 27.6915 37.455C26.2544 39.0497 25.975 39.0906 25.2964 39.4995C24.5779 39.9084 23.9392 41.2169 25.7355 41.9529C26.6935 42.2392 27.6915 41.176 27.6915 39.9493C27.6516 39.4177 29.2882 38.4363 29.887 37.7003C29.7273 38.2728 29.5277 39.3768 30.0068 39.4586C30.5257 39.5404 32.801 39.2133 32.801 38.1092C32.801 37.0052 32.801 36.678 33.2401 36.3509C33.6792 36.0238 37.5513 33.6521 40.3855 32.4254C42.2617 31.4849 41.0641 30.6262 42.1819 28.8679C43.2996 27.1096 43.5391 26.2509 46.9322 23.7566C48.8083 22.2437 48.9281 20.9352 49.7664 20.0356C50.6046 19.0951 51.4829 19.0542 51.9619 20.3627C52.4409 21.6712 54.9957 27.5185 59.3867 28.5817C61.1032 29.0724 62.5003 29.3995 63.5382 29.4404C64.616 29.4404 67.051 29.3995 65.4942 28.6226ZM39.4674 28.7453C38.709 30.4218 36.5933 32.6708 34.757 33.4068C32.9208 34.1428 31.3241 36.0647 31.3241 36.0647C30.6055 36.9234 29.9668 37.6185 30.0467 37.4141C30.6055 36.1465 31.843 34.7971 31.843 34.7971C32.4418 34.2246 34.4377 32.4663 35.1163 31.1987C35.7949 29.9311 36.5534 27.5185 36.5534 27.5185C37.4316 27.355 38.7489 26.8234 39.5872 26.21C40.4255 25.5967 40.1859 27.0687 39.4674 28.7453Z" fill="url(#paint0_linear_1315_49)"/>
<rect x="78" y="6" width="1" height="30" fill="#6C7A88"/>
<path d="M92.12 6.2H95.62C96.4973 6.2 97.23 6.494 97.818 7.082C98.406 7.67 98.7 8.40267 98.7 9.28C98.7 10.1573 98.406 10.89 97.818 11.478C97.23 12.066 96.4973 12.36 95.62 12.36H93.1V16H92.12V6.2ZM93.1 11.436H95.62C96.2267 11.436 96.726 11.2353 97.118 10.834C97.5193 10.4327 97.72 9.91467 97.72 9.28C97.72 8.65467 97.5193 8.14133 97.118 7.74C96.726 7.32933 96.2267 7.124 95.62 7.124H93.1V11.436ZM108.415 14.698C107.435 15.678 106.236 16.168 104.817 16.168C103.399 16.168 102.199 15.678 101.219 14.698C100.239 13.6993 99.7495 12.5 99.7495 11.1C99.7495 9.69067 100.239 8.496 101.219 7.516C102.199 6.52667 103.399 6.032 104.817 6.032C106.236 6.032 107.435 6.52667 108.415 7.516C109.395 8.496 109.885 9.69067 109.885 11.1C109.885 12.5 109.395 13.6993 108.415 14.698ZM100.729 11.1C100.729 12.2573 101.121 13.2327 101.905 14.026C102.689 14.8193 103.66 15.216 104.817 15.216C105.975 15.216 106.945 14.8193 107.729 14.026C108.513 13.2327 108.905 12.2573 108.905 11.1C108.905 9.952 108.513 8.98133 107.729 8.188C106.945 7.38533 105.975 6.984 104.817 6.984C103.66 6.984 102.689 7.38533 101.905 8.188C101.121 8.98133 100.729 9.952 100.729 11.1ZM112.541 6.2V15.076H117.021V16H111.561V6.2H112.541ZM125.833 14.698C124.853 15.678 123.654 16.168 122.235 16.168C120.817 16.168 119.617 15.678 118.637 14.698C117.657 13.6993 117.167 12.5 117.167 11.1C117.167 9.69067 117.657 8.496 118.637 7.516C119.617 6.52667 120.817 6.032 122.235 6.032C123.654 6.032 124.853 6.52667 125.833 7.516C126.813 8.496 127.303 9.69067 127.303 11.1C127.303 12.5 126.813 13.6993 125.833 14.698ZM118.147 11.1C118.147 12.2573 118.539 13.2327 119.323 14.026C120.107 14.8193 121.078 15.216 122.235 15.216C123.393 15.216 124.363 14.8193 125.147 14.026C125.931 13.2327 126.323 12.2573 126.323 11.1C126.323 9.952 125.931 8.98133 125.147 8.188C124.363 7.38533 123.393 6.984 122.235 6.984C121.078 6.984 120.107 7.38533 119.323 8.188C118.539 8.98133 118.147 9.952 118.147 11.1ZM136.119 16H135.111L131.499 6.2H132.563L135.615 14.698L138.667 6.2H139.731L136.119 16ZM140.997 16V6.2H141.977V16H140.997ZM145.204 6.2V15.076H149.684V16H144.224V6.2H145.204ZM152.067 6.2V15.076H156.547V16H151.087V6.2H152.067ZM165.784 16H164.748L163.838 13.592H159.19L158.28 16H157.244L161.01 6.2H162.018L165.784 16ZM161.514 7.418L159.54 12.668H163.488L161.514 7.418ZM169.848 16.168C168.952 16.168 168.182 15.958 167.538 15.538C166.904 15.1087 166.46 14.5207 166.208 13.774L167.048 13.284C167.226 13.9 167.552 14.376 168.028 14.712C168.514 15.048 169.125 15.216 169.862 15.216C170.581 15.216 171.146 15.0573 171.556 14.74C171.967 14.4227 172.172 13.9933 172.172 13.452C172.172 12.9387 171.986 12.5513 171.612 12.29C171.248 12.0287 170.632 11.758 169.764 11.478C168.728 11.1327 168.056 10.862 167.748 10.666C167.002 10.218 166.628 9.56933 166.628 8.72C166.628 7.88933 166.918 7.236 167.496 6.76C168.066 6.27467 168.78 6.032 169.638 6.032C170.376 6.032 171.029 6.228 171.598 6.62C172.168 7.00267 172.592 7.51133 172.872 8.146L172.046 8.608C171.598 7.52533 170.796 6.984 169.638 6.984C169.022 6.984 168.528 7.138 168.154 7.446C167.79 7.74467 167.608 8.15533 167.608 8.678C167.608 9.17267 167.776 9.53667 168.112 9.77C168.458 10.0127 169.013 10.26 169.778 10.512L170.534 10.778C170.693 10.8247 170.917 10.9087 171.206 11.03C171.524 11.1513 171.743 11.254 171.864 11.338C172.359 11.6367 172.672 11.912 172.802 12.164C173.036 12.5373 173.152 12.9573 173.152 13.424C173.152 14.2547 172.849 14.922 172.242 15.426C171.636 15.9207 170.838 16.168 169.848 16.168ZM95.2 33.168C94.304 33.168 93.534 32.958 92.89 32.538C92.2553 32.1087 91.812 31.5207 91.56 30.774L92.4 30.284C92.5773 30.9 92.904 31.376 93.38 31.712C93.8653 32.048 94.4767 32.216 95.214 32.216C95.9327 32.216 96.4973 32.0573 96.908 31.74C97.3187 31.4227 97.524 30.9933 97.524 30.452C97.524 29.9387 97.3373 29.5513 96.964 29.29C96.6 29.0287 95.984 28.758 95.116 28.478C94.08 28.1327 93.408 27.862 93.1 27.666C92.3533 27.218 91.98 26.5693 91.98 25.72C91.98 24.8893 92.2693 24.236 92.848 23.76C93.4173 23.2747 94.1313 23.032 94.99 23.032C95.7273 23.032 96.3807 23.228 96.95 23.62C97.5193 24.0027 97.944 24.5113 98.224 25.146L97.398 25.608C96.95 24.5253 96.1473 23.984 94.99 23.984C94.374 23.984 93.8793 24.138 93.506 24.446C93.142 24.7447 92.96 25.1553 92.96 25.678C92.96 26.1727 93.128 26.5367 93.464 26.77C93.8093 27.0127 94.3647 27.26 95.13 27.512L95.886 27.778C96.0447 27.8247 96.2687 27.9087 96.558 28.03C96.8753 28.1513 97.0947 28.254 97.216 28.338C97.7107 28.6367 98.0233 28.912 98.154 29.164C98.3873 29.5373 98.504 29.9573 98.504 30.424C98.504 31.2547 98.2007 31.922 97.594 32.426C96.9873 32.9207 96.1893 33.168 95.2 33.168ZM100.118 33V23.2H101.098V33H100.118ZM107.811 28.338H112.711V28.842C112.711 30.0553 112.277 31.082 111.409 31.922C110.531 32.7527 109.369 33.168 107.923 33.168C106.429 33.168 105.202 32.678 104.241 31.698C103.27 30.7087 102.785 29.5093 102.785 28.1C102.785 26.6907 103.27 25.4913 104.241 24.502C105.202 23.522 106.429 23.032 107.923 23.032C108.819 23.032 109.649 23.2513 110.415 23.69C111.171 24.1287 111.754 24.712 112.165 25.44L111.297 25.944C110.989 25.3467 110.531 24.8707 109.925 24.516C109.318 24.1613 108.651 23.984 107.923 23.984C106.691 23.984 105.692 24.3807 104.927 25.174C104.152 25.9767 103.765 26.952 103.765 28.1C103.765 29.248 104.152 30.2233 104.927 31.026C105.692 31.8193 106.691 32.216 107.923 32.216C109.024 32.216 109.906 31.9407 110.569 31.39C111.222 30.83 111.6 30.1207 111.703 29.262H107.811V28.338ZM120.691 31.18V23.2H121.671V33H120.831L115.371 25.02V33H114.391V23.2H115.231L120.691 31.18ZM131.467 33H130.431L129.521 30.592H124.873L123.963 33H122.927L126.693 23.2H127.701L131.467 33ZM127.197 24.418L125.223 29.668H129.171L127.197 24.418ZM131.188 23.2H138.188V24.124H135.178V33H134.198V24.124H131.188V23.2ZM139.449 29.668V23.2H140.429V29.668C140.429 30.4613 140.662 31.0867 141.129 31.544C141.605 31.992 142.258 32.216 143.089 32.216C143.919 32.216 144.568 31.992 145.035 31.544C145.511 31.0867 145.749 30.4613 145.749 29.668V23.2H146.729V29.668C146.729 30.732 146.393 31.5813 145.721 32.216C145.039 32.8507 144.162 33.168 143.089 33.168C142.015 33.168 141.138 32.8507 140.457 32.216C139.785 31.5813 139.449 30.732 139.449 29.668ZM155.971 33H154.851L152.555 29.08H149.811V33H148.831V23.2H152.751C153.554 23.2 154.244 23.4893 154.823 24.068C155.402 24.6467 155.691 25.3373 155.691 26.14C155.691 26.812 155.49 27.4047 155.089 27.918C154.706 28.422 154.202 28.7673 153.577 28.954L155.971 33ZM152.751 24.124H149.811V28.156H152.751C153.292 28.156 153.754 27.96 154.137 27.568C154.52 27.1573 154.711 26.6813 154.711 26.14C154.711 25.5893 154.52 25.1133 154.137 24.712C153.754 24.32 153.292 24.124 152.751 24.124ZM158.356 28.52V32.076H163.116V33H157.376V23.2H163.046V24.124H158.356V27.596H162.696V28.52H158.356Z" fill="#E3EBF3"/>
<defs>
<linearGradient id="paint0_linear_1315_49" x1="0" y1="0" x2="49" y2="63.5" gradientUnits="userSpaceOnUse">
<stop stop-color="white"/>
<stop offset="1" stop-color="#6C7A88"/>
</linearGradient>
</defs>
</svg>
