<svg width="779" height="217" viewBox="0 0 779 217" fill="none" xmlns="http://www.w3.org/2000/svg">
<path d="M0.949219 3.29999H69.0492C87.8492 3.29999 103.349 9.39999 115.549 21.6C127.949 33.6 134.149 48.8 134.149 67.2C134.149 85.4 127.949 100.7 115.549 113.1C103.349 125.3 87.8492 131.4 69.0492 131.4H12.0492V213.3H0.949219V3.29999ZM12.0492 121.2H69.0492C84.6492 121.2 97.5492 116.1 107.749 105.9C117.949 95.7 123.049 82.8 123.049 67.2C123.049 51.8 117.949 39 107.749 28.8C97.5492 18.6 84.6492 13.5 69.0492 13.5H12.0492V121.2Z" fill="#ECF2F8"/>
<path d="M348.652 185.1C327.652 206.1 302.152 216.6 272.152 216.6C242.152 216.6 216.552 206.1 195.352 185.1C174.352 163.9 163.852 138.3 163.852 108.3C163.852 78.3 174.352 52.8 195.352 31.8C216.552 10.6 242.152 0 272.152 0C302.152 0 327.652 10.6 348.652 31.8C369.852 52.8 380.452 78.3 380.452 108.3C380.452 138.3 369.852 163.9 348.652 185.1ZM203.152 177.6C222.152 196.6 245.152 206.1 272.152 206.1C298.952 206.1 321.852 196.6 340.852 177.6C359.852 158.2 369.352 135.1 369.352 108.3C369.352 81.3 359.852 58.3 340.852 39.3C321.852 20.1 298.952 10.5 272.152 10.5C245.152 10.5 222.152 20.1 203.152 39.3C184.352 58.1 174.952 81.1 174.952 108.3C174.952 135.5 184.352 158.6 203.152 177.6Z" fill="#ECF2F8"/>
<path d="M435.389 3.29999V203.1H537.389V213.3H424.289V3.29999H435.389Z" fill="#ECF2F8"/>
<path d="M746.21 185.1C725.21 206.1 699.71 216.6 669.71 216.6C639.71 216.6 614.11 206.1 592.91 185.1C571.91 163.9 561.41 138.3 561.41 108.3C561.41 78.3 571.91 52.8 592.91 31.8C614.11 10.6 639.71 0 669.71 0C699.71 0 725.21 10.6 746.21 31.8C767.41 52.8 778.01 78.3 778.01 108.3C778.01 138.3 767.41 163.9 746.21 185.1ZM600.71 177.6C619.71 196.6 642.71 206.1 669.71 206.1C696.51 206.1 719.41 196.6 738.41 177.6C757.41 158.2 766.91 135.1 766.91 108.3C766.91 81.3 757.41 58.3 738.41 39.3C719.41 20.1 696.51 10.5 669.71 10.5C642.71 10.5 619.71 20.1 600.71 39.3C581.91 58.1 572.51 81.1 572.51 108.3C572.51 135.5 581.91 158.6 600.71 177.6Z" fill="#ECF2F8"/>
</svg>
