<svg width="948" height="232" viewBox="0 0 948 232" fill="none" xmlns="http://www.w3.org/2000/svg">
<path d="M97.5504 228.465H84.7148L0 3.53462H12.5147L91.1326 213.684L169.43 3.53462H182.265L97.5504 228.465Z" fill="#ECF2F8"/>
<path d="M217.109 228.465V3.53462H228.982V228.465H217.109Z" fill="#ECF2F8"/>
<path d="M300.43 3.53462V217.54H409.533V228.465H288.557V3.53462H300.43Z" fill="#ECF2F8"/>
<path d="M459.935 3.53462V217.54H569.037V228.465H448.062V3.53462H459.935Z" fill="#ECF2F8"/>
<path d="M779.413 228.465H766.898L743.794 169.019H626.028L602.924 228.465H590.409L678.333 3.53462H691.168L779.413 228.465ZM684.75 17.3518L630.199 158.094H739.622L684.75 17.3518Z" fill="#ECF2F8"/>
<path d="M876.121 232C855.798 232 838.577 227.394 824.458 218.183C810.338 208.757 800.712 196.225 795.578 180.587L805.525 174.803C809.59 188.942 817.826 200.188 830.234 208.543C842.641 216.683 858.044 220.753 876.442 220.753C895.267 220.753 909.921 216.255 920.404 207.258C931.1 198.046 936.448 186.157 936.448 171.59C936.448 158.737 931.635 148.561 922.008 141.064C912.381 133.566 896.658 126.497 874.837 119.856L852.375 112.787C844.032 109.359 837.828 106.574 833.763 104.432C824.137 99.5051 817.077 93.614 812.585 86.759C808.092 79.904 805.525 70.7996 804.883 59.446C804.883 42.5226 811.194 28.3841 823.816 17.0305C836.437 5.67682 852.482 0 871.949 0C888.635 0 902.969 4.2844 914.948 12.8532C926.928 21.2078 935.806 32.4543 941.582 46.5928L931.956 52.0554C921.473 24.8495 901.471 11.2465 871.949 11.2465C854.835 11.2465 841.251 15.9594 831.196 25.385C821.356 34.5965 816.435 45.843 816.435 59.1247C816.435 73.2632 822.425 83.9741 834.405 91.2576C841.893 95.542 847.99 98.6482 852.696 100.576C855.477 101.647 863.499 104.432 876.763 108.931C894.305 114.715 908.21 120.392 918.478 125.961C928.319 131.102 935.485 137.208 939.978 144.277C944.684 151.346 947.358 160.343 948 171.269C948 189.477 941.475 204.151 928.426 215.291C915.376 226.43 897.941 232 876.121 232Z" fill="#ECF2F8"/>
</svg>
