<svg width="25" height="25" viewBox="0 0 25 25" fill="none" xmlns="http://www.w3.org/2000/svg">
  <path fill-rule="evenodd" clip-rule="evenodd" d="M3.49833 1C2.66991 1 1.99833 1.67157 1.99833 2.5V2.74452H4.24285H4.39631V1H3.49833ZM5.39631 1V2.74452H7.01013V1H5.39631ZM8.01013 1V2.74452H9.88534V1H8.01013ZM10.8853 1V2.74452H12.6299V1H10.8853ZM13.6299 1V2.74452H15.3744V1H13.6299ZM16.3744 1V2.74452H18.1189V1H16.3744ZM19.1189 1V2.74452H20.8634V1H19.1189ZM21.8634 1V2.74452H22.0169H24V2.5C24 1.67157 23.3284 1 22.5 1H21.8634ZM22.5169 3.74452H24.5H25V3.24452V2.5C25 1.11929 23.8807 0 22.5 0H21.3634H18.6189H15.8744H13.1299H10.3853H7.51013H4.89631H3.49833C2.11762 0 0.998335 1.11929 0.998335 2.5V3.24452V3.74452H1.49833H3.74285V13.7226H3.67456C2.84613 13.7226 2.17456 14.3942 2.17456 15.2226V15.3136C2.17456 16.0309 2.67799 16.6306 3.35078 16.7786V21.5017C3.35078 22.8824 4.47007 24.0017 5.85078 24.0017H20.2782C21.659 24.0017 22.7782 22.8824 22.7782 21.5017V16.8013C23.5155 16.7066 24.0852 16.0766 24.0852 15.3136V15.2226C24.0852 14.3942 23.4136 13.7226 22.5852 13.7226H22.5169V3.74452ZM21.5169 3.74452H21.3634H18.6189H15.8744H13.1299H10.3853H7.51013H4.89631H4.74285V13.7226H5.33979C5.39837 13.2339 5.54505 12.8294 5.76375 12.5021C5.97516 12.1858 6.24056 11.9617 6.52045 11.8074C6.5682 10.9748 6.80426 10.326 7.21609 9.86907C7.68604 9.34769 8.31945 9.14839 8.94774 9.14839C9.73978 9.14839 10.2376 9.68109 10.5107 10.2587C10.7359 10.7351 10.8457 11.3048 10.8762 11.8395C11.4386 12.1703 11.8574 12.7977 11.9676 13.7226H13.0219V13.1315C13.0219 12.3031 13.6935 11.6315 14.5219 11.6315H14.6882V10.6484C14.6882 9.81996 15.3598 9.14839 16.1882 9.14839H17.6189C18.4473 9.14839 19.1189 9.81996 19.1189 10.6484V11.6315H19.1872C20.0156 11.6315 20.6872 12.3031 20.6872 13.1315V13.7226H21.5169V3.74452ZM19.6872 13.7226V13.1315C19.6872 12.8554 19.4633 12.6315 19.1872 12.6315H18.6189H17.3546V13.7226H19.6872ZM16.3546 13.7226V12.6315H15.1882H14.5219C14.2458 12.6315 14.0219 12.8554 14.0219 13.1315V13.7226H16.3546ZM18.1189 11.6315V10.6484C18.1189 10.3722 17.895 10.1484 17.6189 10.1484H16.1882C15.9121 10.1484 15.6882 10.3722 15.6882 10.6484V11.6315H16.8546H18.1189ZM10.959 13.7226C10.8454 13.0203 10.4942 12.7309 10.2131 12.6278C10.0177 12.5561 9.81719 12.5563 9.65839 12.6026C9.63644 12.609 9.61612 12.616 9.59734 12.6233C9.76982 12.9322 9.88877 13.2994 9.94084 13.7226H10.959ZM8.93054 13.7226C8.86462 13.3381 8.72475 13.0684 8.5684 12.8863C8.33465 12.6141 8.03411 12.5008 7.77151 12.5008C7.58573 12.5008 7.3792 12.5287 7.18458 12.6006C6.95818 12.6842 6.75034 12.8256 6.59516 13.0578C6.49071 13.2141 6.39899 13.4282 6.34966 13.7226H8.93054ZM8.91411 11.8622C9.05731 11.7622 9.21732 11.6895 9.37863 11.6425C9.52711 11.5992 9.68516 11.5748 9.84732 11.571C9.80415 11.2438 9.72411 10.9347 9.60658 10.686C9.42219 10.296 9.20123 10.1484 8.94774 10.1484C8.5305 10.1484 8.19574 10.2758 7.95889 10.5386C7.78368 10.733 7.62845 11.0386 7.5555 11.509C7.62997 11.5034 7.70223 11.5008 7.77151 11.5008C8.15804 11.5008 8.56042 11.6182 8.91411 11.8622ZM21.7782 16.8136H4.35078V21.5017C4.35078 22.3301 5.02235 23.0017 5.85078 23.0017H20.2782C21.1067 23.0017 21.7782 22.3301 21.7782 21.5017V16.8136ZM3.67456 14.7226C3.39841 14.7226 3.17456 14.9464 3.17456 15.2226V15.3136C3.17456 15.5898 3.39841 15.8136 3.67456 15.8136H3.85078H22.2782H22.5852C22.8613 15.8136 23.0852 15.5898 23.0852 15.3136V15.2226C23.0852 14.9464 22.8613 14.7226 22.5852 14.7226H22.0169H20.1872H16.8546H13.5219H11.4962H9.4705H5.81115H4.24285H3.67456Z" fill="#E3EBF3"/>
</svg>
