<svg width="24" height="24" viewBox="0 0 24 24" fill="none" xmlns="http://www.w3.org/2000/svg">
  <path fill-rule="evenodd" clip-rule="evenodd" d="M16.8955 14.7391L19.1369 20H22.9155H24L23.5802 19L17.3385 4.13252L16.8631 3L16.2171 4.04469L12.5877 9.91433L12 10.8648L11.4118 9.91463L7.77783 4.0442L7.13144 3L6.65638 4.13246L0.419476 19L-2.28882e-05 20H1.0844H4.86308L7.10451 14.7391L7.56662 13.6545L8.24184 14.621L11.39 19.127L12 20L12.6099 19.127L15.7581 14.621L16.4334 13.6545L16.8955 14.7391ZM12 18.254L15.6136 13.0818L16.6465 11.6035L17.3533 13.2626L19.7978 19H22.4956L16.6926 5.17721L12.8505 11.3907L12.0005 12.7655L11.1497 11.3912L7.30276 5.17666L1.5039 19H4.20216L6.64664 13.2626L7.35351 11.6035L8.38637 13.0818L12 18.254Z" fill="#E3EBF3"/>
</svg>
