<svg width="711" height="453" viewBox="0 0 711 453" fill="none" xmlns="http://www.w3.org/2000/svg">
<path d="M705.551 308.534C688.78 300.612 653.088 279.93 663.408 277.289C673.729 274.649 685.77 268.928 668.999 263.207C652.658 257.487 635.456 237.244 647.497 237.244C659.538 237.244 663.838 232.403 644.917 227.122C625.996 221.842 602.774 207.32 615.245 205.119C627.716 203.359 622.125 197.638 613.525 196.758C604.924 195.878 573.962 186.197 585.573 179.156C597.184 172.115 590.733 168.154 582.133 171.235C573.962 174.315 545.58 180.916 527.949 167.714C509.888 154.512 461.724 120.628 423.452 137.35C385.179 154.072 358.087 160.673 343.896 132.949C349.916 132.509 357.657 125.468 337.446 123.268C331.425 121.948 332.285 115.347 340.456 115.347C348.626 115.347 351.206 110.506 333.145 107.426C315.084 103.905 324.115 95.544 330.135 95.544C336.155 95.544 343.896 88.063 329.275 87.6229C314.654 87.1828 321.534 81.462 325.405 80.5819C329.275 79.7018 331.425 75.3012 317.234 73.541C309.494 72.2208 304.763 70.9006 307.773 67.8202C310.784 64.7397 304.333 64.2997 297.883 65.1798C298.313 61.2192 303.043 55.4984 287.132 56.8186C287.132 50.6578 291.432 42.2966 274.661 44.0569C275.091 40.0963 273.801 39.6562 263.48 40.0963C263.48 36.5758 262.62 34.3755 251.01 35.2556C251.44 31.2951 248.429 31.2951 245.419 30.855C247.569 25.5743 247.569 21.1737 235.098 24.6942C235.958 17.6532 226.928 10.1721 192.095 16.7731C178.764 18.5333 177.474 18.5333 173.174 12.8125C169.304 6.65166 161.993 -6.99024 160.703 5.77154C159.413 11.0523 153.393 12.3725 146.942 16.333C140.492 20.2936 142.212 29.0948 132.321 22.4939C122 16.333 124.581 -6.11012 117.7 7.97184C110.82 22.0538 122.431 38.7761 125.011 41.4165C125.871 44.937 126.301 47.1373 119.42 52.418C112.54 57.6987 97.4888 68.2602 101.359 89.3831C95.3386 98.1844 75.1272 122.388 67.8167 132.949C60.5062 143.511 59.2161 152.312 64.8065 158.913C65.2365 169.474 67.8167 178.716 86.308 180.916C91.0383 183.556 99.2089 181.356 111.68 168.594C124.151 155.832 138.342 144.391 152.963 143.071C167.584 141.75 168.014 133.829 170.164 132.509C172.314 131.189 177.474 129.429 182.635 141.75C187.795 154.072 195.966 167.714 201.556 173.875C207.146 179.596 201.126 199.839 192.955 214.801C184.785 229.763 184.355 252.646 186.075 263.647C182.205 269.368 130.171 319.535 104.799 339.338C79.4275 359.581 36.4245 393.465 20.9434 404.907C5.03231 416.349 -11.3088 430.431 10.6227 440.112C20.9434 443.632 37.2846 446.713 39.8647 428.23C39.8647 428.23 43.305 412.828 52.7657 408.868C62.2263 405.347 71.2569 399.626 85.878 382.464C100.499 364.861 163.713 321.295 210.587 303.253C229.938 295.772 237.679 299.292 245.849 303.253C254.02 307.213 243.269 314.694 235.528 319.975C235.528 319.975 209.727 339.778 202.416 347.699C195.106 355.62 201.126 372.783 208.437 381.144C215.747 389.505 227.358 405.347 230.798 411.068C234.238 416.789 251.87 414.148 258.32 415.028C265.201 415.909 281.542 417.669 287.132 414.588C292.722 411.948 295.303 404.027 288.422 396.986C281.542 389.945 268.211 375.423 254.45 390.385C249.719 395.226 246.709 395.226 239.829 387.745C232.948 380.264 224.778 372.342 230.368 362.661C235.958 352.98 256.6 344.619 273.371 336.698C290.142 328.776 307.343 316.015 315.084 307.213C327.125 307.213 356.797 307.213 356.797 307.213C356.797 307.213 359.807 308.094 356.797 313.374C353.787 319.095 338.306 361.341 298.313 403.587C282.832 420.749 279.822 421.189 272.511 425.59C264.77 429.99 257.89 444.072 277.241 451.994C287.562 455.074 298.313 443.632 298.313 430.431C297.883 424.71 315.514 414.148 321.964 406.227C320.244 412.388 318.094 424.27 323.255 425.15C328.845 426.03 353.357 422.509 353.357 410.628C353.357 398.746 353.357 395.226 358.087 391.705C362.817 388.185 404.53 362.661 435.062 349.459C455.274 339.338 442.373 330.097 454.414 311.174C466.455 292.251 469.035 283.01 505.587 256.166C525.799 239.884 527.089 225.802 536.119 216.121C545.15 205.999 554.611 205.559 559.771 219.641C564.931 233.723 592.453 296.652 639.757 308.094C658.248 313.374 673.299 316.895 684.48 317.335C696.091 317.335 722.323 316.895 705.551 308.534ZM425.172 309.854C417.001 327.896 394.21 352.1 374.428 360.021C354.647 367.942 337.446 388.625 337.446 388.625C329.705 397.866 322.825 405.347 323.685 403.147C329.705 389.505 343.036 374.983 343.036 374.983C349.486 368.822 370.988 349.899 378.298 336.257C385.609 322.616 393.779 296.652 393.779 296.652C403.24 294.892 417.431 289.171 426.462 282.57C435.492 275.969 432.912 291.811 425.172 309.854Z" fill="url(#paint0_linear_1419_834)"/>
<defs>
<linearGradient id="paint0_linear_1419_834" x1="3.09539e-07" y1="299.5" x2="711" y2="299.5" gradientUnits="userSpaceOnUse">
<stop stop-color="#353D47"/>
<stop offset="1"/>
</linearGradient>
</defs>
</svg>
