<svg width="877" height="245" viewBox="0 0 877 245" fill="none" xmlns="http://www.w3.org/2000/svg">
<path d="M77.1832 4.34929C98.3691 4.34929 115.836 11.2234 129.584 24.9717C143.558 38.4946 150.545 55.6236 150.545 76.3587C150.545 97.0938 143.558 114.336 129.584 128.084C115.836 141.832 98.3691 148.706 77.1832 148.706H12.9494V241H0.440736V4.34929H77.1832ZM77.1832 137.212C94.7629 137.212 109.3 131.465 120.795 119.97C132.289 108.476 138.036 93.9385 138.036 76.3587C138.036 59.0043 132.289 44.5799 120.795 33.0855C109.3 21.591 94.7629 15.8438 77.1832 15.8438H12.9494V137.212H77.1832ZM392.269 209.221C368.604 232.886 339.868 244.719 306.061 244.719C272.254 244.719 243.405 232.886 219.514 209.221C195.849 185.331 184.017 156.482 184.017 122.675C184.017 88.8674 195.849 60.1313 219.514 36.4662C243.405 12.5757 272.254 0.630502 306.061 0.630502C339.868 0.630502 368.604 12.5757 392.269 36.4662C416.16 60.1313 428.105 88.8674 428.105 122.675C428.105 156.482 416.16 185.331 392.269 209.221ZM228.304 200.769C249.715 222.181 275.634 232.886 306.061 232.886C336.487 232.886 362.294 222.181 383.479 200.769C404.891 179.133 415.596 153.101 415.596 122.675C415.596 92.2481 404.891 66.3292 383.479 44.918C362.294 23.2813 336.487 12.463 306.061 12.463C275.634 12.463 249.715 23.2813 228.304 44.918C207.118 66.3292 196.525 92.2481 196.525 122.675C196.525 153.101 207.118 179.133 228.304 200.769ZM490.014 229.506H604.959V241H477.506V4.34929H490.014V229.506ZM840.281 209.221C816.616 232.886 787.88 244.719 754.073 244.719C720.266 244.719 691.417 232.886 667.526 209.221C643.861 185.331 632.029 156.482 632.029 122.675C632.029 88.8674 643.861 60.1313 667.526 36.4662C691.417 12.5757 720.266 0.630502 754.073 0.630502C787.88 0.630502 816.616 12.5757 840.281 36.4662C864.172 60.1313 876.117 88.8674 876.117 122.675C876.117 156.482 864.172 185.331 840.281 209.221ZM676.316 200.769C697.727 222.181 723.646 232.886 754.073 232.886C784.499 232.886 810.306 222.181 831.491 200.769C852.903 179.133 863.608 153.101 863.608 122.675C863.608 92.2481 852.903 66.3292 831.491 44.918C810.306 23.2813 784.499 12.463 754.073 12.463C723.646 12.463 697.727 23.2813 676.316 44.918C655.13 66.3292 644.537 92.2481 644.537 122.675C644.537 153.101 655.13 179.133 676.316 200.769Z" fill="#ECF2F8"/>
</svg>
