<svg width="1000" height="245" viewBox="0 0 1000 245" fill="none" xmlns="http://www.w3.org/2000/svg">
<path d="M89.9984 241L0.747231 4.34929H13.9321L96.7598 225.449L179.249 4.34929H192.772L103.521 241H89.9984ZM229.482 4.34929H241.991V241H229.482V4.34929ZM317.265 229.506H432.21V241H304.756V4.34929H317.265V229.506ZM485.311 229.506H600.255V241H472.802V4.34929H485.311V229.506ZM808.711 241L784.37 178.457H660.297L635.956 241H622.771L715.403 4.34929H728.926L821.896 241H808.711ZM664.692 166.962H779.975L722.165 18.8864L664.692 166.962ZM923.783 244.719C901.921 244.719 883.552 239.76 868.677 229.844C854.027 219.927 844.11 206.855 838.926 190.627L849.407 184.542C853.689 199.192 862.253 210.912 875.1 219.701C888.172 228.491 904.512 232.886 924.121 232.886C944.405 232.886 959.956 228.041 970.775 218.349C981.818 208.658 987.34 196.262 987.34 181.161C987.34 167.188 981.931 156.257 971.113 148.368C960.294 140.48 944.067 133.268 922.43 126.732C912.739 123.802 904.851 121.322 898.765 119.294C892.905 117.04 886.369 114.11 879.157 110.504C872.17 106.898 866.648 103.066 862.592 99.0096C858.76 94.9527 855.492 89.8816 852.787 83.7963C850.083 77.711 848.731 70.8369 848.731 63.1739C848.731 45.1434 855.379 30.2682 868.677 18.5483C881.974 6.60311 898.878 0.630502 919.388 0.630502C937.418 0.630502 952.631 5.25083 965.027 14.4915C977.649 23.5067 986.889 35.2266 992.749 49.651L982.607 55.3982C971.564 26.7748 950.49 12.463 919.388 12.463C901.357 12.463 887.045 17.4214 876.452 27.3382C866.085 37.0296 860.901 48.8622 860.901 62.8358C860.901 70.2734 862.366 76.8095 865.296 82.444C868.226 87.8532 873.072 92.5862 879.833 96.6431C886.82 100.7 893.243 103.968 899.103 106.447C904.963 108.701 913.415 111.631 924.459 115.237C934.15 118.392 942.039 121.21 948.124 123.689C954.435 126.168 961.196 129.323 968.408 133.155C975.62 136.986 981.255 141.043 985.312 145.325C989.369 149.382 992.749 154.453 995.454 160.539C998.159 166.624 999.511 173.386 999.511 180.823C999.511 199.981 992.637 215.419 978.888 227.139C965.366 238.859 946.997 244.719 923.783 244.719Z" fill="#ECF2F8"/>
</svg>
