<svg width="931" height="592" viewBox="0 0 931 592" fill="none" xmlns="http://www.w3.org/2000/svg">
<path d="M7.13464 403.442C29.0952 393.068 75.8318 365.979 62.3176 362.52C48.8034 359.062 33.0368 351.57 54.9974 344.077C76.3948 336.584 98.9186 310.071 83.152 310.071C67.3854 310.071 61.7545 303.731 86.5306 296.815C111.307 289.899 141.714 270.879 125.384 267.997C109.054 265.691 116.374 258.199 127.636 257.046C138.898 255.893 179.441 243.213 164.237 233.991C149.034 224.77 157.48 219.582 168.742 223.617C179.441 227.651 216.605 236.297 239.691 219.006C263.341 201.715 326.408 157.335 376.523 179.237C426.638 201.139 462.113 209.784 480.695 173.473C472.811 172.897 462.676 163.675 489.141 160.793C497.024 159.064 495.898 150.419 485.199 150.419C474.501 150.419 471.122 144.079 494.772 140.044C518.422 135.433 506.597 124.482 498.713 124.482C490.83 124.482 480.695 114.684 499.84 114.108C518.985 113.532 509.975 106.039 504.908 104.886C499.84 103.733 497.024 97.9697 515.606 95.6643C525.742 93.9352 531.936 92.2061 527.994 88.1715C524.053 84.137 532.499 83.5606 540.945 84.7134C540.382 79.5261 534.188 72.0334 555.023 73.7624C555.023 65.6934 549.392 54.7425 571.352 57.0479C570.789 51.8606 572.478 51.2843 585.993 51.8606C585.993 47.2497 587.119 44.3679 602.322 45.5207C601.759 40.3334 605.701 40.3334 609.643 39.757C606.827 32.8407 606.827 27.077 623.157 31.6879C622.031 22.4661 633.855 12.6679 679.466 21.3134C696.922 23.6188 698.611 23.6188 704.242 16.1261C709.31 8.05704 718.882 -9.81022 720.571 6.90431C722.261 13.8207 730.144 15.5498 738.59 20.737C747.037 25.9243 744.784 37.4516 757.736 28.8061C771.25 20.737 767.871 -8.6575 776.881 9.78613C785.89 28.2298 770.687 50.1316 767.308 53.5897C766.182 58.2006 765.619 61.0825 774.628 67.9988C783.638 74.9152 803.346 88.7479 798.278 116.413C806.161 127.941 832.627 159.641 842.199 173.473C851.772 187.306 853.461 198.833 846.141 207.479C845.578 221.311 842.199 233.415 817.986 236.297C811.792 239.755 801.094 236.873 784.764 220.159C768.434 203.444 749.852 188.459 730.707 186.73C711.562 185.001 710.999 174.626 708.183 172.897C705.368 171.168 698.611 168.862 691.854 185.001C685.097 201.139 674.398 219.006 667.078 227.075C659.758 234.568 667.641 261.081 678.34 280.677C689.038 300.273 689.601 330.244 687.349 344.653C692.417 352.146 760.551 417.851 793.773 443.788C826.996 470.3 883.305 514.68 903.576 529.666C924.411 544.651 945.808 563.095 917.09 575.775C903.576 580.386 882.179 584.42 878.8 560.213C878.8 560.213 874.295 540.04 861.907 534.853C849.519 530.242 837.694 522.749 818.549 500.271C799.404 477.217 716.63 420.157 655.253 396.526C629.914 386.728 619.778 391.339 609.079 396.526C598.381 401.713 612.458 411.511 622.594 418.428C622.594 418.428 656.379 444.364 665.952 454.739C675.524 465.113 667.641 487.591 658.068 498.542C648.496 509.493 633.292 530.242 628.788 537.735C624.283 545.228 601.196 541.769 592.75 542.922C583.74 544.075 562.343 546.38 555.023 542.346C547.702 538.888 544.324 528.513 553.333 519.291C562.343 510.069 579.799 491.049 597.818 510.646C604.012 516.986 607.953 516.986 616.963 507.188C625.972 497.389 636.671 487.015 629.351 474.335C622.031 461.655 595.002 450.704 573.042 440.329C551.081 429.955 528.557 413.24 518.422 401.713C502.655 401.713 463.802 401.713 463.802 401.713C463.802 401.713 459.86 402.866 463.802 409.782C467.743 417.275 488.015 472.606 540.382 527.937C560.654 550.415 564.595 550.991 574.168 556.755C584.303 562.518 593.313 580.962 567.974 591.337C554.46 595.371 540.382 580.386 540.382 563.095C540.945 555.602 517.859 541.769 509.412 531.395C511.665 539.464 514.48 555.026 507.723 556.178C500.403 557.331 468.307 552.72 468.307 537.159C468.307 521.597 468.307 516.986 462.113 512.375C455.919 507.764 401.299 474.335 361.319 457.044C334.854 443.788 351.747 431.684 335.98 406.9C320.214 382.117 316.835 370.013 268.972 334.855C242.507 313.53 240.818 295.086 228.993 282.406C217.168 269.15 204.78 268.573 198.023 287.017C191.266 305.46 155.228 387.88 93.2877 402.866C69.0747 409.782 49.3666 414.393 34.7262 414.969C19.5227 414.969 -14.8259 414.393 7.13464 403.442ZM374.27 405.171C384.969 428.802 414.813 460.502 440.715 470.877C466.617 481.251 489.141 508.34 489.141 508.34C499.277 520.444 508.286 530.242 507.16 527.36C499.277 509.493 481.821 490.473 481.821 490.473C473.374 482.404 445.22 457.62 435.647 439.753C426.075 421.886 415.376 387.88 415.376 387.88C402.988 385.575 384.406 378.082 372.581 369.437C360.756 360.791 364.135 381.54 374.27 405.171Z" fill="black"/>
</svg>
