<svg width="25" height="25" viewBox="0 0 25 25" fill="none" xmlns="http://www.w3.org/2000/svg">
  <path fill-rule="evenodd" clip-rule="evenodd" d="M3.49833 1C2.66991 1 1.99833 1.67157 1.99833 2.5V2.74452H4.24285H4.39631V1H3.49833ZM5.39631 1V2.74452H7.01013V1H5.39631ZM8.01013 1V2.74452H9.88534V1H8.01013ZM10.8853 1V2.74452H12.6299V1H10.8853ZM13.6299 1V2.74452H15.3744V1H13.6299ZM16.3744 1V2.74452H18.1189V1H16.3744ZM19.1189 1V2.74452H20.8634V1H19.1189ZM21.8634 1V2.74452H22.0169H24V2.5C24 1.67157 23.3284 1 22.5 1H21.8634ZM22.5169 3.74452H24.5H25V3.24452V2.5C25 1.11929 23.8807 0 22.5 0H21.3634H18.6189H15.8744H13.1299H10.3853H7.51013H4.89631H3.49833C2.11762 0 0.998335 1.11929 0.998335 2.5V3.24452V3.74452H1.49833H3.74285V13.7226H3.67456C2.84613 13.7226 2.17456 14.3942 2.17456 15.2226V15.3136C2.17456 16.0309 2.67799 16.6306 3.35078 16.7786V21.5017C3.35078 22.8824 4.47007 24.0017 5.85078 24.0017H20.2782C21.659 24.0017 22.7782 22.8824 22.7782 21.5017V16.8013C23.5155 16.7066 24.0852 16.0766 24.0852 15.3136V15.2226C24.0852 14.3942 23.4136 13.7226 22.5852 13.7226H22.5169V3.74452ZM21.5169 3.74452H21.3634H18.6189H15.8744H13.1299H10.3853H7.51013H4.89631H4.74285V13.7226H5.33979C5.39837 13.2339 5.54505 12.8294 5.76375 12.5021C5.97516 12.1858 6.24056 11.9617 6.52045 11.8074C6.5682 10.9748 6.80426 10.326 7.21609 9.86907C7.68604 9.34769 8.31945 9.14839 8.94774 9.14839C9.73978 9.14839 10.2376 9.68109 10.5107 10.2587C10.7359 10.7351 10.8457 11.3048 10.8762 11.8395C11.4386 12.1703 11.8574 12.7977 11.9676 13.7226H13.0219V13.1315C13.0219 12.3031 13.6935 11.6315 14.5219 11.6315H14.6882V10.6484C14.6882 9.81996 15.3598 9.14839 16.1882 9.14839H17.6189C18.4473 9.14839 19.1189 9.81996 19.1189 10.6484V11.6315H19.1872C20.0156 11.6315 20.6872 12.3031 20.6872 13.1315V13.7226H21.5169V3.74452ZM19.6872 13.7226V13.1315C19.6872 12.8554 19.4633 12.6315 19.1872 12.6315H18.6189H17.3546V13.7226H19.6872ZM16.3546 13.7226V12.6315H15.1882H14.5219C14.2458 12.6315 14.0219 12.8554 14.0219 13.1315V13.7226H16.3546ZM18.1189 11.6315V10.6484C18.1189 10.3722 17.895 10.1484 17.6189 10.1484H16.1882C15.9121 10.1484 15.6882 10.3722 15.6882 10.6484V11.6315H16.8546H18.1189ZM10.959 13.7226C10.8454 13.0203 10.4942 12.7309 10.2131 12.6278C10.0177 12.5561 9.81719 12.5563 9.65839 12.6026C9.63644 12.609 9.61612 12.616 9.59734 12.6233C9.76982 12.9322 9.88877 13.2994 9.94084 13.7226H10.959ZM8.93054 13.7226C8.86462 13.3381 8.72475 13.0684 8.5684 12.8863C8.33465 12.6141 8.03411 12.5008 7.77151 12.5008C7.58573 12.5008 7.3792 12.5287 7.18458 12.6006C6.95818 12.6842 6.75034 12.8256 6.59516 13.0578C6.49071 13.2141 6.39899 13.4282 6.34966 13.7226H8.93054ZM8.91411 11.8622C9.05731 11.7622 9.21732 11.6895 9.37863 11.6425C9.52711 11.5992 9.68516 11.5748 9.84732 11.571C9.80415 11.2438 9.72411 10.9347 9.60658 10.686C9.42219 10.296 9.20123 10.1484 8.94774 10.1484C8.5305 10.1484 8.19574 10.2758 7.95889 10.5386C7.78368 10.733 7.62845 11.0386 7.5555 11.509C7.62997 11.5034 7.70223 11.5008 7.77151 11.5008C8.15804 11.5008 8.56042 11.6182 8.91411 11.8622ZM21.7782 16.8136H4.35078V21.5017C4.35078 22.3301 5.02235 23.0017 5.85078 23.0017H20.2782C21.1067 23.0017 21.7782 22.3301 21.7782 21.5017V16.8136ZM3.67456 14.7226C3.39841 14.7226 3.17456 14.9464 3.17456 15.2226V15.3136C3.17456 15.5898 3.39841 15.8136 3.67456 15.8136H3.85078H22.2782H22.5852C22.8613 15.8136 23.0852 15.5898 23.0852 15.3136V15.2226C23.0852 14.9464 22.8613 14.7226 22.5852 14.7226H22.0169H20.1872H16.8546H13.5219H11.4962H9.4705H5.81115H4.24285H3.67456Z" fill="#E3EBF3"/>
  <svg width="44" height="54" viewBox="0 0 44 54" fill="none" xmlns="http://www.w3.org/2000/svg">
  <path d="M44 21.6C44 37.8 22 54 22 54C22 54 0 37.8 0 21.6C0 15.8713 2.31785 10.3773 6.44365 6.32649C10.5695 2.27571 16.1652 0 22 0C27.8348 0 33.4306 2.27571 37.5564 6.32649C41.6822 10.3773 44 15.8713 44 21.6V21.6Z" fill="#1A1E21"/>
  <path fill-rule="evenodd" clip-rule="evenodd" d="M12.4983 11C11.6699 11 10.9983 11.6716 10.9983 12.5V12.7445H13.2429H13.3963V11H12.4983ZM14.3963 11V12.7445H16.0101V11H14.3963ZM17.0101 11V12.7445H18.8853V11H17.0101ZM19.8853 11V12.7445H21.6299V11H19.8853ZM22.6299 11V12.7445H24.3744V11H22.6299ZM25.3744 11V12.7445H27.1189V11H25.3744ZM28.1189 11V12.7445H29.8634V11H28.1189ZM30.8634 11V12.7445H31.0169H33V12.5C33 11.6716 32.3284 11 31.5 11H30.8634ZM31.5169 13.7445H33.5H34V13.2445V12.5C34 11.1193 32.8807 10 31.5 10H30.3634H27.6189H24.8744H22.1299H19.3853H16.5101H13.8963H12.4983C11.1176 10 9.99833 11.1193 9.99833 12.5V13.2445V13.7445H10.4983H12.7429V23.7226H12.6746C11.8461 23.7226 11.1746 24.3942 11.1746 25.2226V25.3136C11.1746 26.0309 11.678 26.6306 12.3508 26.7786V31.5017C12.3508 32.8824 13.4701 34.0017 14.8508 34.0017H29.2782C30.659 34.0017 31.7782 32.8824 31.7782 31.5017V26.8013C32.5155 26.7066 33.0852 26.0766 33.0852 25.3136V25.2226C33.0852 24.3942 32.4136 23.7226 31.5852 23.7226H31.5169V13.7445ZM30.5169 13.7445H30.3634H27.6189H24.8744H22.1299H19.3853H16.5101H13.8963H13.7429V23.7226H14.3398C14.3984 23.2339 14.545 22.8294 14.7638 22.5021C14.9752 22.1858 15.2406 21.9617 15.5205 21.8074C15.5682 20.9748 15.8043 20.326 16.2161 19.8691C16.686 19.3477 17.3194 19.1484 17.9477 19.1484C18.7398 19.1484 19.2376 19.6811 19.5107 20.2587C19.7359 20.7351 19.8457 21.3048 19.8762 21.8395C20.4386 22.1703 20.8574 22.7977 20.9676 23.7226H22.0219V23.1315C22.0219 22.3031 22.6935 21.6315 23.5219 21.6315H23.6882V20.6484C23.6882 19.82 24.3598 19.1484 25.1882 19.1484H26.6189C27.4473 19.1484 28.1189 19.82 28.1189 20.6484V21.6315H28.1872C29.0156 21.6315 29.6872 22.3031 29.6872 23.1315V23.7226H30.5169V13.7445ZM28.6872 23.7226V23.1315C28.6872 22.8554 28.4633 22.6315 28.1872 22.6315H27.6189H26.3546V23.7226H28.6872ZM25.3546 23.7226V22.6315H24.1882H23.5219C23.2458 22.6315 23.0219 22.8554 23.0219 23.1315V23.7226H25.3546ZM27.1189 21.6315V20.6484C27.1189 20.3722 26.895 20.1484 26.6189 20.1484H25.1882C24.9121 20.1484 24.6882 20.3722 24.6882 20.6484V21.6315H25.8546H27.1189ZM19.959 23.7226C19.8454 23.0203 19.4942 22.7309 19.2131 22.6278C19.0177 22.5561 18.8172 22.5563 18.6584 22.6026C18.6364 22.609 18.6161 22.616 18.5973 22.6233C18.7698 22.9322 18.8888 23.2994 18.9408 23.7226H19.959ZM17.9305 23.7226C17.8646 23.3381 17.7247 23.0684 17.5684 22.8863C17.3346 22.6141 17.0341 22.5008 16.7715 22.5008C16.5857 22.5008 16.3792 22.5287 16.1846 22.6006C15.9582 22.6842 15.7503 22.8256 15.5952 23.0578C15.4907 23.2141 15.399 23.4282 15.3497 23.7226H17.9305ZM17.9141 21.8622C18.0573 21.7622 18.2173 21.6895 18.3786 21.6425C18.5271 21.5992 18.6852 21.5748 18.8473 21.571C18.8042 21.2438 18.7241 20.9347 18.6066 20.686C18.4222 20.296 18.2012 20.1484 17.9477 20.1484C17.5305 20.1484 17.1957 20.2758 16.9589 20.5386C16.7837 20.733 16.6284 21.0386 16.5555 21.509C16.63 21.5034 16.7022 21.5008 16.7715 21.5008C17.158 21.5008 17.5604 21.6182 17.9141 21.8622ZM30.7782 26.8136H13.3508V31.5017C13.3508 32.3301 14.0224 33.0017 14.8508 33.0017H29.2782C30.1067 33.0017 30.7782 32.3301 30.7782 31.5017V26.8136ZM12.6746 24.7226C12.3984 24.7226 12.1746 24.9464 12.1746 25.2226V25.3136C12.1746 25.5898 12.3984 25.8136 12.6746 25.8136H12.8508H31.2782H31.5852C31.8613 25.8136 32.0852 25.5898 32.0852 25.3136V25.2226C32.0852 24.9464 31.8613 24.7226 31.5852 24.7226H31.0169H29.1872H25.8546H22.5219H20.4962H18.4705H14.8111H13.2429H12.6746Z" fill="#E3EBF3"/>
</svg>
