<svg width="82" height="100" viewBox="0 0 82 100" fill="none" xmlns="http://www.w3.org/2000/svg">
<path d="M82 40C82 70 41 100 41 100C41 100 0 70 0 40C0 29.3913 4.31963 19.2172 12.0086 11.7157C19.6976 4.21427 30.1261 0 41 0C51.8739 0 62.3024 4.21427 69.9914 11.7157C77.6804 19.2172 82 29.3913 82 40V40Z" fill="#2E3237"/>
<path d="M68.5709 44.5337C67.2499 43.9028 64.4387 42.2555 65.2516 42.0452C66.0645 41.8349 67.0128 41.3792 65.6919 40.9236C64.4048 40.468 63.05 38.8557 63.9984 38.8557C64.9467 38.8557 65.2854 38.4702 63.7952 38.0496C62.3049 37.629 60.4759 36.4724 61.4581 36.2971C62.4404 36.1569 62 35.7013 61.3226 35.6312C60.6452 35.5611 58.2066 34.79 59.1211 34.2292C60.0356 33.6684 59.5275 33.353 58.8501 33.5983C58.2066 33.8437 55.9711 34.3694 54.5825 33.3179C53.1599 32.2665 49.3665 29.5677 46.352 30.8995C43.3376 32.2314 41.2038 32.7571 40.086 30.5491C40.5602 30.514 41.1699 29.9532 39.578 29.778C39.1038 29.6728 39.1715 29.1471 39.8151 29.1471C40.4586 29.1471 40.6618 28.7615 39.2393 28.5162C37.8167 28.2358 38.528 27.5699 39.0022 27.5699C39.4764 27.5699 40.086 26.974 38.9345 26.939C37.7829 26.9039 38.3248 26.4483 38.6296 26.3782C38.9345 26.3081 39.1038 25.9576 37.9861 25.8174C37.3764 25.7123 37.0039 25.6071 37.2409 25.3618C37.478 25.1164 36.97 25.0814 36.4619 25.1515C36.4958 24.836 36.8684 24.3804 35.6152 24.4856C35.6152 23.9949 35.9539 23.3289 34.6329 23.4691C34.6668 23.1537 34.5652 23.1186 33.7523 23.1537C33.7523 22.8733 33.6846 22.698 32.7701 22.7681C32.804 22.4527 32.5669 22.4527 32.3298 22.4177C32.4991 21.9971 32.4991 21.6466 31.5169 21.927C31.5846 21.3662 30.8734 20.7703 28.1299 21.2961C27.0799 21.4363 26.9783 21.4363 26.6396 20.9806C26.3348 20.49 25.759 19.4034 25.6574 20.4199C25.5557 20.8404 25.0816 20.9456 24.5735 21.261C24.0655 21.5765 24.2009 22.2775 23.4219 21.7517C22.609 21.261 22.8123 19.4735 22.2703 20.5951C21.7284 21.7167 22.6429 23.0485 22.8461 23.2588C22.9139 23.5392 22.9477 23.7145 22.4058 24.1351C21.8639 24.5557 20.6784 25.3968 20.9833 27.0792C20.5091 27.7802 18.9172 29.7079 18.3414 30.5491C17.7656 31.3902 17.664 32.0912 18.1043 32.617C18.1382 33.4581 18.3414 34.1942 19.7978 34.3694C20.1704 34.5797 20.8139 34.4045 21.7962 33.388C22.7784 32.3716 23.8961 31.4603 25.0477 31.3552C26.1993 31.25 26.2331 30.6192 26.4025 30.514C26.5718 30.4089 26.9783 30.2687 27.3847 31.25C27.7912 32.2314 28.4347 33.3179 28.875 33.8086C29.3153 34.2643 28.8411 35.8765 28.1976 37.0682C27.5541 38.2599 27.5202 40.0824 27.6557 40.9586C27.3509 41.4143 23.2526 45.4099 21.2542 46.9871C19.2559 48.5993 15.8689 51.2981 14.6496 52.2094C13.3964 53.1207 12.1093 54.2423 13.8367 55.0133C14.6496 55.2937 15.9366 55.5391 16.1398 54.067C16.1398 54.067 16.4108 52.8403 17.1559 52.5249C17.9011 52.2445 18.6124 51.7888 19.7639 50.4219C20.9155 49.0199 25.8944 45.5501 29.5863 44.1131C31.1105 43.5172 31.7201 43.7976 32.3636 44.1131C33.0072 44.4285 32.1604 45.0243 31.5508 45.4449C31.5508 45.4449 29.5186 47.0221 28.9428 47.653C28.367 48.2839 28.8411 49.6508 29.4169 50.3168C29.9927 50.9827 30.9072 52.2445 31.1782 52.7001C31.4492 53.1557 32.8378 52.9454 33.3459 53.0155C33.8878 53.0856 35.1749 53.2258 35.6152 52.9805C36.0555 52.7702 36.2587 52.1393 35.7168 51.5785C35.1749 51.0177 34.1249 49.8611 33.041 51.0528C32.6685 51.4383 32.4314 51.4383 31.8895 50.8425C31.3475 50.2467 30.704 49.6158 31.1443 48.8447C31.5846 48.0736 33.2104 47.4077 34.5313 46.7768C35.8523 46.1459 37.2071 45.1295 37.8167 44.4285C38.7651 44.4285 41.1021 44.4285 41.1021 44.4285C41.1021 44.4285 41.3392 44.4986 41.1021 44.9192C40.8651 45.3748 39.6457 48.7395 36.4958 52.1043C35.2765 53.4712 35.0394 53.5062 34.4636 53.8567C33.8539 54.2072 33.312 55.3288 34.8362 55.9597C35.6491 56.205 36.4958 55.2937 36.4958 54.2423C36.4619 53.7866 37.8506 52.9454 38.3587 52.3146C38.2232 52.8052 38.0538 53.7516 38.4603 53.8217C38.9006 53.8918 40.8312 53.6114 40.8312 52.665C40.8312 51.7187 40.8312 51.4383 41.2038 51.1579C41.5763 50.8775 44.8617 48.8447 47.2665 47.7932C48.8584 46.9871 47.8423 46.2511 48.7907 44.7439C49.739 43.2368 49.9423 42.5008 52.8212 40.3628C54.4131 39.066 54.5147 37.9444 55.226 37.1733C55.9373 36.3672 56.6824 36.3322 57.0889 37.4537C57.4953 38.5753 59.663 43.5873 63.3887 44.4986C64.8451 44.9192 66.0306 45.1996 66.9112 45.2346C67.8257 45.2346 69.8918 45.1996 68.5709 44.5337ZM46.4875 44.6388C45.844 46.0758 44.0489 48.0035 42.4908 48.6344C40.9328 49.2653 39.578 50.9126 39.578 50.9126C38.9683 51.6486 38.4264 52.2445 38.4941 52.0692C38.9683 50.9827 40.0183 49.8261 40.0183 49.8261C40.5264 49.3354 42.2199 47.8283 42.7957 46.7417C43.3714 45.6552 44.015 43.5873 44.015 43.5873C44.7601 43.4471 45.8778 42.9915 46.5891 42.4658C47.3004 41.94 47.0972 43.2018 46.4875 44.6388Z" fill="url(#paint0_linear_1455_29704)"/>
<defs>
<linearGradient id="paint0_linear_1455_29704" x1="13" y1="20" x2="55.1062" y2="74.0151" gradientUnits="userSpaceOnUse">
<stop stop-color="white"/>
<stop offset="1" stop-color="#6C7A88"/>
</linearGradient>
</defs>
</svg>
