<svg width="44" height="54" viewBox="0 0 44 54" fill="none" xmlns="http://www.w3.org/2000/svg">
<path d="M44 21.6C44 37.8 22 54 22 54C22 54 0 37.8 0 21.6C0 15.8713 2.31785 10.3773 6.44365 6.32649C10.5695 2.27571 16.1652 0 22 0C27.8348 0 33.4305 2.27571 37.5564 6.32649C41.6822 10.3773 44 15.8713 44 21.6Z" fill="#1A1E21"/>
<path fill-rule="evenodd" clip-rule="evenodd" d="M26.8955 24.7391L29.1369 30H32.9155H34L33.5802 29L27.3385 14.1325L26.8631 13L26.2171 14.0447L22.5877 19.9143L22 20.8648L21.4118 19.9146L17.7778 14.0442L17.1314 13L16.6564 14.1325L10.4195 29L9.99998 30H11.0844H14.8631L17.1045 24.7391L17.5666 23.6545L18.2418 24.621L21.39 29.127L22 30L22.6099 29.127L25.7581 24.621L26.4334 23.6545L26.8955 24.7391ZM22 28.254L25.6136 23.0818L26.6465 21.6035L27.3533 23.2626L29.7978 29H32.4956L26.6926 15.1772L22.8505 21.3907L22.0005 22.7655L21.1497 21.3912L17.3028 15.1767L11.5039 29H14.2022L16.6466 23.2626L17.3535 21.6035L18.3864 23.0818L22 28.254Z" fill="#E3EBF3"/>
</svg>
