<svg width="930" height="592" viewBox="0 0 930 592" fill="none" xmlns="http://www.w3.org/2000/svg">
<path d="M7.12695 403.442C29.0639 393.068 75.7503 365.979 62.2506 362.52C48.7509 359.062 33.0013 351.57 54.9383 344.077C76.3128 336.584 98.8123 310.071 83.0626 310.071C67.313 310.071 61.6882 303.731 86.4376 296.815C111.187 289.899 141.561 270.879 125.249 267.997C108.937 265.691 116.249 258.199 127.499 257.046C138.749 255.893 179.248 243.213 164.061 233.991C148.874 224.77 157.311 219.582 168.561 223.617C179.248 227.651 216.372 236.297 239.434 219.006C263.058 201.715 326.057 157.335 376.118 179.237C426.18 201.139 461.616 209.784 480.178 173.473C472.303 172.897 462.179 163.675 488.616 160.793C496.49 159.064 495.365 150.419 484.678 150.419C473.991 150.419 470.616 144.079 494.24 140.044C517.865 135.433 506.053 124.482 498.178 124.482C490.303 124.482 480.178 114.684 499.303 114.108C518.427 113.532 509.428 106.039 504.365 104.886C499.303 103.733 496.49 97.9697 515.052 95.6643C525.177 93.9352 531.365 92.2061 527.427 88.1715C523.49 84.137 531.927 83.5606 540.364 84.7134C539.802 79.5261 533.614 72.0334 554.426 73.7624C554.426 65.6934 548.802 54.7425 570.739 57.0479C570.176 51.8606 571.864 51.2843 585.363 51.8606C585.363 47.2497 586.488 44.3679 601.675 45.5207C601.113 40.3334 605.05 40.3334 608.988 39.757C606.175 32.8407 606.175 27.077 622.487 31.6879C621.362 22.4661 633.175 12.6679 678.736 21.3134C696.173 23.6188 697.861 23.6188 703.485 16.1261C708.548 8.05704 718.11 -9.81022 719.798 6.90431C721.485 13.8207 729.36 15.5498 737.797 20.737C746.234 25.9243 743.984 37.4516 756.922 28.8061C770.421 20.737 767.046 -8.6575 776.046 9.78613C785.046 28.2298 769.859 50.1316 766.484 53.5897C765.359 58.2006 764.796 61.0825 773.796 67.9988C782.796 74.9152 802.483 88.7479 797.421 116.413C805.295 127.941 831.732 159.641 841.295 173.473C850.857 187.306 852.544 198.833 845.232 207.479C844.67 221.311 841.295 233.415 817.108 236.297C810.92 239.755 800.233 236.873 783.921 220.159C767.609 203.444 749.047 188.459 729.922 186.73C710.798 185.001 710.235 174.626 707.423 172.897C704.61 171.168 697.861 168.862 691.111 185.001C684.361 201.139 673.674 219.006 666.361 227.075C659.049 234.568 666.924 261.081 677.611 280.677C688.298 300.273 688.861 330.244 686.611 344.653C691.673 352.146 759.734 417.851 792.921 443.788C826.107 470.3 882.356 514.68 902.606 529.666C923.418 544.651 944.792 563.095 916.105 575.775C902.606 580.386 881.231 584.42 877.856 560.213C877.856 560.213 873.356 540.04 860.982 534.853C848.607 530.242 836.795 522.749 817.67 500.271C798.546 477.217 715.86 420.157 654.549 396.526C629.237 386.728 619.112 391.339 608.425 396.526C597.738 401.713 611.8 411.511 621.925 418.428C621.925 418.428 655.674 444.364 665.236 454.739C674.799 465.113 666.924 487.591 657.362 498.542C647.799 509.493 632.612 530.242 628.112 537.735C623.612 545.228 600.55 541.769 592.113 542.922C583.113 544.075 561.739 546.38 554.426 542.346C547.114 538.888 543.739 528.513 552.739 519.291C561.739 510.069 579.176 491.049 597.175 510.646C603.363 516.986 607.3 516.986 616.3 507.188C625.3 497.389 635.987 487.015 628.675 474.335C621.362 461.655 594.363 450.704 572.426 440.329C550.489 429.955 527.99 413.24 517.865 401.713C502.115 401.713 463.304 401.713 463.304 401.713C463.304 401.713 459.366 402.866 463.304 409.782C467.241 417.275 487.491 472.606 539.802 527.937C560.051 550.415 563.989 550.991 573.551 556.755C583.676 562.518 592.676 580.962 567.364 591.337C553.864 595.371 539.802 580.386 539.802 563.095C540.364 555.602 517.302 541.769 508.865 531.395C511.115 539.464 513.927 555.026 507.178 556.178C499.865 557.331 467.804 552.72 467.804 537.159C467.804 521.597 467.803 516.986 461.616 512.375C455.429 507.764 400.868 474.335 360.931 457.044C334.494 443.788 351.369 431.684 335.619 406.9C319.87 382.117 316.495 370.013 268.683 334.855C242.246 313.53 240.559 295.086 228.747 282.406C216.935 269.15 204.56 268.573 197.81 287.017C191.06 305.46 155.061 387.88 93.1874 402.866C69.0005 409.782 49.3135 414.393 34.6888 414.969C19.5017 414.969 -14.8101 414.393 7.12695 403.442ZM373.868 405.171C384.555 428.802 414.367 460.502 440.242 470.877C466.116 481.251 488.616 508.34 488.616 508.34C498.74 520.444 507.74 530.242 506.615 527.36C498.74 509.493 481.303 490.473 481.303 490.473C472.866 482.404 444.742 457.62 435.179 439.753C425.617 421.886 414.93 387.88 414.93 387.88C402.555 385.575 383.993 378.082 372.181 369.437C360.369 360.791 363.743 381.54 373.868 405.171Z" fill="black"/>
</svg>
