<svg width="262" height="72" viewBox="0 0 262 72" fill="none" xmlns="http://www.w3.org/2000/svg">
<path fill-rule="evenodd" clip-rule="evenodd" d="M101.262 38.7888C99.9254 38.7888 98.5884 38.7888 98.5884 38.7888V28.086C101.708 28.086 104.53 27.9353 104.53 31.8546C104.53 35.1709 104.679 38.7888 101.262 38.7888ZM87.4473 68.1837H104.382C116.563 68.1837 116.563 56.4257 116.563 52.6571C116.563 52.0542 116.563 44.517 110.324 42.5574C115.82 39.3918 115.374 32.7591 115.374 29.7442C115.374 29.4427 115.374 19.6444 104.53 19.6444H87.4473V68.1837ZM98.5884 59.5913V47.2304C103.045 47.3811 104.976 47.2304 104.976 53.1094C104.976 59.7421 103.491 59.5913 98.5884 59.5913Z" fill="black"/>
<path fill-rule="evenodd" clip-rule="evenodd" d="M131.566 36.2261C133.646 36.2261 133.646 38.9395 133.646 39.844V57.7824C133.646 58.8376 133.646 61.4002 131.566 61.4002C129.338 61.4002 129.338 58.8376 129.338 57.9331V39.5425C129.338 38.7888 129.338 36.2261 131.566 36.2261ZM131.715 69.0881C144.193 69.0881 144.193 58.8376 144.193 57.7824V41.8036C144.193 37.8843 144.193 28.8397 131.715 28.8397C118.939 28.8397 118.939 38.0351 118.939 40.2962V57.9331C118.791 59.7421 118.791 69.0881 131.715 69.0881Z" fill="black"/>
<path fill-rule="evenodd" clip-rule="evenodd" d="M233.768 29.8949H235.847V21.7548H246.394V29.8949H249.217V37.7335H246.394V57.0286C246.394 60.948 246.988 60.6465 249.365 60.948V68.4851C248.177 69.0881 245.354 69.0881 243.869 69.0881C241.046 69.0881 235.847 68.3344 235.847 61.0987V37.7335H233.768V29.8949Z" fill="black"/>
<path fill-rule="evenodd" clip-rule="evenodd" d="M160.979 37.2814C162.613 37.2814 162.613 39.3918 162.613 40.447V57.7824C162.613 60.1943 162.018 61.0988 160.979 61.0988C159.642 61.0988 158.453 59.5913 158.453 55.9735V41.9544C158.453 40.1455 159.048 37.2814 160.979 37.2814ZM147.758 68.1837H158.156V64.5658C158.899 66.0733 161.276 69.0881 165.584 69.0881C173.308 69.0881 173.457 61.2495 173.457 56.7272V38.7888C173.457 36.6784 173.457 28.689 165.732 28.689C162.018 28.689 159.493 31.8546 158.305 33.8143V19.6444H147.758V68.1837Z" fill="black"/>
<path fill-rule="evenodd" clip-rule="evenodd" d="M202.126 44.2155H191.728V39.241C191.728 39.241 191.728 36.2261 189.5 36.2261C187.42 36.2261 187.42 39.0903 187.42 41.3514V56.5765C187.42 59.1391 187.42 61.7017 189.5 61.7017C191.728 61.7017 191.728 59.4406 191.728 56.5765V51.4512H202.126C201.978 59.7421 203.166 68.9374 189.648 68.9374C177.022 68.9374 176.873 58.9883 176.873 55.069V42.1051C176.873 38.3365 176.873 28.8397 189.648 28.8397C201.235 28.8397 202.126 35.3217 202.126 44.2155Z" fill="black"/>
<path fill-rule="evenodd" clip-rule="evenodd" d="M215.793 54.1646C215.793 51.1497 218.17 50.2453 220.249 48.7378V55.5213C220.249 58.9884 219.952 60.3451 217.724 60.3451C216.684 60.3451 215.793 59.7421 215.793 58.3854V54.1646ZM220.249 68.1837H230.648V39.6933C230.648 32.0054 224.26 29.1412 218.17 29.1412C211.782 29.1412 205.543 32.0054 205.543 39.6933V42.4066H216.09V39.0903C216.09 37.5828 216.536 36.2262 218.318 36.2262C220.101 36.2262 220.546 37.5828 220.546 39.0903C220.546 46.1752 205.692 44.9693 205.692 54.9183V60.7973C205.692 65.7718 208.514 68.6359 213.119 68.6359C217.278 68.6359 219.209 66.3748 220.546 63.6614H220.695V68.1837H220.249Z" fill="black"/>
<path fill-rule="evenodd" clip-rule="evenodd" d="M3.36873 0.500075C5.89406 5.4746 7.231 8.6402 12.7273 11.9566C18.3722 15.2729 19.1149 14.8207 19.7091 14.9714C20.3033 15.2729 20.6004 16.0266 20.6004 16.4788C21.9373 16.4788 26.5423 15.7251 28.7706 15.8759C30.9988 16.0266 36.0494 16.7803 39.6146 17.9863C42.1399 18.74 45.2595 19.9459 45.7051 20.0967C46.2993 20.2474 47.1906 20.5489 47.7848 19.9459C48.379 19.1922 47.6362 18.8907 50.9043 17.534C54.1724 16.1774 57.4405 14.5192 58.4803 14.067C59.6687 13.464 63.5309 11.3536 67.5418 7.43426C67.9874 6.98203 68.136 6.83129 68.2845 6.98203C68.5816 7.28351 68.4331 7.585 68.2845 7.73574C67.2447 10.5999 64.7193 15.7251 63.9766 16.9311C63.2339 18.137 59.0745 22.8101 58.4803 23.2623C57.8861 23.8653 55.6579 25.8249 55.6579 25.8249C55.6579 25.8249 53.7267 27.4831 55.5093 28.689C57.2919 30.0457 56.5492 31.4024 55.2122 32.4576C53.8753 33.3621 50.4587 35.6232 47.4877 35.3217C44.5167 35.0202 45.408 35.3217 43.6254 34.4173C43.0312 34.1158 42.1399 34.1158 42.5856 34.7188C42.8827 35.171 42.7341 35.4725 42.7341 35.4725C42.1399 37.5829 42.1399 40.7485 42.437 41.8037C42.7341 43.0096 43.1798 43.9141 43.774 44.6678C43.9225 44.9693 44.3682 45.12 43.4769 45.12C42.7341 45.12 42.5856 44.9693 41.9914 44.5171C41.2486 44.3663 39.0204 44.0648 38.1291 44.8185C37.2378 45.5723 37.832 45.2708 35.9009 45.723C35.3067 46.0245 35.0096 46.4767 35.9009 47.5319C36.7922 48.5871 37.5349 49.1901 37.832 49.4916C38.1291 49.6423 39.4661 49.9438 37.6835 50.999C36.0494 52.0542 34.1183 53.4109 29.9589 53.1094C25.7996 52.8079 24.017 50.5468 23.1257 48.8886C22.383 47.3812 22.6801 46.6275 19.7091 46.6275C16.7381 46.6275 11.6875 47.6827 10.0534 47.8334C7.231 48.2856 7.82519 48.7379 5.74551 47.0797C2.92309 44.6678 1.28905 43.0096 0.991956 42.7081C0.694859 42.4067 -0.196433 42.1052 0.54631 40.447C1.1405 38.9396 2.32889 36.0754 5.15132 32.4576C8.12229 28.8398 8.71649 28.0861 9.75633 27.3323C11.9846 25.5234 10.9447 25.3727 13.3215 27.3323C15.2526 28.8398 17.1838 30.3472 18.5207 31.1009C19.8576 31.7039 20.1547 31.8546 21.046 33.965C21.9373 36.2262 22.8286 37.8844 23.1257 38.4873C23.4228 39.0903 25.5025 40.8992 27.2851 41.05C30.1075 41.05 32.4843 41.2007 34.2669 39.0903C35.0096 37.1306 35.4552 35.6232 36.4951 34.568C36.9407 34.1158 37.0893 33.6636 36.4951 33.6636C35.9009 33.6636 32.1872 33.5128 30.9988 33.2113C29.8104 32.9098 20.4518 29.895 19.1149 29.292C17.778 28.5383 12.1331 26.4279 9.16213 22.5086C6.19116 18.4385 5.89406 17.2326 4.40858 11.8058C3.36873 7.73574 3.36873 0.349332 3.36873 0.500075Z" fill="black"/>
<path fill-rule="evenodd" clip-rule="evenodd" d="M56.6988 33.5128C56.5503 34.568 56.6988 42.8588 58.4814 45.12C59.0756 45.5722 59.3727 46.1752 58.7785 46.1752C58.3328 46.3259 54.9162 46.1752 54.4706 46.1752C54.1735 46.1752 53.5793 46.0244 53.5793 47.0796C53.7278 48.4363 53.4307 50.999 51.2025 51.9034C49.2714 52.6571 47.1917 53.5616 43.3294 51.4512C42.141 50.396 41.8439 50.0945 41.6954 49.9438C41.5468 49.793 41.5468 49.6423 41.6954 49.3408C41.9925 49.0393 44.2207 46.6274 44.6664 45.723C45.112 44.6678 44.9635 44.6678 44.6664 44.0648C44.8149 44.3663 43.0323 41.8036 44.6664 41.9544C45.8548 42.1051 48.3801 42.8588 50.3112 41.9544C52.2424 41.2007 54.1735 40.2962 54.9162 35.9247C55.0648 34.2665 55.0648 33.8143 55.8075 33.2113C56.2532 32.6083 56.6988 31.7038 56.6988 33.5128Z" fill="black"/>
<path fill-rule="evenodd" clip-rule="evenodd" d="M60.2627 48.2856C62.3424 49.3408 65.6105 51.3005 66.3532 53.1094C66.6503 53.5616 66.7989 54.6168 65.9076 53.4109C64.8677 52.3557 62.9366 49.9438 57.8859 49.0393C56.549 48.8886 54.7664 49.0393 54.915 47.8334C55.0635 47.2304 54.915 46.6274 56.9946 47.0796C58.7772 47.6826 60.2627 48.2856 60.2627 48.2856Z" fill="black"/>
<path fill-rule="evenodd" clip-rule="evenodd" d="M58.629 50.8482C61.0057 52.0541 62.6398 53.8631 62.9369 54.3153C63.234 54.7675 63.5311 55.069 63.234 55.2197C62.7883 55.5212 62.6398 55.3705 62.1941 54.9183C61.7485 54.466 59.2232 52.3556 54.9152 51.3004C54.1725 50.9989 53.7269 50.6974 54.4696 50.0945C55.2123 49.4915 55.2123 49.6422 55.9551 49.9437C56.6978 50.0945 58.4804 50.8482 58.629 50.8482Z" fill="black"/>
<path fill-rule="evenodd" clip-rule="evenodd" d="M56.698 54.1646C58.1835 55.3705 59.8175 57.1794 60.2632 57.6317C60.5603 58.0839 60.5603 58.0839 59.9661 57.9331C59.3719 57.9331 58.4806 56.7272 57.7378 56.275C56.8466 55.8227 53.8756 53.8631 53.1328 53.7123C52.3901 53.4109 52.093 53.2601 52.6872 52.6571C53.1328 52.0542 53.1328 52.2049 53.5785 52.3557C54.1727 52.6571 56.698 54.1646 56.698 54.1646Z" fill="black"/>
<path fill-rule="evenodd" clip-rule="evenodd" d="M44.5162 53.2601C44.9618 53.5615 45.7046 53.7123 45.1104 55.069C44.6647 56.4257 44.2191 57.3301 42.7336 58.5361C42.1394 58.8376 40.3568 60.0435 41.9908 57.9331C42.585 56.4257 43.0307 55.6719 43.0307 53.7123C43.0307 52.9586 42.8821 52.6571 43.922 52.8078C44.2191 52.9586 44.5162 53.2601 44.5162 53.2601Z" fill="black"/>
<path fill-rule="evenodd" clip-rule="evenodd" d="M31.8913 61.2495C32.6341 62.9077 33.8225 64.4151 35.4565 64.4151C37.6847 64.4151 39.3188 63.2092 40.0615 62.154C40.0615 63.3599 39.7644 63.9629 39.4673 64.4151C39.3188 64.8674 38.8731 65.4703 39.3188 66.3748C39.913 67.2793 39.6159 68.4852 39.3188 69.0882C39.1702 69.8419 38.576 71.6508 35.7536 71.6508C32.9312 71.6508 29.2175 71.6508 27.732 71.0478C26.6921 70.5956 26.2465 70.8971 26.395 68.6359C26.395 66.6763 26.6921 65.4703 26.8407 64.5659C26.9892 63.8122 27.2863 63.5107 28.4747 63.5107C29.6631 63.5107 29.5146 63.5107 29.9602 63.5107C30.4059 63.3599 30.5544 63.2092 30.5544 62.6062C30.5544 62.0033 30.703 60.948 31 60.1943C31.4457 59.5914 31.5942 59.7421 31.5942 60.1943C31.7428 60.4958 31.8913 61.2495 31.8913 61.2495Z" fill="black"/>
<path fill-rule="evenodd" clip-rule="evenodd" d="M35.7537 53.7123C35.4566 55.069 34.7138 57.7824 33.674 59.1391C33.3769 57.6316 32.9313 55.8227 32.9313 55.2197C32.9313 54.6168 32.3371 54.3153 34.5653 53.4108C36.3479 52.6571 35.7537 53.7123 35.7537 53.7123Z" fill="black"/>
<path fill-rule="evenodd" clip-rule="evenodd" d="M12.7287 60.345C13.7685 58.8376 19.7104 54.0138 20.4532 53.7123C20.4532 53.7123 21.3445 53.1093 22.2358 52.8078C24.0184 52.3556 24.0184 53.4108 23.4242 54.1645C21.3445 54.9182 18.225 57.0286 15.9967 58.6868C14.3627 59.8928 11.8374 62.4554 11.0946 63.5106C10.649 63.6613 9.90624 63.5106 10.5004 62.7569C11.3917 61.7017 12.7287 60.4957 12.7287 60.345Z" fill="black"/>
<path fill-rule="evenodd" clip-rule="evenodd" d="M6.34082 57.3301C11.0944 53.26 14.8081 52.0541 18.3733 50.9989C20.1558 50.5467 21.7899 50.2452 22.2355 51.1496C22.3841 51.7526 22.2355 52.0541 21.6413 52.2048C19.116 52.2048 14.8081 53.26 10.5002 55.8227C8.7176 56.8779 6.63792 58.5361 5.89518 59.2898C5.44953 59.742 4.11259 59.2898 5.15243 58.5361C6.19228 57.6316 6.34082 57.3301 6.34082 57.3301Z" fill="black"/>
<path fill-rule="evenodd" clip-rule="evenodd" d="M5.3005 51.7527C9.31131 49.6423 12.2823 48.8886 15.1047 48.2856C15.1047 48.2856 18.967 47.5319 20.7496 47.9841C22.0865 49.793 21.1952 49.6423 20.1554 49.6423C16.5902 49.6423 12.8765 50.396 9.60841 51.4512C6.19179 52.5064 2.32952 54.6168 0.992585 55.2198C0.546939 55.3705 0.101293 55.3705 0.249841 54.7675C0.39839 54.3153 1.28968 53.8631 1.58678 53.7123C1.88388 53.5616 5.3005 51.7527 5.3005 51.7527Z" fill="black"/>
<path fill-rule="evenodd" clip-rule="evenodd" d="M257.091 67.7314C255.012 67.7314 253.378 66.0732 253.378 63.9628C253.378 61.7017 255.012 60.0435 257.091 60.0435C259.171 60.0435 260.805 61.7017 260.805 63.9628C260.805 66.0732 259.171 67.7314 257.091 67.7314ZM257.091 68.3344C259.468 68.3344 261.399 66.3747 261.399 63.9628C261.399 61.4002 259.468 59.4406 257.091 59.4406C254.714 59.4406 252.635 61.4002 252.635 63.9628C252.635 66.3747 254.714 68.3344 257.091 68.3344ZM257.834 64.1136C258.725 64.1136 259.319 63.6614 259.319 62.7569C259.319 62.0032 258.874 61.4002 257.537 61.4002H255.457V66.3747H256.051V64.1136H257.091L258.577 66.3747H259.319L257.834 64.1136ZM256.051 63.6614V61.8524H257.388C258.131 61.8524 258.725 62.0032 258.725 62.7569C258.725 63.8121 257.685 63.6614 256.943 63.6614H256.051Z" fill="black"/>
</svg>
