<svg width="219" height="59" viewBox="0 0 219 59" fill="none" xmlns="http://www.w3.org/2000/svg">
<path d="M121.134 49.1549H130.625L128.558 57.4427C125.552 58.0836 122.129 58.5018 119.117 58.5018C112.485 58.5018 110.109 55.0144 111.308 50.1641C112.508 45.3117 116.612 41.8264 123.458 41.8264C129.117 41.8264 131.669 43.4244 130.829 47.1365H123.99C124.09 46.6288 123.938 46.3021 123.685 46.1066C123.429 45.9068 123.02 45.8215 122.561 45.8215C121.464 45.8215 120.623 46.3021 120.11 46.941C119.601 47.5735 119.117 49.1299 118.784 50.47C118.402 52.0118 118.3 53.0606 118.506 53.5662C118.763 54.2216 119.424 54.513 120.367 54.513C121.053 54.513 121.723 54.4214 122.382 54.1779L122.845 52.2678H120.34L121.134 49.1549Z" fill="#A7A5A6"/>
<path d="M140.808 48.8476C142.209 48.8476 143.357 48.4314 143.638 47.2454C143.92 46.0822 143.052 45.8388 141.619 45.8388H140.96L140.195 48.8476H140.808ZM134.684 42.2452H145.576C149.528 42.2452 151.601 43.2773 150.882 46.2612C150.427 48.0798 149.201 49.4593 146.293 50.0295V50.0732C148.026 50.2084 148.846 50.8888 148.892 52.0936C148.969 53.4545 148.36 55.6934 148.617 58.0842H141.469C141.317 56.9003 141.596 54.9006 141.678 53.5439C141.721 52.7512 141.34 52.4453 140.167 52.4453H139.327L137.919 58.0842H130.777L134.684 42.2452Z" fill="#A7A5A6"/>
<path d="M159.891 54.3773C161.009 54.3773 161.983 53.8259 162.901 50.1637C163.768 46.5889 163.155 45.9522 161.983 45.9522C160.809 45.9522 159.841 46.5889 158.973 50.1637C158.049 53.8259 158.769 54.3773 159.891 54.3773ZM163.003 41.8281C169.358 41.8281 171.677 45.226 170.453 50.1637C169.227 55.1015 165.222 58.5015 158.871 58.5015C152.516 58.5015 150.196 55.1015 151.416 50.1637C152.647 45.226 156.652 41.8281 163.003 41.8281Z" fill="#A7A5A6"/>
<path d="M189.107 52.7755C188.162 56.5917 184.514 58.5018 178.947 58.5018C173.389 58.5018 170.659 56.5917 171.601 52.7755L174.204 42.2446H181.502L178.979 52.5112C178.67 53.7639 179.231 54.2424 179.996 54.2424C180.764 54.2424 181.58 53.7639 181.884 52.5112L184.41 42.2446H191.712L189.107 52.7755Z" fill="#A7A5A6"/>
<path d="M200.153 49.1549C202.045 49.1549 202.888 48.5661 203.167 47.4424C203.445 46.3271 202.963 45.8402 201.376 45.8402H200.612L199.799 49.1549H200.153ZM194.184 42.2446H204.901C209.341 42.2446 210.897 44.4523 210.159 47.4424C209.364 50.6052 206.463 52.7505 201.305 52.7505H198.906L197.575 58.0836H190.277L194.184 42.2446Z" fill="#A7A5A6"/>
<path d="M0.25 37.4663H10.32L14.502 12.2575L14.3309 37.4663H25.2561L33.4531 12.682L29.2712 37.4663H39.3412L45.5693 0.507278H29.1836L22.5196 21.9644L22.8638 0.594673H6.5636L0.25 37.4663Z" fill="#ED1C24"/>
<path d="M63.2435 22.3938H58.4588L63.2435 9.35971V22.3938ZM75.6183 37.467L72.4584 0.508026H57.1823L41.4766 37.5565H52.9128L55.1341 31.6783H63.3249V37.467H75.6183Z" fill="#ED1C24"/>
<path d="M77.6113 37.5562H87.2558L91.0686 15.4914L93.4547 37.4667H107.54L113.772 0.592957H104.213L100.371 22.3081L98.0663 0.507645H83.9791L77.6113 37.5562Z" fill="#ED1C24"/>
<path d="M111.555 37.4663H123.423L129.88 0.50312H117.764L111.555 37.4663Z" fill="#ED1C24"/>
<path d="M172.328 14.3877C171.561 18.9842 170.455 25.8841 170.455 25.8841C170.455 25.8841 169.781 29.486 166.818 27.8609C166.818 27.8609 165.885 27.6299 166.267 24.8625L167.892 13.9633C167.892 13.9633 168.44 9.52077 170.941 10.0431C170.941 10.0431 173.039 10.1575 172.328 14.3877ZM180.959 2.30666C178.043 0.282051 174.516 0.506779 169.51 0.506779H132.463L130.74 10.4759H137.246L132.807 37.4949H144.585L149.109 10.6444H156.877L154.399 25.1184C154.399 25.1184 151.166 38.0588 166.183 38.0588C181.209 38.0588 182.058 26.6519 182.058 26.6519L184.532 11.5745C184.532 11.5745 185.687 5.60472 180.959 2.30666Z" fill="#ED1C24"/>
<path d="M190.253 0.589043H201.946L197.851 25.0321C197.851 25.0321 197.255 27.5832 199.13 28.1803C201.007 28.7775 201.896 27.1628 202.371 24.6909C202.732 22.8181 206.557 0.589043 206.557 0.589043H218.25L213.728 26.8216C213.728 26.8216 212.195 38.1432 198.02 38.0579C184.965 37.9892 185.735 29.9761 185.904 26.7384L190.253 0.589043Z" fill="#ED1C24"/>
</svg>
