<svg width="162" height="64" viewBox="0 0 162 64" fill="none" xmlns="http://www.w3.org/2000/svg">
<path d="M161.009 0.5H0.488281V63.5H161.009V0.5Z" fill="#FCAF26"/>
<path d="M151.69 52.5048C151.69 53.9318 150.805 55.1249 149.756 55.1249H11.3949C10.3231 55.1249 9.46094 53.9552 9.46094 52.5048V12.1034C9.46094 10.6764 10.3231 9.48328 11.3949 9.48328H149.756C150.828 9.48328 151.69 10.653 151.69 12.1034V52.5048Z" fill="#2B2523"/>
<path d="M45.3223 47.3582C42.9922 49.721 39.5436 50.259 34.4873 50.259H27.2873C17.198 50.259 13.9824 47.7325 13.9824 39.0533V34.3043H23.6523C23.6523 34.7488 23.6057 35.1933 23.6057 35.591C23.6057 39.9423 24.631 41.3225 28.6853 41.3225H33.3455C37.0737 41.3225 37.7261 39.8487 37.7261 36.2461V13.975H48.0485V39.7318C48.0019 42.8665 46.93 45.6738 45.3223 47.3582Z" fill="white"/>
<path d="M87.0084 26.561C87.0084 23.7069 85.2841 22.5138 81.5559 22.5138H73.2841C66.5967 22.5138 64.9656 23.4496 64.9656 29.5788V34.5617C64.9656 40.1997 67.2491 41.3226 73.2841 41.3226H79.2958C85.0278 41.3226 87.288 40.6909 87.288 36.3864V35.9887H97.7501C97.7967 36.9245 97.8433 37.7667 97.8433 38.6089C97.8433 43.0537 96.8647 46.0248 94.4414 47.8963C91.8783 49.9082 87.8472 50.3059 81.9288 50.3059H70.3948C65.0355 50.3059 61.2841 50.0485 58.3482 47.639C55.5054 45.2762 54.4336 42.001 54.4336 37.1351V27.3564C54.4336 16.5951 58.8608 13.5305 70.3948 13.5305H81.9288C87.8472 13.5305 91.8317 13.8346 94.3016 15.8465C96.4919 17.6245 97.4239 20.5955 97.4239 24.8766C97.4239 25.5082 97.4239 26.2101 97.3773 26.9119H87.0084V26.561Z" fill="white"/>
<path d="M104.506 49.8613V13.975H134.984C142.556 13.975 146.238 17.2267 146.238 23.9876C146.238 27.8476 144.653 30.2104 141.252 31.5906C145.539 32.3393 147.38 35.0062 147.38 40.1294C147.38 47.0307 144.024 49.8613 136.545 49.8613H104.506ZM135.613 24.9935C135.613 23.2156 134.541 22.0225 132.956 22.0225H114.805V27.9412H132.956C134.681 27.9412 135.613 26.9118 135.613 24.9935ZM136.731 38.4217C136.731 36.5034 135.613 35.2635 133.888 35.2635H114.828V41.7202H133.888C135.706 41.7202 136.731 40.5272 136.731 38.4217Z" fill="white"/>
<path d="M28.0095 13.7411H13.959V28.0582H28.0095V13.7411Z" fill="#FCAF26"/>
<path fill-rule="evenodd" clip-rule="evenodd" d="M24.2349 20.9932C24.2349 20.9932 24.4679 20.9932 24.5378 20.9698C24.6077 20.9698 24.7242 20.9698 24.7941 21.1102C24.8174 21.157 24.9339 21.5313 24.9339 21.578C24.9572 21.6248 24.9805 21.8354 24.8407 21.8588C24.8174 21.8588 24.5378 21.929 24.5378 21.929L24.2349 20.9932ZM23.7222 19.2387C23.7222 19.2387 24.0252 19.262 24.0951 19.262C24.165 19.262 24.2116 19.3088 24.2582 19.379C24.2815 19.4258 24.398 19.7767 24.398 19.8001C24.4213 19.8469 24.4679 20.0574 24.3048 20.0574C24.2815 20.0574 23.9785 20.0574 23.9785 20.0574L23.7222 19.2387ZM22.6504 18.2561C22.6504 18.2561 23.9086 18.4433 24.0251 18.4666C24.5378 18.5602 24.7708 19.0047 24.8407 19.2153C24.864 19.2854 25.0038 19.7767 25.0271 19.8235C25.1669 20.2446 24.8174 20.4551 24.8174 20.4551C24.8174 20.4551 25.2368 20.5253 25.3766 20.8996C25.3766 20.8996 25.6329 21.7184 25.6562 21.7886C25.6795 21.8822 25.8659 22.5138 25.2368 22.7711C25.1436 22.7945 24.1184 23.0987 24.1184 23.0987L22.6504 18.2561Z" fill="#2B2523"/>
<path d="M17.5703 17.4374L19.6208 17.7649L19.947 18.958L19.4577 18.9112C19.4577 18.9112 20.646 22.935 20.6926 23.0753C20.8324 23.5198 20.9257 24.0111 20.2732 24.2216C20.18 24.245 19.5742 24.4322 19.5043 24.4556C19.1315 24.5491 18.6422 24.5491 18.479 23.9409L17.7334 21.4377L18.6655 21.3676C18.6655 21.3676 19.0383 22.6542 19.0849 22.7478C19.1781 23.0051 19.2247 23.1221 19.481 23.0519C19.6674 23.0051 19.6674 22.9116 19.6208 22.7478C19.5975 22.6776 18.479 18.841 18.479 18.841L17.9664 18.7942L17.5703 17.4374Z" fill="#2B2523"/>
<path d="M17.5703 17.4374L19.6208 17.7649L19.947 18.958L19.4577 18.9112C19.4577 18.9112 20.646 22.935 20.6926 23.0753C20.8324 23.5198 20.9257 24.0111 20.2732 24.2216C20.18 24.245 19.5742 24.4322 19.5043 24.4556C19.1315 24.5491 18.6422 24.5491 18.479 23.9409L17.7334 21.4377L18.6655 21.3676C18.6655 21.3676 19.0383 22.6542 19.0849 22.7478C19.1781 23.0051 19.2247 23.1221 19.481 23.0519C19.6674 23.0051 19.6674 22.9116 19.6208 22.7478C19.5975 22.6776 18.479 18.841 18.479 18.841L17.9664 18.7942L17.5703 17.4374Z" stroke="#2B2523" stroke-width="0.090133" stroke-miterlimit="3.864"/>
<path d="M20.6476 17.9053C20.7408 17.9286 21.3932 18.0222 21.5097 18.0456C21.6262 18.069 22.232 18.1626 22.3951 18.7708C22.4417 18.9112 22.768 19.9873 22.768 19.9873H21.9757C21.9757 19.9873 21.8359 19.4727 21.7893 19.3791C21.7194 19.1685 21.7194 19.0983 21.4631 19.075C21.2301 19.0516 21.2301 19.1451 21.3 19.3323C21.3233 19.4259 22.0456 21.929 22.0689 22.046C22.1621 22.3267 22.1621 22.4437 22.4184 22.3969C22.6282 22.3501 22.6048 22.2097 22.5349 21.9992C22.5116 21.929 22.3019 21.1804 22.3019 21.1804L23.0709 21.1102C23.0709 21.1102 23.467 22.4437 23.4903 22.5139C23.5136 22.5841 23.6767 23.1221 23.2107 23.3561C23.1408 23.3794 23.1408 23.3794 23.0942 23.4028C23.0243 23.4262 22.3951 23.6134 22.3485 23.6368C22.2786 23.6602 21.6961 23.8473 21.4864 23.2157C21.4631 23.1455 20.2048 18.7474 20.1349 18.5369C20.0417 18.1392 20.1582 17.8351 20.6476 17.9053Z" fill="#2B2523"/>
<path d="M20.6476 17.9053C20.7408 17.9286 21.3932 18.0222 21.5097 18.0456C21.6262 18.069 22.232 18.1626 22.3951 18.7708C22.4417 18.9112 22.768 19.9873 22.768 19.9873H21.9757C21.9757 19.9873 21.8359 19.4727 21.7893 19.3791C21.7194 19.1685 21.7194 19.0983 21.4631 19.075C21.2301 19.0516 21.2301 19.1451 21.3 19.3323C21.3233 19.4259 22.0456 21.929 22.0689 22.046C22.1621 22.3267 22.1621 22.4437 22.4184 22.3969C22.6282 22.3501 22.6048 22.2097 22.5349 21.9992C22.5116 21.929 22.3019 21.1804 22.3019 21.1804L23.0709 21.1102C23.0709 21.1102 23.467 22.4437 23.4903 22.5139C23.5136 22.5841 23.6767 23.1221 23.2107 23.3561C23.1408 23.3794 23.1408 23.3794 23.0942 23.4028C23.0243 23.4262 22.3951 23.6134 22.3485 23.6368C22.2786 23.6602 21.6961 23.8473 21.4864 23.2157C21.4631 23.1455 20.2048 18.7474 20.1349 18.5369C20.0417 18.1392 20.1582 17.8351 20.6476 17.9053Z" stroke="#2B2523" stroke-width="0.090133" stroke-miterlimit="3.864"/>
<path fill-rule="evenodd" clip-rule="evenodd" d="M16.7316 16.7355C17.1277 16.8057 23.8384 17.9754 24.1413 18.0222C24.4442 18.069 24.9335 18.1392 25.1433 18.8176C25.1899 18.958 26.0986 21.8354 26.1219 21.9758C26.1685 22.0928 26.4248 22.7712 25.6792 23.0051C25.5627 23.0519 19.2481 25.134 19.085 25.1808C18.9219 25.2276 18.3394 25.4849 18.083 24.5725C18.083 24.5725 16.1491 18.069 16.0559 17.7883C15.986 17.5543 15.9394 17.3672 15.9161 17.2034C15.8695 16.6654 16.1957 16.6654 16.452 16.6888C16.5918 16.7121 16.6617 16.7355 16.7316 16.7355ZM16.5685 16.3846C16.7316 16.408 24.0714 17.6947 24.2578 17.7181C24.4442 17.7415 25.1665 17.8351 25.4695 18.7006C25.5161 18.8644 26.4481 21.7886 26.4714 21.929C26.6345 22.4671 26.5646 23.0285 25.8889 23.2625C25.6792 23.3326 19.3646 25.4615 19.2947 25.4849C19.1316 25.5317 18.1996 25.9762 17.85 24.8533C17.85 24.8533 15.7996 18.0456 15.7529 17.8351C15.6597 17.5075 15.5898 17.2502 15.5898 17.0397C15.6131 16.1741 16.4054 16.3612 16.5685 16.3846Z" fill="#2B2523"/>
</svg>
