<svg width="147" height="101" viewBox="0 0 147 101" fill="none" xmlns="http://www.w3.org/2000/svg">
<path fill-rule="evenodd" clip-rule="evenodd" d="M123.061 28.5177H140.25L138.531 37.6682H131.584L129.937 46.3183H136.168L134.592 54.9685H128.361L121.701 92.5H111.459L123.061 28.5177ZM119.337 28.5177H108.881L102.578 62.1888C102.148 64.4765 101.79 65.9062 101.504 66.6211C101.146 67.193 100.716 67.479 99.9999 67.479C99.4269 67.479 99.0688 67.193 98.9972 66.6926C98.9256 66.1207 99.0688 64.8339 99.4269 62.8322L105.873 28.5177H95.3446L90.2596 55.6119C89.3286 60.759 88.684 64.119 88.5408 65.7632C88.4691 67.4075 88.684 68.9087 89.3286 70.41C89.9015 71.9113 91.1191 73.0551 92.7663 73.913C94.4852 74.8423 96.4189 75.3427 98.854 75.3427C101.074 75.3427 103.008 74.9853 104.727 74.1989C106.517 73.484 107.95 72.2687 109.239 70.8389C110.456 69.3377 111.387 67.9079 111.817 66.4781C112.318 65.0484 112.82 62.6892 113.536 59.1148L119.337 28.5177ZM76.6519 57.8995C77.0816 52.6808 77.7262 46.3898 78.7289 38.7405C76.0074 47.4622 74.1452 53.7532 73.2142 57.8995H76.6519ZM87.3232 28.5177L84.1003 74.3419H74.4317L75.4344 66.0492H71.7818L69.5616 74.3419H59.1052L73.7871 28.5177H87.3232ZM65.5509 28.5177H56.6701L52.8743 49.1779L50.7973 28.5177H42.0597L33.4654 74.2704H42.2746L46.142 53.3957L47.7177 74.2704H56.885L65.5509 28.5177ZM37.3328 28.8751L28.6669 49.6068L30.8155 74.3419H21.1468L19.3564 57.971L16.2767 74.3419H6.25L16.7781 7.5H26.8764L21.7198 44.0307L28.0939 28.8036H37.3328V28.8751Z" fill="#009FE3"/>
</svg>
