<svg width="291" height="56" viewBox="0 0 291 56" fill="none" xmlns="http://www.w3.org/2000/svg">
<path d="M259.738 15.4077L263.562 55.5485L290.75 15.4077H259.738Z" fill="#010101"/>
<path d="M273.012 29.7844C274.145 29.7996 275.257 29.4873 276.207 28.887C277.157 28.2867 277.901 27.4257 278.346 26.4133C278.791 25.401 278.915 24.2831 278.704 23.2018C278.493 22.1205 277.955 21.1246 277.16 20.3408C276.364 19.557 275.346 19.0207 274.236 18.8C273.126 18.5794 271.973 18.6844 270.925 19.1017C269.876 19.5189 268.979 20.2297 268.347 21.1435C267.716 22.0573 267.378 23.1328 267.377 24.2334C267.367 24.9585 267.505 25.6783 267.784 26.351C268.063 27.0238 268.476 27.6362 269 28.1526C269.524 28.669 270.149 29.0791 270.837 29.3592C271.526 29.6394 272.265 29.7839 273.012 29.7844ZM273.012 19.5868C273.961 19.5746 274.892 19.8367 275.687 20.3398C276.482 20.8429 277.105 21.5643 277.477 22.4122C277.849 23.2602 277.953 24.1963 277.775 25.1017C277.598 26.0071 277.147 26.8408 276.481 27.4968C275.814 28.1528 274.962 28.6015 274.032 28.7858C273.102 28.9701 272.137 28.8818 271.259 28.5319C270.381 28.1821 269.63 27.5867 269.101 26.8212C268.573 26.0558 268.291 25.1551 268.291 24.2334C268.285 23.627 268.404 23.0256 268.638 22.4636C268.873 21.9016 269.22 21.3902 269.658 20.9585C270.097 20.5269 270.619 20.1835 271.194 19.9481C271.77 19.7127 272.387 19.5899 273.012 19.5868ZM273.981 24.5166C274.833 24.488 275.672 24.0381 275.672 22.8089C275.672 21.492 274.641 21.1583 273.5 21.1583H270.835V27.4007H271.755V24.5166H272.924L274.544 27.3985H275.586L273.981 24.5166ZM273.326 22.0605C274.085 22.0605 274.756 22.1197 274.756 22.9077C274.756 23.7549 273.579 23.6123 272.722 23.6123H271.751V22.0605H273.326Z" fill="white"/>
<path d="M263.501 0.403198H0.75V55.5968H263.501V0.403198Z" fill="#E30613"/>
<path d="M30.6536 18.5245V16.1935H16.7793V39.1502H19.4122V28.4587H30.1948V26.1321H19.4122V18.5245H30.6536Z" fill="white"/>
<path d="M30.6536 18.5245V16.1935H16.7793V39.1502H19.4122V28.4587H30.1948V26.1321H19.4122V18.5245H30.6536Z" stroke="white" stroke-width="0.7"/>
<path d="M55.9614 29.7735V16.2067H53.3307V29.8503C53.3307 34.7999 51.7103 37.1968 47.6219 37.1968C43.5335 37.1968 41.5786 34.734 41.5786 29.7845V16.2067H38.9434V29.8503C38.9434 36.2156 41.8475 39.5212 47.4863 39.5212C53.1251 39.5212 55.9614 36.1454 55.9614 29.7845" fill="white"/>
<path d="M55.9614 29.7735V16.2067H53.3307V29.8503C53.3307 34.7999 51.7103 37.1968 47.6219 37.1968C43.5335 37.1968 41.5786 34.734 41.5786 29.7845V16.2067H38.9434V29.8503C38.9434 36.2156 41.8475 39.5212 47.4863 39.5212C53.1251 39.5212 55.9614 36.1344 55.9614 29.7735Z" stroke="white" stroke-width="0.7"/>
<path d="M82.8624 39.1502V16.2067H80.3289V35.083C80.0261 34.4948 79.1492 32.9825 78.6429 32.1967L68.4095 16.2067H65.8398V39.1502H68.3733V20.5592C68.6784 21.1496 69.5531 22.6576 70.0616 23.4433L80.3922 39.1502H82.8624Z" fill="white"/>
<path d="M82.8624 39.1502V16.2067H80.3289V35.083C80.0261 34.4948 79.1492 32.9825 78.6429 32.1967L68.4095 16.2067H65.8398V39.1502H68.3733V20.5592C68.6784 21.1496 69.5531 22.6576 70.0616 23.4433L80.3922 39.1502H82.8624Z" stroke="white" stroke-width="0.7"/>
<path fill-rule="evenodd" clip-rule="evenodd" d="M109.932 27.5105C109.932 19.6395 105.374 16.1935 99.1588 16.1935H92.9121V39.1524H98.6865C105.001 39.1524 109.932 35.8381 109.932 27.5193M107.297 27.6181C107.297 34.2029 104.133 36.8368 99.0255 36.8368H95.5473V18.5245H98.9577C104.393 18.5245 107.297 21.7379 107.297 27.6203V27.6181Z" fill="white"/>
<path d="M109.932 27.5105C109.932 19.6395 105.374 16.1935 99.1588 16.1935H92.9121V39.1524H98.6865C105.001 39.1524 109.932 35.8381 109.932 27.5105ZM107.297 27.6093C107.297 34.1941 104.133 36.828 99.0255 36.828H95.5473V18.5245H98.9577C104.393 18.5245 107.297 21.7379 107.297 27.6203V27.6093Z" stroke="white" stroke-width="0.7"/>
<path d="M132.278 39.1502V36.8214H120.123V28.0658H131.403V25.7392H120.123V18.5245H132.278V16.1935H117.488V39.1502H132.278Z" fill="white"/>
<path d="M132.278 39.1502V36.8214H120.123V28.0658H131.403V25.7392H120.123V18.5245H132.278V16.1935H117.488V39.1502H132.278Z" stroke="white" stroke-width="0.7"/>
<path fill-rule="evenodd" clip-rule="evenodd" d="M158.246 22.6905C158.246 18.2633 155.039 16.2067 150.885 16.2067H141.533V39.1502H144.166V29.3762H149.771L154.836 39.148H157.878L152.68 29.1787C156.056 28.4917 158.251 26.2638 158.251 22.6883M155.618 22.7849C155.618 25.6712 153.963 27.0803 150.451 27.0803H144.166V18.5201H150.781C153.925 18.5245 155.613 19.9666 155.613 22.7914L155.618 22.7849Z" fill="white"/>
<path d="M158.246 22.6905C158.246 18.2633 155.039 16.2067 150.885 16.2067H141.533V39.1502H144.166V29.3762H149.771L154.836 39.148H157.878L152.68 29.1787C156.052 28.4983 158.246 26.266 158.246 22.6905ZM155.613 22.7871C155.613 25.6734 153.959 27.0825 150.447 27.0825H144.166V18.5223H150.781C153.925 18.5245 155.613 19.9666 155.613 22.7914V22.7871Z" stroke="white" stroke-width="0.7"/>
<path d="M191.167 39.8526V15.4691H184.853L181.779 21.9837C180.197 25.2936 179.051 27.9385 178.615 29.3323C178.215 27.9758 176.963 25.118 175.451 21.9837L172.371 15.4691H165.988V39.8526H172.513V34.0338C172.513 31.6326 172.477 29.4376 172.371 27.5566C173.125 29.3674 174.418 32.1901 175.277 33.9219L178.577 40.68L181.876 33.9219C182.737 32.1813 184.028 29.3586 184.78 27.5566C184.676 29.4376 184.638 31.6326 184.638 34.0338V39.8526H191.167Z" fill="white"/>
<path fill-rule="evenodd" clip-rule="evenodd" d="M222.132 39.8548L213.022 15.4691H205.991L196.881 39.8548H204.339L205.695 35.5681H213.225L214.581 39.8548H222.132ZM211.551 30.1971H207.388L207.856 28.597C208.76 25.4955 209.148 24.1369 209.471 22.4995C209.792 24.1369 210.188 25.4604 211.083 28.597L211.551 30.1971Z" fill="white"/>
<path d="M250.465 39.8526L242.25 27.3832L250.18 15.4691H242.286L240.889 17.8374C239.985 19.3739 239.022 21.0091 238.446 22.2975C237.911 21.0091 236.943 19.3717 236.044 17.8374L234.647 15.4691H226.576L234.5 27.5237L226.301 39.8526H234.193L235.874 37.0299C236.777 35.5793 237.592 34.0791 238.315 32.5369C238.928 33.8538 239.82 35.4978 240.718 37.0299L242.404 39.8526H250.465Z" fill="white"/>
</svg>
