<svg width="1000" height="636" viewBox="0 0 1000 636" fill="none" xmlns="http://www.w3.org/2000/svg">
<path d="M7.66345 433.428C31.2516 422.282 81.452 393.18 66.9362 389.465C52.4204 385.749 35.4854 377.7 59.0735 369.65C82.0568 361.6 106.25 333.117 89.3148 333.117C72.3796 333.117 66.3314 326.306 92.9437 318.876C119.556 311.445 152.216 291.012 134.677 287.916C117.137 285.439 124.999 277.389 137.096 276.151C149.192 274.912 192.74 261.29 176.409 251.383C160.079 241.476 169.152 235.903 181.248 240.237C192.74 244.572 232.658 253.86 257.456 235.283C282.859 216.707 350.599 169.029 404.428 192.559C458.258 216.088 496.362 225.376 516.321 186.367C507.853 185.747 496.966 175.84 525.393 172.744C533.861 170.887 532.651 161.599 521.159 161.599C509.668 161.599 506.039 154.787 531.441 150.453C556.844 145.499 544.143 133.734 535.675 133.734C527.208 133.734 516.321 123.208 536.885 122.589C557.449 121.97 547.772 113.92 542.328 112.682C536.885 111.443 533.861 105.251 553.82 102.774C564.707 100.917 571.36 99.0592 567.126 94.7248C562.892 90.3904 571.965 89.7712 581.037 91.0096C580.432 85.4368 573.779 77.3872 596.157 79.2448C596.157 70.576 590.109 58.8112 613.697 61.288C613.093 55.7152 614.907 55.096 629.423 55.7152C629.423 50.7616 630.632 47.6655 646.963 48.9039C646.358 43.3311 650.592 43.3311 654.825 42.7119C651.801 35.2815 651.801 29.0895 669.341 34.0431C668.132 24.1359 680.833 13.6095 729.824 22.8975C748.573 25.3743 750.388 25.3743 756.436 17.3247C761.879 8.65588 772.161 -10.5394 773.976 7.41747C775.79 14.8479 784.258 16.7055 793.33 22.2783C802.403 27.8511 799.983 40.2351 813.894 30.9471C828.41 22.2783 824.781 -9.30096 834.458 10.5135C844.135 30.3279 827.805 53.8576 824.176 57.5728C822.967 62.5264 822.362 65.6224 832.039 73.0528C841.716 80.4832 862.885 95.344 857.442 125.066C865.909 137.45 894.336 171.506 904.618 186.367C914.9 201.227 916.714 213.611 908.852 222.899C908.247 237.76 904.618 250.763 878.61 253.859C871.957 257.575 860.466 254.479 842.926 236.522C825.386 218.565 805.427 202.466 784.863 200.608C764.299 198.751 763.694 187.605 760.67 185.747C757.646 183.89 750.388 181.413 743.13 198.751C735.872 216.088 724.38 235.283 716.518 243.952C708.655 252.002 717.122 280.485 728.614 301.538C740.106 322.591 740.71 354.789 738.291 370.269C743.735 378.319 816.918 448.908 852.603 476.772C888.288 505.255 948.77 552.934 970.544 569.033C992.922 585.132 1015.91 604.947 985.059 618.569C970.544 623.523 947.56 627.857 943.931 601.851C943.931 601.851 939.093 580.179 925.787 574.606C912.481 569.652 899.779 561.602 879.215 537.454C858.651 512.686 769.742 451.385 703.816 425.997C676.599 415.471 665.712 420.425 654.221 425.997C642.729 431.57 657.85 442.097 668.736 449.527C668.736 449.527 705.026 477.391 715.308 488.537C725.59 499.682 717.122 523.831 706.84 535.596C696.558 547.361 680.228 569.652 675.389 577.702C670.551 585.751 645.753 582.036 636.681 583.275C627.004 584.513 604.02 586.99 596.157 582.655C588.295 578.94 584.666 567.794 594.343 557.887C604.02 547.98 622.77 527.546 642.124 548.599C648.777 555.41 653.011 555.41 662.688 544.884C672.365 534.358 683.857 523.212 675.994 509.59C668.132 495.967 639.1 484.202 615.512 473.057C591.924 461.911 567.731 443.954 556.844 431.57C539.909 431.57 498.176 431.57 498.176 431.57C498.176 431.57 493.942 432.809 498.176 440.239C502.41 448.289 524.183 507.732 580.432 567.175C602.206 591.324 606.439 591.943 616.721 598.135C627.608 604.327 637.286 624.142 610.068 635.287C595.553 639.622 580.432 623.523 580.432 604.947C581.037 596.897 556.239 582.036 547.167 570.891C549.586 579.559 552.61 596.278 545.352 597.516C537.49 598.755 503.015 593.801 503.015 577.083C503.015 560.364 503.015 555.41 496.361 550.457C489.708 545.503 431.041 509.59 388.098 491.014C359.671 476.772 377.816 463.769 360.881 437.143C343.946 410.517 340.317 397.514 288.907 359.743C260.48 336.832 258.666 317.018 245.964 303.396C233.263 289.154 219.957 288.535 212.699 308.349C205.441 328.164 166.732 416.709 100.202 432.809C74.1941 440.239 53.0253 445.193 37.2999 445.812C20.9697 445.812 -15.9247 445.193 7.66345 433.428ZM402.009 435.285C413.501 460.673 445.556 494.729 473.378 505.874C501.2 517.02 525.393 546.122 525.393 546.122C536.28 559.126 545.957 569.652 544.747 566.556C536.28 547.361 517.53 526.927 517.53 526.927C508.458 518.258 478.217 491.633 467.935 472.438C457.653 453.242 446.161 416.709 446.161 416.709C432.855 414.233 412.896 406.183 400.194 396.895C387.493 387.607 391.122 409.898 402.009 435.285Z" fill="black"/>
</svg>
