<svg width="172" height="101" viewBox="0 0 172 101" fill="none" xmlns="http://www.w3.org/2000/svg">
<g clip-path="url(#clip0_1127_30425)">
<path d="M171.75 7.5H0.75V93.5H171.75V7.5Z" fill="#014694"/>
<path d="M68.0664 29.1669H80.8537C85.5585 29.1669 87.6696 32.3228 87.6696 35.1753C87.6696 37.2389 86.8855 38.5741 84.7743 39.8486C87.4283 40.8197 88.9362 42.6404 88.9362 45.4322C88.9362 48.7703 86.5235 52.2904 80.914 52.2904H68.1267L68.0664 29.1669ZM75.0632 47.0102H79.7077C81.3362 47.0102 82.1204 45.7964 82.1204 44.7646C82.1204 45.2501 82.3616 42.8225 79.9489 42.8225H75.0632V47.0102ZM75.0632 38.2099H78.8029C80.4918 38.2099 81.1553 37.4209 81.1553 36.2678C81.1553 36.025 81.095 34.5077 79.2855 34.5077H75.0632V38.2099Z" fill="white"/>
<path d="M96.1749 29.1669H103.594L112.038 52.2297H104.438L103.292 48.7703H96.2352L95.2702 52.2297H87.7305L96.1749 29.1669ZM99.613 35.9643L97.6828 43.6722H101.845L99.613 35.9643Z" fill="white"/>
<path d="M123.799 36.025H130.856C130.856 32.1408 127.901 28.4993 120.964 28.4993C113.364 28.4993 111.012 32.7477 111.012 35.843C111.012 40.8197 117.104 42.1549 117.285 42.2156C118.19 42.519 121.99 43.4901 122.894 43.8542C123.739 44.1577 124.463 44.8253 124.463 45.675C124.463 47.0102 122.894 47.6778 121.567 47.6778C120.723 47.6778 117.828 47.3744 117.828 44.3398H110.529C110.529 48.4061 113.304 52.958 121.085 52.958C129.71 52.958 131.459 47.7992 131.459 45.0681C131.459 42.8225 130.193 40.3341 127.298 39.181C125.548 38.4527 122.653 37.8458 121.205 37.4209C120.482 37.1782 118.009 36.6926 118.009 35.1753C118.009 33.2332 121.145 33.476 120.723 33.476C122.171 33.4153 123.799 34.265 123.799 36.025Z" fill="white"/>
<path d="M132.726 29.1669H150.279V35.236H139.723V39.3024H149.133V45.1288H139.723V52.2297H132.666L132.726 29.1669Z" fill="white"/>
<path d="M22.1641 52.2297H45.0847V29.1669H22.1641V52.2297ZM38.0879 45.1288H29.2212V36.2678H38.0276V45.1288H38.0879Z" fill="#9FA8D4"/>
<path d="M61.0095 36.2678H52.2031V45.1288H61.0095V36.2678Z" fill="#9FA8D4"/>
<path d="M30.8498 72.0758L28.4974 63.5183L26.145 72.0758H24.7577L22.1641 61.9403H23.5514L25.5418 70.3764L27.8339 61.9403H29.2815L31.5133 70.3764L33.5641 61.9403H34.9514L32.2371 72.0758H30.8498Z" fill="white"/>
<path d="M40.2601 71.5903C39.7173 72.0151 39.0538 72.1972 38.2093 72.1972C37.6062 72.1972 37.1236 72.0758 36.7014 71.8938C36.2792 71.7117 35.9173 71.4082 35.6157 71.1048C35.3141 70.7406 35.1332 70.3765 34.9522 69.8909C34.8316 69.4054 34.7109 68.9199 34.7109 68.3129C34.7109 67.7667 34.7713 67.2205 34.9522 66.7957C35.1332 66.3101 35.3744 65.946 35.676 65.5818C35.9776 65.2177 36.3395 64.9749 36.7617 64.7928C37.184 64.6108 37.6665 64.4894 38.149 64.4894C38.8125 64.4894 39.3554 64.6108 39.7776 64.9142C40.1998 65.157 40.5617 65.5211 40.803 65.946C41.0443 66.3708 41.2252 66.7957 41.3459 67.2812C41.4665 67.7667 41.4665 68.2523 41.4665 68.6771H35.9776C35.9776 68.9806 35.9776 69.284 36.0982 69.5875C36.1586 69.8909 36.3395 70.1337 36.5205 70.3765C36.7014 70.6192 36.9427 70.8013 37.2443 70.9227C37.5459 71.0441 37.9078 71.1048 38.2697 71.1048C38.7522 71.1048 39.1744 70.9834 39.5363 70.7406C39.8379 70.4978 40.0792 70.1337 40.1998 69.6482H41.4062C41.1649 70.5585 40.803 71.1655 40.2601 71.5903ZM39.9586 66.8564C39.8379 66.6136 39.7173 66.3708 39.5363 66.1887C39.3554 66.0067 39.1141 65.8853 38.8728 65.7639C38.6316 65.6425 38.33 65.5818 38.0284 65.5818C37.7268 65.5818 37.4252 65.6425 37.184 65.7639C36.9427 65.8853 36.7014 66.0067 36.5205 66.1887C36.3395 66.3708 36.2189 66.6136 36.0982 66.8564C35.9776 67.0991 35.9173 67.4026 35.9173 67.6453H40.1395C40.1395 67.4026 40.0792 67.1598 39.9586 66.8564Z" fill="white"/>
<path d="M51.3584 66.0066C51.0568 65.7639 50.6346 65.6425 50.152 65.6425C49.7298 65.6425 49.3679 65.7032 49.0663 65.8853C48.7647 66.0673 48.5234 66.2494 48.3425 66.5529C48.1615 66.7956 48.0409 67.0991 47.9806 67.4632C47.9203 67.8274 47.86 68.1915 47.86 68.5557C47.86 68.9198 47.9203 69.2233 47.9806 69.5268C48.0409 69.8302 48.1615 70.1337 48.3425 70.3764C48.5234 70.6192 48.7044 70.8013 49.006 70.9834C49.3076 71.1047 49.6092 71.2261 49.9711 71.2261C50.5742 71.2261 51.0568 71.044 51.3584 70.7406C51.7203 70.4371 51.9012 70.0123 51.9615 69.4054H53.1679C53.0473 70.3158 52.6854 71.0441 52.1425 71.5296C51.5996 72.0151 50.8758 72.2579 49.9107 72.2579C49.3679 72.2579 48.8854 72.1972 48.4631 72.0151C48.0409 71.833 47.679 71.5903 47.3774 71.2261C47.0758 70.9227 46.8949 70.4978 46.7139 70.0123C46.5933 69.5268 46.4727 69.0412 46.4727 68.495C46.4727 67.9488 46.533 67.4026 46.7139 66.9777C46.8346 66.4922 47.0758 66.0673 47.3774 65.7032C47.679 65.339 48.0409 65.0963 48.4631 64.8535C48.8854 64.6714 49.4282 64.55 49.9711 64.55C50.3933 64.55 50.7552 64.6107 51.1171 64.6714C51.479 64.7928 51.7806 64.9142 52.0822 65.157C52.3838 65.339 52.5647 65.6425 52.7457 65.946C52.9266 66.2494 53.0473 66.6136 53.1076 67.0991H51.8409C51.8409 66.6136 51.66 66.2494 51.3584 66.0066Z" fill="white"/>
<path d="M55.2771 64.7321V66.3101C55.5787 65.7032 55.9406 65.2783 56.3628 64.9749C56.7851 64.6714 57.3279 64.55 57.9914 64.55V65.8246C57.5089 65.8246 57.0866 65.8853 56.7851 66.0066C56.4232 66.128 56.1819 66.3101 55.9406 66.6136C55.7597 66.8563 55.5787 67.1598 55.5184 67.5239C55.3978 67.8881 55.3978 68.3129 55.3978 68.7985V72.0758H54.1914V64.7321H55.2771Z" fill="white"/>
<path d="M63.9633 71.5903C63.4204 72.0151 62.7569 72.1972 61.9125 72.1972C61.3093 72.1972 60.8268 72.0758 60.4045 71.8938C59.9823 71.7117 59.6204 71.4082 59.3188 71.1048C59.0172 70.7406 58.8363 70.3765 58.6553 69.8909C58.5347 69.4054 58.4141 68.9199 58.4141 68.3129C58.4141 67.7667 58.4744 67.2205 58.6553 66.7957C58.8363 66.3101 59.0776 65.946 59.3791 65.5818C59.6807 65.2177 60.0426 64.9749 60.4649 64.7928C60.8871 64.6108 61.3696 64.4894 61.8522 64.4894C62.5157 64.4894 63.0585 64.6108 63.4807 64.9142C63.903 65.157 64.2649 65.5211 64.5061 65.946C64.7474 66.3708 64.9283 66.7957 65.049 67.2812C65.1696 67.7667 65.1696 68.2523 65.1696 68.6771H59.6807C59.6807 68.9806 59.6807 69.284 59.8014 69.5875C59.8617 69.8909 60.0426 70.1337 60.2236 70.3765C60.4045 70.6192 60.6458 70.8013 60.9474 70.9227C61.249 71.0441 61.6109 71.1048 61.9728 71.1048C62.4553 71.1048 62.8776 70.9834 63.2395 70.7406C63.541 70.4978 63.7823 70.1337 63.903 69.6482H65.1093C64.868 70.5585 64.5061 71.1655 63.9633 71.5903ZM63.6617 66.8564C63.541 66.6136 63.4204 66.3708 63.2395 66.1887C63.0585 66.0067 62.8172 65.8853 62.576 65.7639C62.3347 65.6425 62.0331 65.5818 61.7315 65.5818C61.4299 65.5818 61.1283 65.6425 60.8871 65.7639C60.6458 65.8853 60.4045 66.0067 60.2236 66.1887C60.0426 66.3708 59.922 66.6136 59.8014 66.8564C59.6807 67.0991 59.6204 67.4026 59.6204 67.6453H63.8426C63.8426 67.4026 63.7823 67.1598 63.6617 66.8564Z" fill="white"/>
<path d="M72.1685 72.1973C71.8669 72.1973 71.6256 72.1366 71.4447 71.9545C71.2637 71.7724 71.1431 71.469 71.1431 71.1048C70.8415 71.5297 70.4193 71.7724 69.997 71.9545C69.5748 72.1366 69.0923 72.1973 68.5494 72.1973C68.2478 72.1973 67.8859 72.1366 67.6447 72.0759C67.3431 72.0152 67.1018 71.8938 66.8605 71.7117C66.6193 71.5297 66.4383 71.3476 66.3177 71.0441C66.197 70.8014 66.1367 70.4979 66.1367 70.0731C66.1367 69.6482 66.197 69.3448 66.3177 69.0413C66.4383 68.7985 66.6193 68.5558 66.8605 68.3737C67.1018 68.1916 67.3431 68.0702 67.6447 68.0095C67.9462 67.9488 68.2478 67.8275 68.5494 67.7668C68.851 67.7061 69.2129 67.6454 69.5145 67.6454C69.8161 67.5847 70.0574 67.5847 70.2986 67.524C70.5399 67.4633 70.7208 67.4026 70.8415 67.2812C70.9621 67.1599 71.0224 66.9778 71.0224 66.735C71.0224 66.4922 70.9621 66.2495 70.9018 66.0674C70.7812 65.8853 70.6605 65.764 70.5399 65.7033C70.3589 65.6426 70.2383 65.5819 69.997 65.5212C69.8161 65.5212 69.6351 65.4605 69.3939 65.4605C68.9113 65.4605 68.4891 65.5819 68.1272 65.764C67.7653 65.946 67.5843 66.3102 67.5843 66.8564H66.378C66.378 66.4316 66.4986 66.0067 66.6796 65.7033C66.8605 65.3998 67.1018 65.157 67.3431 64.9143C67.6447 64.7322 67.9462 64.6108 68.3081 64.4894C68.6701 64.4287 69.032 64.368 69.4542 64.368C69.7558 64.368 70.1177 64.368 70.4193 64.4287C70.7208 64.4894 71.0224 64.5501 71.324 64.7322C71.5653 64.8536 71.8066 65.0963 71.9875 65.3391C72.1685 65.5819 72.2288 65.946 72.2288 66.3709V70.1337C72.2288 70.4372 72.2288 70.6193 72.2891 70.7407C72.3494 70.862 72.4097 70.9227 72.5907 70.9227C72.7113 70.9227 72.832 70.9227 72.9526 70.862V71.7724C72.832 72.1366 72.5304 72.1973 72.1685 72.1973ZM70.4796 68.4951C70.2383 68.5558 69.997 68.6165 69.6955 68.6165C69.4542 68.6771 69.1526 68.6771 68.9113 68.7378C68.6097 68.7985 68.3685 68.8592 68.1875 68.9199C67.9462 69.0413 67.7653 69.1627 67.6447 69.3448C67.524 69.5268 67.4637 69.7696 67.4637 70.0731C67.4637 70.2551 67.524 70.4372 67.5843 70.5586C67.6447 70.68 67.7653 70.8014 67.8859 70.9227C68.0066 70.9834 68.1875 71.0441 68.3685 71.1048C68.5494 71.1655 68.7304 71.1655 68.9113 71.1655C69.3335 71.1655 69.6351 71.1048 69.9367 70.9834C70.2383 70.862 70.4796 70.7407 70.6002 70.5586C70.7812 70.3765 70.9018 70.1944 71.0224 70.0124C71.0827 69.8303 71.1431 69.6482 71.1431 69.4661V68.2523C70.9621 68.3737 70.7208 68.4951 70.4796 68.4951Z" fill="white"/>
<path d="M77.4755 64.7322V65.7639H76.0279V70.3158C76.0279 70.4372 76.0279 70.5586 76.0882 70.6799L76.2089 70.862C76.2692 70.9227 76.3898 70.9227 76.5105 70.9834C76.6311 70.9834 76.7517 70.9834 76.993 70.9834H77.5359V72.0758H76.6311C76.3295 72.0758 76.0279 72.0758 75.847 72.0152C75.6057 71.9545 75.4248 71.8938 75.3041 71.7724C75.1835 71.651 75.0629 71.4689 75.0025 71.2869C74.9422 71.1048 74.8819 70.8013 74.8819 70.4372V65.7639H73.6152V64.6715H74.8819V62.4866H76.0882V64.6715H77.4755V64.7322Z" fill="white"/>
<path d="M83.8695 71.5903C83.3267 72.0151 82.6632 72.1972 81.8187 72.1972C81.2155 72.1972 80.733 72.0758 80.3108 71.8938C79.8886 71.7117 79.5267 71.4082 79.2251 71.1048C78.9235 70.7406 78.7425 70.3765 78.5616 69.8909C78.4409 69.4054 78.3203 68.9199 78.3203 68.3129C78.3203 67.7667 78.3806 67.2205 78.5616 66.7957C78.7425 66.3101 78.9838 65.946 79.2854 65.5818C79.587 65.2177 79.9489 64.9749 80.3711 64.7928C80.7933 64.6108 81.2759 64.4894 81.7584 64.4894C82.4219 64.4894 82.9648 64.6108 83.387 64.9142C83.8092 65.157 84.1711 65.5211 84.4124 65.946C84.6536 66.3708 84.8346 66.7957 84.9552 67.2812C85.0759 67.7667 85.0759 68.2523 85.0759 68.6771H79.587C79.587 68.9806 79.587 69.284 79.7076 69.5875C79.7679 69.8909 79.9489 70.1337 80.1298 70.3765C80.3108 70.6192 80.5521 70.8013 80.8536 70.9227C81.1552 71.0441 81.5171 71.1048 81.879 71.1048C82.3616 71.1048 82.7838 70.9834 83.1457 70.7406C83.4473 70.4978 83.6886 70.1337 83.8092 69.6482H85.0155C84.7743 70.5585 84.4124 71.1655 83.8695 71.5903ZM83.5679 66.8564C83.4473 66.6136 83.3267 66.3708 83.1457 66.1887C82.9648 66.0067 82.7235 65.8853 82.4822 65.7639C82.2409 65.6425 81.9394 65.5818 81.6378 65.5818C81.3362 65.5818 81.0346 65.6425 80.7933 65.7639C80.5521 65.8853 80.3108 66.0067 80.1298 66.1887C79.9489 66.3708 79.8282 66.6136 79.7076 66.8564C79.587 67.0991 79.5267 67.4026 79.5267 67.6453H83.7489C83.7489 67.4026 83.6886 67.1598 83.5679 66.8564Z" fill="white"/>
<path d="M94.9072 66.0066C94.6056 65.7639 94.1834 65.6425 93.7009 65.6425C93.2786 65.6425 92.9167 65.7032 92.6151 65.8853C92.3135 66.0673 92.0723 66.2494 91.8913 66.5529C91.7104 66.7956 91.5897 67.0991 91.5294 67.4632C91.4691 67.8274 91.4088 68.1915 91.4088 68.5557C91.4088 68.9198 91.4691 69.2233 91.5294 69.5268C91.5897 69.8302 91.7104 70.1337 91.8913 70.3764C92.0723 70.6192 92.2532 70.8013 92.5548 70.9834C92.8564 71.1047 93.158 71.2261 93.5199 71.2261C94.1231 71.2261 94.6056 71.044 94.9072 70.7406C95.2691 70.4371 95.4501 70.0123 95.5104 69.4054H96.7167C96.5961 70.3158 96.2342 71.0441 95.6913 71.5296C95.1485 72.0151 94.4247 72.2579 93.4596 72.2579C92.9167 72.2579 92.4342 72.1972 92.012 72.0151C91.5897 71.833 91.2278 71.5903 90.9262 71.2261C90.6247 70.9227 90.4437 70.4978 90.2628 70.0123C90.1421 69.5268 90.0215 69.0412 90.0215 68.495C90.0215 67.9488 90.0818 67.4026 90.2628 66.9777C90.3834 66.4922 90.6247 66.0673 90.9262 65.7032C91.2278 65.339 91.5897 65.0963 92.012 64.8535C92.4342 64.6714 92.977 64.55 93.5199 64.55C93.9421 64.55 94.304 64.6107 94.6659 64.6714C95.0278 64.7928 95.3294 64.9142 95.631 65.157C95.9326 65.339 96.1135 65.6425 96.2945 65.946C96.4754 66.2494 96.5961 66.6136 96.6564 67.0991H95.3897C95.3897 66.6136 95.2088 66.2494 94.9072 66.0066Z" fill="white"/>
<path d="M99.251 61.9403V65.8246C99.3717 65.5818 99.4923 65.3997 99.6733 65.2783C99.8542 65.0963 100.035 64.9749 100.216 64.9142C100.457 64.7928 100.638 64.7321 100.88 64.6714C101.121 64.6107 101.362 64.6107 101.543 64.6107C102.026 64.6107 102.448 64.6714 102.749 64.7928C103.051 64.9142 103.353 65.0963 103.534 65.339C103.715 65.5818 103.895 65.8853 103.956 66.1887C104.016 66.4922 104.076 66.8563 104.076 67.2812V72.1365H102.87V67.1598C102.87 66.7349 102.749 66.3708 102.448 66.0673C102.207 65.8246 101.845 65.6425 101.362 65.6425C101 65.6425 100.699 65.7032 100.397 65.8246C100.156 65.946 99.9145 66.128 99.7336 66.3101C99.5526 66.4922 99.432 66.7349 99.3114 67.0384C99.251 67.3419 99.1907 67.6453 99.1907 67.9488V72.0758H97.9844V61.9403H99.251Z" fill="white"/>
<path d="M110.952 71.5903C110.409 72.0151 109.745 72.1972 108.901 72.1972C108.298 72.1972 107.815 72.0758 107.393 71.8938C106.971 71.7117 106.609 71.4082 106.307 71.1048C106.006 70.7406 105.764 70.3765 105.644 69.8909C105.523 69.4054 105.402 68.9199 105.402 68.3129C105.402 67.7667 105.463 67.2205 105.644 66.7957C105.825 66.3101 106.066 65.946 106.367 65.5818C106.669 65.2177 107.031 64.9749 107.453 64.7928C107.875 64.6108 108.358 64.4894 108.84 64.4894C109.504 64.4894 110.047 64.6108 110.469 64.9142C110.891 65.157 111.253 65.5211 111.494 65.946C111.736 66.3708 111.917 66.7957 112.037 67.2812C112.158 67.7667 112.158 68.2523 112.158 68.6771H106.669C106.669 68.9806 106.669 69.284 106.79 69.5875C106.85 69.8909 107.031 70.1337 107.212 70.3765C107.393 70.6192 107.634 70.8013 107.936 70.9227C108.237 71.0441 108.599 71.1048 108.961 71.1048C109.444 71.1048 109.866 70.9834 110.228 70.7406C110.529 70.4978 110.771 70.1337 110.891 69.6482H112.098C111.856 70.5585 111.494 71.1655 110.952 71.5903ZM110.65 66.8564C110.529 66.6136 110.409 66.3708 110.228 66.1887C110.047 66.0067 109.806 65.8853 109.564 65.7639C109.323 65.6425 109.021 65.5818 108.72 65.5818C108.418 65.5818 108.117 65.6425 107.875 65.7639C107.634 65.8853 107.393 66.0067 107.212 66.1887C107.031 66.3708 106.91 66.6136 106.79 66.8564C106.669 67.0991 106.609 67.4026 106.609 67.6453H110.831C110.831 67.4026 110.771 67.1598 110.65 66.8564Z" fill="white"/>
<path d="M114.39 64.7321V65.8246C114.933 64.9749 115.717 64.55 116.742 64.55C117.165 64.55 117.587 64.6714 117.949 64.8535C118.311 65.0356 118.552 65.339 118.733 65.8246C118.974 65.3997 119.276 65.0963 119.698 64.9142C120.12 64.6714 120.542 64.6107 121.025 64.6107C121.387 64.6107 121.749 64.6714 121.99 64.7321C122.292 64.7928 122.533 64.9142 122.774 65.0963C123.015 65.2783 123.136 65.4604 123.257 65.7639C123.377 66.0066 123.438 66.3708 123.438 66.7349V72.1365H122.231V67.3419C122.231 67.0991 122.231 66.917 122.171 66.6743C122.111 66.4922 122.05 66.3101 121.99 66.128C121.869 66.0066 121.749 65.8853 121.568 65.7639C121.387 65.7032 121.146 65.6425 120.844 65.6425C120.241 65.6425 119.758 65.8246 119.457 66.128C119.095 66.4922 118.974 66.917 118.974 67.4632V72.0151H117.768V67.2205C117.768 66.9777 117.768 66.7956 117.707 66.5529C117.647 66.3708 117.587 66.1887 117.466 66.0066C117.346 65.8853 117.225 65.7639 117.044 65.6425C116.863 65.5818 116.622 65.5211 116.38 65.5211C116.019 65.5211 115.717 65.5818 115.476 65.7639C115.234 65.8853 114.993 66.0673 114.872 66.2494C114.692 66.4315 114.631 66.6743 114.511 66.8563C114.45 67.0384 114.39 67.2205 114.39 67.4026V71.9544H113.184V64.7321H114.39Z" fill="white"/>
<path d="M124.703 61.9403H125.909V63.3969H124.703V61.9403ZM125.909 72.0758H124.703V64.7321H125.909V72.0758Z" fill="white"/>
<path d="M128.624 70.4372C128.744 70.6192 128.865 70.7406 129.046 70.862C129.227 70.9834 129.408 71.0441 129.649 71.1048C129.89 71.1655 130.132 71.1655 130.373 71.1655C130.554 71.1655 130.735 71.1655 130.976 71.1048C131.157 71.1048 131.398 71.0441 131.519 70.9227C131.7 70.862 131.82 70.7406 131.941 70.5585C132.062 70.4372 132.122 70.2551 132.122 70.0123C132.122 69.7089 132.001 69.4661 131.76 69.284C131.519 69.1019 131.217 68.9806 130.855 68.9199C130.493 68.7985 130.132 68.7378 129.709 68.6771C129.287 68.6164 128.925 68.495 128.563 68.3129C128.201 68.1916 127.9 67.9488 127.659 67.706C127.417 67.4633 127.297 67.0991 127.297 66.6136C127.297 66.2494 127.357 65.946 127.538 65.6425C127.719 65.3998 127.9 65.157 128.201 64.9749C128.443 64.7928 128.744 64.6715 129.106 64.6108C129.408 64.5501 129.77 64.4894 130.071 64.4894C130.493 64.4894 130.855 64.5501 131.217 64.6108C131.579 64.6715 131.881 64.7928 132.122 64.9749C132.363 65.157 132.605 65.3998 132.786 65.7032C132.966 66.0067 133.027 66.3708 133.087 66.7957H131.881C131.881 66.5529 131.82 66.3708 131.7 66.1887C131.579 66.0067 131.459 65.8853 131.278 65.8246C131.097 65.7032 130.916 65.6425 130.735 65.6425C130.554 65.5818 130.373 65.5818 130.132 65.5818C129.951 65.5818 129.77 65.5818 129.589 65.6425C129.408 65.6425 129.227 65.7032 129.106 65.7639C128.925 65.8246 128.805 65.946 128.744 66.0674C128.624 66.1887 128.624 66.3708 128.624 66.5529C128.624 66.735 128.684 66.917 128.865 67.0991C128.986 67.2205 129.227 67.3419 129.408 67.4633C129.649 67.524 129.89 67.6453 130.192 67.706C130.493 67.7667 130.735 67.8274 131.036 67.8881C131.338 67.9488 131.64 68.0095 131.941 68.1309C132.243 68.2523 132.484 68.3736 132.725 68.495C132.966 68.6771 133.147 68.8592 133.268 69.1019C133.389 69.3447 133.449 69.6482 133.449 70.0123C133.449 70.4372 133.328 70.8013 133.147 71.1048C132.966 71.4082 132.725 71.651 132.424 71.8331C132.122 72.0151 131.82 72.1365 131.398 72.1972C131.036 72.2579 130.674 72.3186 130.313 72.3186C129.89 72.3186 129.528 72.2579 129.166 72.1972C128.805 72.1365 128.503 71.9544 128.201 71.7724C127.9 71.5903 127.719 71.3475 127.538 70.9834C127.357 70.6192 127.297 70.2551 127.236 69.8302H128.443C128.443 70.0123 128.503 70.2551 128.624 70.4372Z" fill="white"/>
<path d="M137.794 64.7322V65.7639H136.346V70.3158C136.346 70.4372 136.346 70.5586 136.407 70.6799L136.527 70.862C136.588 70.9227 136.708 70.9227 136.829 70.9834C136.949 70.9834 137.07 70.9834 137.311 70.9834H137.854V72.0758H136.949C136.648 72.0758 136.346 72.0758 136.165 72.0152C135.924 71.9545 135.743 71.8938 135.622 71.7724C135.502 71.651 135.381 71.4689 135.321 71.2869C135.261 71.1048 135.2 70.8013 135.2 70.4372V65.7639H133.934V64.6715H135.2V62.4866H136.407V64.6715H137.794V64.7322Z" fill="white"/>
<path d="M140.085 64.7321V66.3101C140.387 65.7032 140.749 65.2783 141.171 64.9749C141.593 64.6714 142.136 64.55 142.8 64.55V65.8246C142.317 65.8246 141.895 65.8853 141.593 66.0066C141.232 66.128 140.99 66.3101 140.749 66.6136C140.568 66.8563 140.387 67.1598 140.266 67.5239C140.146 67.8881 140.146 68.3129 140.146 68.7985V72.0758H138.939V64.7321H140.085Z" fill="white"/>
<path d="M146.599 73.9573C146.479 74.2 146.298 74.3821 146.177 74.5642C145.996 74.7462 145.815 74.8069 145.634 74.9283C145.453 74.989 145.212 75.0497 144.91 75.0497C144.79 75.0497 144.609 75.0497 144.488 75.0497C144.367 75.0497 144.186 74.989 144.066 74.9283V73.8359C144.186 73.8966 144.307 73.8966 144.428 73.9573C144.548 74.0179 144.669 74.0179 144.79 74.0179C145.031 74.0179 145.212 73.9573 145.393 73.8359C145.574 73.7145 145.694 73.5324 145.815 73.3503L146.298 72.1365L143.402 64.8535H144.729L146.84 70.862L148.891 64.8535H150.158L146.961 73.1683C146.901 73.411 146.78 73.7145 146.599 73.9573Z" fill="white"/>
</g>
<defs>
<clipPath id="clip0_1127_30425">
<rect width="171" height="100" fill="white" transform="translate(0.75 0.5)"/>
</clipPath>
</defs>
</svg>
