<svg width="112" height="101" viewBox="0 0 112 101" fill="none" xmlns="http://www.w3.org/2000/svg">
<g clip-path="url(#clip0_1127_30360)">
<path fill-rule="evenodd" clip-rule="evenodd" d="M85.6823 49.9709L87.312 54.2047L87.3966 54.1366L88.6303 57.4854L89.4416 57.2148L89.4769 53.6269L90.7059 56.7767L91.5437 56.4854L90.8263 50.6802L93.0665 55.9578L93.7291 55.7275L93.0946 51.8122L94.5604 55.4386L95.3206 55.1751L94.685 52.2077L96.3376 54.8234L97.5972 54.3853L96.4945 49.4564L98.5178 54.065L99.2798 53.8015L98.0942 48.02L100.35 53.4303L101.223 53.1284L100.009 47.5268L102.226 52.7802L103.934 52.1834L102.888 48.1574L105.136 51.7696L106.432 51.3184L105.769 47.5653L107.632 50.9034L108.069 50.7506L107.804 47.3516L109.388 50.2935L110.707 49.8359L108.084 42.2189L85.6823 49.9709ZM8.84961 69.3628C9.42829 69.6322 10.9663 70.126 11.6584 70.216C11.6584 70.216 12.5079 64.9152 12.5279 64.9128C12.1484 64.9128 10.944 65.0259 9.78431 63.7263L8.84961 69.3628ZM16.4512 43.9034L24.1209 2.31665C23.766 2.39303 20.627 3.3279 19.8416 3.65827L11.9034 51.3184L16.4512 43.9034Z" fill="#8B288B"/>
<path fill-rule="evenodd" clip-rule="evenodd" d="M29.4959 69.3531L34.0524 1.00977C33.6077 1.02042 30.5528 1.24126 30.1727 1.29218L26.6289 60.0613L29.4959 69.3531Z" fill="#00ACEC"/>
<path fill-rule="evenodd" clip-rule="evenodd" d="M41.8904 77.3314L47.6895 1.3154C47.6895 1.3154 44.1205 1.13364 43.691 1.14666L37.0312 77.3337L41.8904 77.3314Z" fill="#9FC54D"/>
<path fill-rule="evenodd" clip-rule="evenodd" d="M55.0012 1.90747L53.8867 58.2846C54.3544 58.3746 57.1602 58.3503 57.5656 58.3462L58.1666 2.29054C58.1666 2.29054 55.2855 1.92286 55.0012 1.90747Z" fill="#F2CA30"/>
<path fill-rule="evenodd" clip-rule="evenodd" d="M63.943 61.3249L63.873 3.17212C64.8459 3.31599 68.7151 4.25027 68.7151 4.25027L66.7923 70.718L63.943 61.3249Z" fill="#E0922F"/>
<path fill-rule="evenodd" clip-rule="evenodd" d="M79.1491 77.316L82.2393 8.96844C81.4686 8.51373 79.1697 7.48058 77.9454 7.04541L74.8945 77.3337L79.1491 77.316Z" fill="#CC2229"/>
<path fill-rule="evenodd" clip-rule="evenodd" d="M17.3765 84.7783C19.4445 84.7783 21.9143 85.3739 21.9143 87.1827C21.9143 88.0116 21.3245 88.8215 20.4362 88.8215C19.6349 88.8215 18.7901 88.0974 17.46 88.0974C14.6941 88.0974 13.5955 90.3538 13.5955 92.6943C13.5955 95.0992 14.8204 97.1626 17.1645 97.1626C19.2959 97.1626 19.6343 96.4604 20.5208 96.4604C21.8732 96.4604 22.0418 97.6084 22.0418 98.056C22.0418 99.95 19.1895 100.609 17.3119 100.609C12.5832 100.609 9.92188 97.0335 9.92188 92.6937C9.92246 88.0969 12.857 84.7783 17.3765 84.7783ZM26.5814 98.7161C26.2647 99.6735 25.9052 100.396 24.7854 100.396C23.8143 100.396 23.1387 99.8434 23.1387 98.9926C23.1387 98.4817 23.2027 98.0779 23.6451 96.8636L26.9391 87.905C27.5525 86.2247 28.0806 84.7783 29.7902 84.7783C31.5439 84.7783 32.0709 86.2247 32.683 87.905L35.9771 96.8636C36.4207 98.0779 36.4847 98.4811 36.4847 98.9926C36.4847 99.844 35.8085 100.396 34.8368 100.396C33.7176 100.396 33.3592 99.6735 33.0414 98.7161L32.6202 97.3538H27.0026L26.5814 98.7161ZM31.6073 94.162H28.0166L29.8543 88.6078H29.8966L31.6073 94.162ZM43.6198 85.1182H39.4186C38.5333 85.1182 37.7096 85.7357 37.7096 86.8423V98.5669C37.7096 99.7789 38.4275 100.396 39.4186 100.396C40.4109 100.396 41.1288 99.7789 41.1288 98.5669V95.3964H43.7261C46.9773 95.3964 48.7715 93.2247 48.7715 90.2691C48.7715 86.8423 46.2605 85.1182 43.6198 85.1182ZM41.1288 88.1827H42.9665C44.3189 88.1827 45.226 88.9056 45.226 90.2686C45.226 91.3313 44.4229 92.3313 42.9665 92.3313H41.1288V88.1827ZM57.6197 98.7161L57.1973 97.3538H51.5803L51.159 98.7161C50.8412 99.6735 50.4834 100.396 49.3637 100.396C48.392 100.396 47.7158 99.8434 47.7158 98.9926C47.7158 98.4817 47.781 98.0779 48.2234 96.8636L51.5174 87.905C52.1296 86.2247 52.656 84.7783 54.3685 84.7783C56.1198 84.7783 56.6474 86.2247 57.2613 87.905L60.5554 96.8636C60.9972 98.0779 61.0589 98.4811 61.0589 98.9926C61.0589 99.844 60.3856 100.396 59.4133 100.396C58.2953 100.396 57.9375 99.6735 57.6197 98.7161ZM56.185 94.162H52.5937L54.4308 88.6078H54.4725L56.185 94.162ZM72.6095 97.3112C73.0754 97.8221 73.3292 98.2259 73.3292 98.8008C73.3292 99.2899 72.8851 100.396 71.5761 100.396C70.6902 100.396 70.3747 100.078 69.9499 99.545L65.7494 94.204H65.7071V98.5669C65.7071 99.7789 64.9886 100.396 63.9963 100.396C63.004 100.396 62.2867 99.7789 62.2867 98.5669V86.8423C62.2867 85.7357 63.1104 85.1182 63.9963 85.1182H68.1146C71.1543 85.1182 73.1394 86.9903 73.1394 89.8209C73.1394 92.0548 71.7876 93.6717 69.6327 94.0767L72.6095 97.3112ZM65.7065 88.31H67.9648C68.9365 88.31 69.7167 88.9275 69.7167 89.95C69.7167 90.9062 69.0846 91.651 67.9648 91.651H65.7065V88.31ZM81.5206 84.7783C77.065 84.7783 74.1311 87.8855 74.1311 92.6937C74.1311 97.503 77.065 100.609 81.5206 100.609C85.9761 100.609 88.91 97.503 88.91 92.6937C88.91 87.8855 85.9761 84.7783 81.5206 84.7783ZM81.5206 87.9702C84.1596 87.9702 85.2359 90.2899 85.2359 92.6943C85.2359 95.0992 84.1596 97.4183 81.5206 97.4183C78.8804 97.4183 77.8041 95.0998 77.8041 92.6943C77.8041 90.2893 78.8804 87.9702 81.5206 87.9702ZM90.5991 86.8204C90.5991 85.6072 91.3176 84.9909 92.3099 84.9909C93.3021 84.9909 94.0218 85.6072 94.0218 86.8204V97.0773H97.6948C98.7711 97.0773 99.4044 97.6729 99.4044 98.6729C99.4044 99.6291 98.7711 100.27 97.6948 100.27H92.3099C91.4227 100.27 90.5991 99.651 90.5991 98.5445V86.8204Z" fill="black"/>
<path d="M0.820312 80.8777H107.814V81.4627H0.820312V80.8777Z" fill="black"/>
<path fill-rule="evenodd" clip-rule="evenodd" d="M18.323 63.1644L18.0299 66.4314L20.6207 68.8192C20.6207 68.8192 17.3043 70.2543 14.3281 70.3757C12.8799 70.4373 11.5733 70.2159 11.5733 70.2159L12.4587 64.9275C14.4896 64.9477 16.8014 64.0163 18.323 63.1644ZM9.8655 63.834L8.96017 69.4053C8.96017 69.4053 7.11193 68.7973 5.48282 66.6901C2.48779 62.638 1.44264 54.7771 1.44264 54.7771C1.44264 54.7771 -0.488443 44.4847 2.30801 29.2076C2.76861 27.162 3.57229 19.7257 8.83739 12.5238C13.4445 5.38226 19.9574 3.61554 19.9574 3.61554L12.0263 51.1241C12.0263 51.1241 9.59408 55.4859 8.95136 59.4166C8.55892 62.2739 9.8655 63.834 9.8655 63.834ZM24.0446 2.342C25.2131 1.97433 29.6951 1.32247 30.2561 1.27806L26.6971 60.278L19.8816 38.6913L16.3561 44.1028L24.0446 2.342ZM33.9532 1.02525C36.2856 0.822762 43.252 1.12708 43.799 1.14781L37.1462 77.3313H32.0809L29.4295 69.1614L33.9532 1.02525ZM47.5807 1.30885C48.6652 1.28813 54.4725 1.83638 55.117 1.91749C55.0371 1.93644 54.0137 58.3011 54.0137 58.3011C53.5126 58.3426 50.2344 57.8399 50.2344 57.8399L48.8626 77.326H41.8062L47.5807 1.30885ZM58.0762 2.28043C59.3293 2.41838 63.8377 3.13182 63.9728 3.19339L64.0621 61.7316L62.6739 57.654C61.5882 57.9731 58.6472 58.3686 57.4717 58.3384L58.0762 2.28043ZM68.614 4.23069C70.3871 4.49239 76.8471 6.551 78.055 7.08741L75.0224 77.3301H68.9224L66.7 70.4337L68.614 4.23069ZM108.12 42.3521L105.57 35.0128L96.2989 38.1123C96.2989 38.1123 90.9757 20.8808 88.9336 16.6866C85.9697 10.4557 82.1328 8.91808 82.1328 8.91808L79.0496 77.3295H85.73L87.3732 54.1543L85.8345 50.0844L108.12 42.3521ZM89.2255 26.0394L93.2381 39.146L88.2615 40.7262L89.2255 26.0394Z" fill="black"/>
</g>
<defs>
<clipPath id="clip0_1127_30360">
<rect width="111" height="100" fill="white" transform="translate(0.25 0.5)"/>
</clipPath>
</defs>
</svg>
