<svg width="185" height="101" viewBox="0 0 185 101" fill="none" xmlns="http://www.w3.org/2000/svg">
<g clip-path="url(#clip0_1127_30330)">
<path d="M37.9854 7.00334C27.1173 6.92817 16.3278 8.66203 10.4399 11.0707C4.93051 13.4026 1.76049 16.7166 1.76049 19.9521C1.76049 23.2645 5.53336 26.9527 10.4399 28.8352C16.4769 31.2439 27.1926 33.1247 37.9854 32.9744C50.21 32.7489 59.1155 31.3959 65.5309 28.8352C70.6619 26.8775 74.135 23.2645 74.2104 19.9521C74.2857 16.7149 70.8913 13.4777 65.5309 11.1459C60.0215 8.73719 49.2304 7.00334 37.9854 7.00334V5.5C47.5692 5.5 59.4186 6.85468 66.663 10.0167C72.4738 12.5757 75.7192 16.3391 75.7192 19.9521C75.7192 23.6403 72.4738 27.4053 66.663 29.9644C59.7201 32.9744 47.9476 34.4811 37.9854 34.4811C26.8912 34.4811 15.3448 32.5985 9.30791 29.9644C3.49537 27.3302 0.25 23.6403 0.25 19.9521C0.25 16.3391 3.49537 12.5757 9.30791 10.0167C14.9681 7.60802 24.7779 5.5 37.9854 5.5V7.00334ZM66.0584 27.0295C65.3819 27.407 64.851 27.5573 64.0221 27.9332V14.2327C63.0408 13.7817 61.9841 13.4794 61.0782 13.2539V11.0707C64.851 12.0496 66.7383 13.0284 69.0024 14.3814V16.8653C68.1718 16.3391 67.1921 15.7361 66.0567 15.1347V27.0295H66.0584ZM53.0032 30.417C52.248 30.5674 51.7205 30.6425 50.8899 30.7177V9.1882C51.7205 9.26336 52.3234 9.3402 53.0786 9.41537L56.7008 22.5128V10.0184C57.6067 10.2439 57.9852 10.2439 58.8158 10.471V29.3647C58.0622 29.5935 57.3823 29.667 56.55 29.8925L53.0032 17.3981V30.417ZM48.6275 16.8669V28.2339C48.6275 30.7945 46.6649 31.1704 44.6269 31.3224C42.6643 31.3975 40.7016 31.0952 40.7016 28.613V16.8669H42.815V28.0084C42.815 29.1375 43.7963 29.2127 44.7023 29.1375C45.5312 29.1375 46.5125 29.0624 46.5125 28.0084V16.8669H48.6275ZM46.5125 16.8669V11.8224C46.5125 10.8435 45.5312 10.7684 44.7023 10.6932C43.7963 10.618 42.815 10.6932 42.815 11.8224V16.8669H40.7016V11.2962C40.7016 8.81236 42.6643 8.51169 44.6269 8.58686C46.6649 8.66203 48.6275 9.11303 48.6275 11.5986V16.8669H46.5125ZM36.3242 16.8669V11.0707C36.3242 10.8435 36.1735 10.618 35.8721 10.618C35.4936 10.618 33.0035 10.618 32.6267 10.6932V16.8653H30.5134V8.66203C32.1746 8.58686 34.514 8.43653 36.1735 8.43653C37.8347 8.43653 38.4392 9.64087 38.4392 10.7684V16.8653H36.3242V16.8669ZM38.4392 16.8669V22.137C38.4392 23.9443 37.0795 24.6943 35.3446 24.6943H32.6267V31.3207C31.6454 31.2455 31.4193 31.2455 30.5134 31.1687V16.8669H32.6267V22.588H35.4953C36.2489 22.588 36.3242 22.137 36.3242 21.686V16.8669H38.4392ZM25.2317 9.11303V27.7077C25.2317 30.5674 23.269 30.6425 21.3064 30.265C19.2684 29.8892 17.3075 29.5902 17.3075 27.0278V10.4694L19.4208 10.0167V26.8792C19.4208 27.858 20.4005 27.9332 21.3064 28.0835C22.137 28.2339 23.1183 28.461 23.1183 27.255V9.41537L25.2317 9.11303ZM15.0434 16.8669V26.0507C15.0434 27.4788 13.7607 28.5345 12.6286 28.1587C11.4966 27.7077 8.93112 26.804 7.64671 25.9003V16.8669H9.76173V24.696C10.4399 24.9983 11.4966 25.4493 12.0995 25.7517C12.8547 26.0523 12.9301 25.8268 12.9301 25.2255V16.8669H15.0434ZM12.9301 16.8669V14.5317C12.9301 14.0807 12.8547 13.9321 12.3255 14.0807C11.9488 14.2327 10.5153 14.7606 9.76173 15.1364V16.8669H7.64671V14.0072C9.00648 13.1036 11.3442 12.1247 12.3255 11.8224C13.4576 11.5217 15.0434 12.0496 15.0434 13.7817V16.8669H12.9301Z" fill="#DC4447"/>
<path d="M30.1537 53.2643H18.0664V45.624H53.4591V53.2643H41.0972V85.0216H30.1537V53.2643Z" fill="#005B94"/>
<path d="M80.9168 57.6292L65.9811 95.5H56.409L60.2924 85.8402L48.8047 57.6292H59.909L65.3246 76.6715H65.4351L71.3431 57.6292H80.9168Z" fill="#005B94"/>
<path d="M92.3971 85.0217L81.9492 57.6292H92.9999L98.4156 76.8368H98.5261L104.324 57.6292H114.008L103.614 85.0217H92.3971Z" fill="#005B94"/>
<path d="M133.513 67.8319C133.513 66.3586 133.076 64.8853 132.255 63.7394C131.435 62.5936 130.231 61.8853 128.645 61.9922C125.036 62.1593 124.158 64.7233 123.885 67.8319H133.513ZM123.666 73.3976C123.611 76.9455 124.542 80.0006 128.425 80.0006C131.324 80.0006 133.133 78.6359 133.513 76.0718H143.14C142.813 79.6181 140.57 82.1821 137.944 83.7088C135.536 85.2372 132.473 85.8369 129.246 85.8369C118.25 85.8369 113.873 81.1448 113.873 70.3942C113.873 61.7183 120.384 56.8074 128.643 56.8074C139.803 56.8074 143.359 63.1916 143.359 73.3959H123.666V73.3976Z" fill="#005B94"/>
<path d="M156.904 69.7443L166.367 57.629H177.692L168.392 69.143L179.059 85.0232H166.751L156.904 69.7443ZM146.51 45.624H156.904V85.0216H146.51V45.624Z" fill="#005B94"/>
<path d="M181.458 61.8552C182.729 61.8552 183.603 60.8981 183.603 59.672C183.603 58.4493 182.729 57.4905 181.458 57.4905C180.189 57.4905 179.316 58.4477 179.316 59.672C179.316 60.8981 180.189 61.8552 181.458 61.8552ZM181.458 56.8909C183 56.8909 184.25 58.137 184.25 59.6737C184.25 61.2121 183 62.4566 181.458 62.4566C179.918 62.4566 178.67 61.2121 178.67 59.6737C178.67 58.137 179.918 56.8909 181.458 56.8909ZM181.495 59.4465C181.818 59.4465 182.12 59.3964 182.12 58.9722C182.12 58.6047 181.76 58.5462 181.503 58.5462H180.967V59.4465H181.495ZM180.368 58.1219H181.564C182.356 58.1219 182.768 58.3758 182.768 59.029C182.768 59.5869 182.414 59.8207 181.952 59.8725L182.789 61.2422H182.1L181.307 59.8725H180.969V61.2422H180.37V58.1219H180.368Z" fill="#005B94"/>
<path d="M70.1453 34.9605C71.4164 34.9605 72.2888 34.0017 72.2888 32.7789C72.2888 31.5562 71.4164 30.5958 70.1453 30.5958C68.876 30.5958 68.0019 31.5546 68.0019 32.7789C68.0019 34.0017 68.876 34.9605 70.1453 34.9605ZM70.1453 29.9961C71.6877 29.9961 72.9352 31.2389 72.9352 32.7789C72.9352 34.3174 71.6877 35.5618 70.1453 35.5618C68.6047 35.5618 67.3555 34.3174 67.3555 32.7789C67.3555 31.2389 68.6047 29.9961 70.1453 29.9961ZM70.1839 32.5501C70.5054 32.5501 70.8068 32.5 70.8068 32.074C70.8068 31.7082 70.4468 31.6498 70.1922 31.6498H69.6547V32.5501H70.1839ZM69.0518 31.2255H70.2492C71.0429 31.2255 71.4549 31.4811 71.4549 32.1325C71.4549 32.6887 71.1015 32.9259 70.6394 32.9744L71.4767 34.3441H70.7867L69.993 32.9744H69.6547V34.3441H69.0535V31.2255H69.0518Z" fill="#DC4447"/>
</g>
<defs>
<clipPath id="clip0_1127_30330">
<rect width="184" height="100" fill="white" transform="translate(0.25 0.5)"/>
</clipPath>
</defs>
</svg>
