<svg width="128" height="101" viewBox="0 0 128 101" fill="none" xmlns="http://www.w3.org/2000/svg">
<g clip-path="url(#clip0_1127_30223)">
<path d="M13.8393 68.8816V84.9299H11.2757V77.8276H2.81359V84.9299H0.25V68.8816H2.81359V75.7789H11.2984V68.8816H13.8393ZM28.7218 68.8816V70.9303H24.071C23.2089 70.9303 22.551 70.9986 22.0746 71.1124C21.5982 71.2262 21.1671 71.4311 20.8041 71.727C20.2823 72.1368 19.8967 72.6603 19.6471 73.2977C19.511 73.6619 19.3976 74.0489 19.3068 74.4586C19.2161 74.8684 19.1707 75.3237 19.1707 75.8245H28.7218V77.8732H19.1707C19.1707 78.465 19.2387 79.0341 19.3522 79.5349C19.4656 80.0585 19.6698 80.5365 19.942 81.0145C20.3504 81.6974 20.8495 82.1755 21.4394 82.4714C22.0292 82.7673 22.8686 82.9039 23.9576 82.9039H28.7445V84.9526H23.4812C22.1426 84.9526 21.0537 84.7933 20.2143 84.4973C18.717 83.951 17.628 82.7673 16.9247 80.9007C16.539 79.9219 16.3575 78.6927 16.3575 77.2358C16.3575 75.3237 16.6525 73.753 17.265 72.5237C17.9456 71.2262 18.8077 70.2702 19.8513 69.7238C20.3731 69.4507 20.9856 69.2458 21.7116 69.1092C22.4376 68.9726 23.277 68.9044 24.2071 68.9044H28.7218V68.8816ZM34.1212 68.8816V84.9299H31.5576V68.8816H34.1212ZM34.1212 76.7805L41.8574 68.9044H44.9654L36.8663 76.6439L45.4419 84.9526H42.0162L34.1212 76.7805ZM47.1887 73.2067H49.5028V84.9299H47.1887V73.2067ZM47.1887 71.3173V68.8816H49.5028V71.3173H47.1887ZM56.6718 68.8816L61.9124 81.9706L66.7673 68.8816H70.5333V84.9299H68.0605V71.2945L63.0921 84.9299H60.5512L55.3786 71.2945V84.9299H52.8831V68.8816H56.6718ZM84.7125 78.4878L78.3148 68.9044H81.2868L86.051 76.4846L90.7018 68.9044H93.6737L87.2534 78.4878V84.9299H84.6898V78.4878H84.7125ZM91.4504 84.9299L98.0749 68.8816H101.433L107.785 84.9299H105.062L103.429 80.7414H95.8516L94.1501 84.9526L91.4504 84.9299ZM99.7084 70.8165L96.6457 78.6927H102.612L99.7084 70.8165ZM112.163 79.1024V84.9299H109.6V68.8816H116.655C117.88 68.8816 118.811 68.9954 119.4 69.2003C120.421 69.5645 121.193 70.2019 121.714 71.1352C122.146 71.8864 122.35 72.8197 122.35 73.9123C122.35 75.7106 121.783 77.0992 120.671 78.0553C120.24 78.4195 119.673 78.6699 118.969 78.8292C118.266 78.9886 117.336 79.0796 116.156 79.0796H112.163V79.1024ZM112.163 77.0537H116.36C117.563 77.0537 118.38 76.826 118.833 76.3708C119.355 75.8472 119.627 75.0277 119.627 73.9123C119.627 72.9335 119.355 72.1823 118.811 71.6132C118.38 71.1807 117.54 70.9531 116.224 70.9531H112.118V77.0537H112.163ZM124.686 84.9299V68.8816H127.25V84.9299H124.686Z" fill="#C70C0F"/>
<path d="M0.25 98.3375V90.4841H5.92167V91.4174H1.29359V93.8303H5.62674V94.7409H1.29359V97.4042H6.10316V98.3375H0.25ZM7.3963 98.3375V92.6466H8.2584V93.4434C8.66676 92.8287 9.2793 92.5101 10.0506 92.5101C10.3909 92.5101 10.7086 92.5784 11.0035 92.6922C11.2984 92.806 11.5026 92.9881 11.6387 93.1702C11.7748 93.3751 11.8883 93.6027 11.9336 93.8759C11.979 94.058 11.979 94.3767 11.979 94.8092V98.3148H11.0262V94.8547C11.0262 94.4677 10.9808 94.1718 10.9127 93.9669C10.8447 93.7621 10.7086 93.6255 10.5044 93.5117C10.3229 93.3978 10.096 93.3295 9.82378 93.3295C9.41542 93.3295 9.05243 93.4661 8.7575 93.7165C8.46258 93.9669 8.30377 94.4677 8.30377 95.1962V98.292H7.3963V98.3375ZM17.1516 98.3375V97.6091C16.7886 98.1782 16.2668 98.4513 15.5635 98.4513C15.1098 98.4513 14.7014 98.3375 14.3157 98.0871C13.9301 97.8367 13.6351 97.4953 13.431 97.04C13.2268 96.5847 13.1133 96.0839 13.1133 95.4921C13.1133 94.923 13.2041 94.3994 13.3856 93.9442C13.5671 93.4889 13.862 93.1247 14.225 92.8743C14.6107 92.6239 15.019 92.5101 15.4954 92.5101C15.8357 92.5101 16.1307 92.5784 16.4029 92.7377C16.6752 92.8743 16.8793 93.0792 17.0608 93.3068V90.4841H18.0137V98.3375H17.1516ZM14.1116 95.4921C14.1116 96.2205 14.2704 96.7668 14.5653 97.131C14.8602 97.4953 15.2232 97.6774 15.6543 97.6774C16.0626 97.6774 16.4256 97.4953 16.7205 97.1538C17.0155 96.8124 17.1516 96.2888 17.1516 95.5831C17.1516 94.8092 16.9928 94.2401 16.6978 93.8759C16.4029 93.5117 16.0399 93.3295 15.5862 93.3295C15.1551 93.3295 14.7922 93.5117 14.5199 93.8531C14.2704 94.1946 14.1116 94.7409 14.1116 95.4921ZM23.277 98.3375V97.4953C22.8232 98.1326 22.2334 98.4513 21.4847 98.4513C21.1444 98.4513 20.8495 98.383 20.5546 98.2692C20.2596 98.1326 20.0555 97.9733 19.9193 97.7912C19.7832 97.5863 19.6698 97.3587 19.6244 97.0855C19.579 96.9034 19.5564 96.5847 19.5564 96.175V92.6466H20.5092V95.788C20.5092 96.2888 20.5319 96.6303 20.5773 96.8124C20.6453 97.0628 20.7588 97.2676 20.9629 97.4042C21.1671 97.5408 21.394 97.6091 21.6889 97.6091C21.9838 97.6091 22.2561 97.5408 22.5056 97.3814C22.7552 97.2221 22.9367 97.04 23.0501 96.7668C23.1635 96.5164 23.2089 96.1295 23.2089 95.6514V92.6011H24.1618V98.292H23.277V98.3375ZM20.3277 91.5312V90.4386H21.3486V91.5312H20.3277ZM22.3241 91.5312V90.4386H23.3223V91.5312H22.3241ZM25.2507 96.6302L26.2036 96.4709C26.2489 96.8579 26.4077 97.1538 26.6573 97.3587C26.9068 97.5636 27.2471 97.6546 27.6782 97.6546C28.1092 97.6546 28.4495 97.5636 28.6537 97.3814C28.8579 97.1993 28.9713 96.9945 28.9713 96.7441C28.9713 96.5164 28.8806 96.3571 28.6764 96.2205C28.5403 96.1295 28.2227 96.0156 27.7009 95.9018C26.9976 95.7197 26.4985 95.5604 26.2262 95.4466C25.954 95.31 25.7498 95.1279 25.6137 94.9002C25.4776 94.6726 25.4095 94.4222 25.4095 94.149C25.4095 93.8986 25.4776 93.671 25.591 93.4434C25.7044 93.2157 25.8633 93.0564 26.0674 92.897C26.2262 92.7832 26.4304 92.6922 26.68 92.6239C26.9295 92.5556 27.2245 92.5101 27.5194 92.5101C27.9731 92.5101 28.3588 92.5784 28.6991 92.7149C29.0394 92.8515 29.2889 93.0109 29.4477 93.2385C29.6066 93.4661 29.72 93.762 29.788 94.1263L28.8579 94.2628C28.8125 93.9669 28.6991 93.7393 28.4949 93.5799C28.2907 93.4206 27.9958 93.3295 27.6328 93.3295C27.2018 93.3295 26.8842 93.3978 26.68 93.5572C26.4985 93.6938 26.385 93.8759 26.385 94.0807C26.385 94.2173 26.4304 94.3084 26.4985 94.4222C26.5665 94.536 26.7027 94.6043 26.8615 94.6726C26.9522 94.7181 27.2471 94.7864 27.7009 94.923C28.3815 95.1051 28.8579 95.2644 29.1301 95.3783C29.4024 95.4921 29.6066 95.6742 29.7654 95.8791C29.9242 96.1067 29.9922 96.3799 29.9922 96.6985C29.9922 97.0172 29.9015 97.3132 29.72 97.6091C29.5385 97.8822 29.2663 98.1099 28.9033 98.2692C28.563 98.4286 28.1546 98.4969 27.7009 98.4969C26.9522 98.4969 26.4077 98.3375 26.0221 98.0416C25.591 97.7001 25.3641 97.2449 25.2507 96.6302ZM33.191 97.4725L33.3272 98.3148C33.0549 98.3603 32.8054 98.4058 32.6012 98.4058C32.2609 98.4058 31.9887 98.3603 31.7845 98.2465C31.603 98.1326 31.4669 97.9961 31.3761 97.814C31.3081 97.6318 31.2627 97.2449 31.2627 96.6758V93.3978H30.5594V92.6466H31.2627V91.2353L32.2155 90.6662V92.6466H33.191V93.3978H32.2155V96.7213C32.2155 96.9945 32.2382 97.1766 32.2609 97.2449C32.3063 97.3132 32.3516 97.3814 32.4197 97.427C32.4878 97.4725 32.6012 97.4953 32.7373 97.4953C32.8734 97.518 33.0096 97.4953 33.191 97.4725ZM34.1212 98.3375V92.6466H34.9833V93.5117C35.2102 93.1019 35.4143 92.8515 35.5958 92.7149C35.7773 92.5784 35.9815 92.5101 36.2084 92.5101C36.526 92.5101 36.8663 92.6239 37.2066 92.8288L36.8663 93.7165C36.6394 93.5799 36.3899 93.5117 36.163 93.5117C35.9588 93.5117 35.7546 93.5799 35.5958 93.6938C35.437 93.8303 35.3009 93.9897 35.2328 94.2173C35.1194 94.5588 35.074 94.923 35.074 95.3327V98.3148H34.1212V98.3375ZM37.7738 91.5995V90.4841H38.7266V91.5995H37.7738ZM37.7738 98.3375V92.6466H38.7266V98.3375H37.7738ZM39.8156 96.6302L40.7684 96.4709C40.8138 96.8579 40.9726 97.1538 41.2221 97.3587C41.4717 97.5636 41.812 97.6546 42.243 97.6546C42.6741 97.6546 43.0144 97.5636 43.2186 97.3814C43.4227 97.1993 43.5362 96.9945 43.5362 96.7441C43.5362 96.5164 43.4454 96.3571 43.2412 96.2205C43.1051 96.1295 42.7875 96.0156 42.2657 95.9018C41.5624 95.7197 41.0633 95.5604 40.7911 95.4466C40.5188 95.31 40.3147 95.1279 40.1785 94.9002C40.0424 94.6726 39.9744 94.4222 39.9744 94.149C39.9744 93.8986 40.0424 93.671 40.1559 93.4434C40.2693 93.2157 40.4281 93.0564 40.6323 92.897C40.7911 92.7832 40.9953 92.6922 41.2448 92.6239C41.4944 92.5556 41.7893 92.5101 42.0842 92.5101C42.538 92.5101 42.9236 92.5784 43.2639 92.7149C43.6042 92.8515 43.8538 93.0109 44.0126 93.2385C44.1714 93.4661 44.2848 93.762 44.3529 94.1263L43.4227 94.2628C43.3774 93.9669 43.2639 93.7393 43.0598 93.5799C42.8556 93.4206 42.5606 93.3295 42.1977 93.3295C41.7666 93.3295 41.449 93.3978 41.2448 93.5572C41.0633 93.6938 40.9499 93.8759 40.9499 94.0807C40.9499 94.2173 40.9953 94.3084 41.0633 94.4222C41.1314 94.536 41.2675 94.6043 41.4263 94.6726C41.5171 94.7181 41.812 94.7864 42.2657 94.923C42.9463 95.1051 43.4227 95.2644 43.695 95.3783C43.9672 95.4921 44.1714 95.6742 44.3302 95.8791C44.489 96.1067 44.5571 96.3799 44.5571 96.6985C44.5571 97.0172 44.4663 97.3132 44.2848 97.6091C44.1033 97.8822 43.8311 98.1099 43.4681 98.2692C43.1051 98.4286 42.7195 98.4969 42.2657 98.4969C41.5171 98.4969 40.9726 98.3375 40.5869 98.0416C40.1559 97.7001 39.929 97.2449 39.8156 96.6302ZM45.6687 91.5995V90.4841H46.6216V91.5995H45.6687ZM45.6687 98.3375V92.6466H46.6216V98.3375H45.6687ZM50.8867 95.8108L51.8622 95.7197C51.9076 96.1067 52.021 96.4254 52.1798 96.6758C52.3386 96.9262 52.6108 97.1311 52.9738 97.2904C53.3368 97.4497 53.7225 97.518 54.1762 97.518C54.5619 97.518 54.9249 97.4497 55.2198 97.3359C55.5147 97.2221 55.7416 97.0628 55.9004 96.8579C56.0592 96.653 56.1273 96.4254 56.1273 96.175C56.1273 95.9246 56.0592 95.7197 55.9231 95.5376C55.787 95.3555 55.5374 95.1962 55.2198 95.0823C55.0156 94.9913 54.5392 94.8775 53.8359 94.6954C53.1099 94.5132 52.6108 94.3539 52.3159 94.1946C51.9529 93.9897 51.658 93.7621 51.4765 93.4661C51.295 93.1702 51.2043 92.8515 51.2043 92.4873C51.2043 92.1003 51.3177 91.7133 51.5446 91.3719C51.7714 91.0304 52.089 90.7573 52.5201 90.5752C52.9511 90.3931 53.4276 90.302 53.9494 90.302C54.5392 90.302 55.0383 90.3931 55.4921 90.5752C55.9458 90.7573 56.2861 91.0304 56.513 91.3946C56.7398 91.7589 56.8759 92.1686 56.8986 92.6239L55.9004 92.6922C55.855 92.1914 55.6735 91.8272 55.3559 91.5768C55.0383 91.3264 54.5846 91.1898 53.9947 91.1898C53.3595 91.1898 52.9058 91.3036 52.6335 91.5312C52.3386 91.7589 52.2025 92.032 52.2025 92.3735C52.2025 92.6466 52.2932 92.897 52.4974 93.0792C52.7016 93.2613 53.2234 93.4434 54.0628 93.6482C54.9022 93.8303 55.4921 94.0124 55.787 94.149C56.2407 94.3539 56.581 94.6271 56.7852 94.9458C57.0121 95.2644 57.1028 95.6514 57.1028 96.0612C57.1028 96.4709 56.9894 96.8807 56.7398 97.2449C56.4903 97.6091 56.15 97.905 55.7189 98.1099C55.2652 98.3147 54.7661 98.4058 54.2216 98.4058C53.5183 98.4058 52.9285 98.3148 52.452 98.0871C51.9756 97.8822 51.5899 97.5636 51.3177 97.1538C51.0455 96.8124 50.9093 96.3343 50.8867 95.8108ZM62.1166 97.6318C61.7536 97.9278 61.4133 98.1554 61.0957 98.2692C60.7554 98.383 60.4151 98.4513 60.0294 98.4513C59.4168 98.4513 58.9404 98.292 58.6001 97.9961C58.2598 97.7001 58.101 97.2904 58.101 96.8351C58.101 96.562 58.1691 96.3116 58.2825 96.0612C58.4186 95.8335 58.5774 95.6514 58.7816 95.5148C58.9858 95.3783 59.2127 95.2644 59.4849 95.1962C59.6664 95.1506 59.9613 95.1051 60.347 95.0596C61.1183 94.9685 61.6855 94.8547 62.0712 94.7181C62.0712 94.5815 62.0712 94.5132 62.0712 94.4677C62.0712 94.0807 61.9804 93.8076 61.7989 93.6482C61.5494 93.4206 61.1864 93.3295 60.71 93.3295C60.2563 93.3295 59.916 93.3978 59.7118 93.5572C59.5076 93.7165 59.3488 93.9897 59.2354 94.3994L58.3052 94.2628C58.3959 93.8531 58.5321 93.5344 58.7362 93.284C58.9404 93.0336 59.2127 92.8515 59.5757 92.7149C59.9386 92.5784 60.3697 92.5101 60.8688 92.5101C61.3452 92.5101 61.7536 92.5784 62.0485 92.6922C62.3434 92.806 62.5703 92.9426 62.7064 93.1247C62.8425 93.3068 62.956 93.5117 63.0013 93.7848C63.024 93.9442 63.0467 94.2401 63.0467 94.6726V95.9473C63.0467 96.8351 63.0694 97.4042 63.1148 97.6546C63.1601 97.8822 63.2282 98.1099 63.3643 98.3375H62.3661C62.2073 98.1326 62.1392 97.905 62.1166 97.6318ZM62.0258 95.4921C61.6855 95.6287 61.1637 95.7652 60.4604 95.8563C60.0748 95.9018 59.7798 95.9701 59.621 96.0384C59.4622 96.1067 59.3261 96.2205 59.2354 96.3571C59.1446 96.4937 59.0992 96.653 59.0992 96.8124C59.0992 97.0628 59.19 97.2904 59.3942 97.4497C59.5983 97.6091 59.8706 97.7001 60.2336 97.7001C60.5965 97.7001 60.9368 97.6091 61.2318 97.4497C61.5267 97.2904 61.7309 97.0628 61.867 96.7896C61.9804 96.562 62.0258 96.2433 62.0258 95.8335V95.4921ZM64.476 98.3375V92.6466H65.3381V93.4434C65.7464 92.8287 66.359 92.5101 67.1303 92.5101C67.4706 92.5101 67.7882 92.5784 68.0832 92.6922C68.3781 92.806 68.5823 92.9881 68.7184 93.1702C68.8545 93.3751 68.9679 93.6027 69.0133 93.8759C69.0587 94.058 69.0587 94.3767 69.0587 94.8092V98.3148H68.1058V94.8547C68.1058 94.4677 68.0605 94.1718 67.9924 93.9669C67.9243 93.7621 67.7882 93.6255 67.584 93.5117C67.4025 93.3978 67.1757 93.3295 66.9034 93.3295C66.4951 93.3295 66.1321 93.4661 65.8372 93.7165C65.5423 93.9669 65.3834 94.4677 65.3834 95.1962V98.292H64.476V98.3375ZM70.8282 98.3375V97.2449H71.9172V98.3375H70.8282ZM78.2014 98.3375L76.0462 92.6466H77.0671L78.2922 96.0612C78.4283 96.4254 78.5417 96.8124 78.6551 97.1993C78.7459 96.9034 78.8593 96.5392 79.0181 96.1067L80.2886 92.6466H81.2868L79.1316 98.3375H78.2014ZM85.9829 96.5164L86.9811 96.6302C86.8223 97.2221 86.5274 97.6546 86.1191 97.9961C85.688 98.3147 85.1435 98.4741 84.4856 98.4741C83.6462 98.4741 83.011 98.2237 82.5119 97.7001C82.0355 97.1993 81.7859 96.4709 81.7859 95.5376C81.7859 94.5815 82.0355 93.8303 82.5119 93.3068C83.011 92.7832 83.6462 92.5101 84.4176 92.5101C85.1662 92.5101 85.8015 92.7605 86.2779 93.284C86.7543 93.8076 87.0038 94.536 87.0038 95.4693C87.0038 95.5376 87.0038 95.6059 87.0038 95.7197H82.7841C82.8295 96.3343 82.9883 96.8124 83.3059 97.1538C83.6235 97.4953 84.0092 97.6546 84.4856 97.6546C84.8259 97.6546 85.1435 97.5636 85.3931 97.3814C85.6199 97.1993 85.8241 96.9034 85.9829 96.5164ZM82.8295 94.9458H85.9829C85.9376 94.4677 85.8241 94.1035 85.6199 93.8759C85.325 93.5117 84.9167 93.3295 84.4402 93.3295C84.0092 93.3295 83.6235 93.4889 83.3286 93.7848C83.011 94.058 82.8522 94.445 82.8295 94.9458ZM93.1292 98.3375V91.4174H90.543V90.4841H96.7364V91.4174H94.1501V98.3375H93.1292ZM97.2809 91.5995V90.4841H98.2337V91.5995H97.2809ZM97.2809 98.3375V92.6466H98.2337V98.3375H97.2809ZM103.406 96.2433L104.359 96.3571C104.268 97.0172 103.996 97.518 103.565 97.8822C103.134 98.2465 102.612 98.4286 102 98.4286C101.228 98.4286 100.593 98.1782 100.139 97.6774C99.663 97.1766 99.4361 96.4481 99.4361 95.4921C99.4361 94.8775 99.5269 94.3311 99.7311 93.8759C99.9352 93.4206 100.253 93.0791 100.661 92.8288C101.07 92.6011 101.523 92.4873 102.022 92.4873C102.635 92.4873 103.134 92.6466 103.542 92.9653C103.928 93.284 104.178 93.7165 104.291 94.2856L103.361 94.4222C103.27 94.0352 103.111 93.762 102.885 93.5572C102.658 93.3751 102.385 93.2613 102.068 93.2613C101.591 93.2613 101.183 93.4434 100.888 93.7848C100.593 94.1263 100.434 94.6726 100.434 95.4238C100.434 96.1977 100.57 96.7441 100.865 97.0855C101.16 97.427 101.546 97.6091 102 97.6091C102.385 97.6091 102.68 97.4953 102.953 97.2676C103.179 97.0855 103.338 96.7441 103.406 96.2433ZM105.448 98.3375V97.2449H106.537V98.3375H105.448ZM107.467 98.3375L110.462 90.4841H111.574L114.772 98.3375H113.593L112.685 95.9701H109.418L108.556 98.3375H107.467ZM109.713 95.1051H112.368L111.551 92.9426C111.301 92.2824 111.12 91.7361 111.006 91.3036C110.916 91.8044 110.757 92.3052 110.575 92.806L109.713 95.1051ZM115.771 98.3375V97.2449H116.86V98.3375H115.771ZM118.289 95.8108L119.264 95.7197C119.31 96.1067 119.423 96.4254 119.582 96.6758C119.741 96.9262 120.013 97.1311 120.376 97.2904C120.739 97.4497 121.125 97.518 121.578 97.518C121.964 97.518 122.327 97.4497 122.622 97.3359C122.917 97.2221 123.144 97.0628 123.303 96.8579C123.461 96.653 123.529 96.4254 123.529 96.175C123.529 95.9246 123.461 95.7197 123.325 95.5376C123.189 95.3555 122.94 95.1962 122.622 95.0823C122.418 94.9913 121.941 94.8775 121.238 94.6954C120.512 94.5132 120.013 94.3539 119.718 94.1946C119.355 93.9897 119.06 93.7621 118.879 93.4661C118.697 93.1702 118.606 92.8515 118.606 92.4873C118.606 92.1003 118.72 91.7133 118.947 91.3719C119.174 91.0304 119.491 90.7573 119.922 90.5752C120.353 90.3931 120.83 90.302 121.351 90.302C121.941 90.302 122.44 90.3931 122.894 90.5752C123.348 90.7573 123.688 91.0304 123.915 91.3946C124.142 91.7589 124.278 92.1686 124.301 92.6239L123.303 92.6922C123.257 92.1914 123.076 91.8272 122.758 91.5768C122.44 91.3264 121.987 91.1898 121.397 91.1898C120.762 91.1898 120.308 91.3036 120.036 91.5312C119.741 91.7589 119.605 92.032 119.605 92.3735C119.605 92.6466 119.695 92.897 119.9 93.0792C120.104 93.2613 120.625 93.4434 121.465 93.6482C122.304 93.8303 122.894 94.0124 123.189 94.149C123.643 94.3539 123.983 94.6271 124.187 94.9458C124.414 95.2644 124.505 95.6514 124.505 96.0612C124.505 96.4709 124.391 96.8807 124.142 97.2449C123.892 97.6091 123.552 97.905 123.121 98.1099C122.667 98.3147 122.168 98.4058 121.624 98.4058C120.92 98.4058 120.331 98.3148 119.854 98.0871C119.378 97.8822 118.992 97.5636 118.72 97.1538C118.448 96.8124 118.311 96.3343 118.289 95.8108ZM120.762 99.1115L121.034 98.1554H121.76L121.578 98.7245C121.873 98.77 122.1 98.8611 122.259 98.9977C122.418 99.157 122.486 99.3163 122.486 99.4985C122.486 99.7716 122.35 99.9992 122.1 100.204C121.851 100.409 121.465 100.5 120.943 100.5C120.648 100.5 120.399 100.477 120.172 100.432L120.24 99.7944C120.467 99.8171 120.625 99.8171 120.739 99.8171C121.079 99.8171 121.306 99.7716 121.442 99.6806C121.533 99.6123 121.601 99.5212 121.601 99.4074C121.601 99.3391 121.578 99.2936 121.533 99.2481C121.488 99.2025 121.42 99.157 121.306 99.1115C121.215 99.1342 121.011 99.1115 120.762 99.1115ZM126.093 98.3375V97.2449H127.182V98.3375H126.093Z" fill="#575756"/>
<path fill-rule="evenodd" clip-rule="evenodd" d="M22.0059 5.71277C24.5468 6.35015 27.133 7.01029 29.7874 7.67043V54.6315C27.2011 55.064 24.5921 55.4738 22.0059 55.8607V5.71277Z" fill="#E30613"/>
<path fill-rule="evenodd" clip-rule="evenodd" d="M31.9414 2.77637C35.0949 3.57309 38.2937 4.39258 41.6059 5.21206V57.2266C38.3844 57.773 35.1629 58.2965 31.9414 58.7746V2.77637Z" fill="#9C1006"/>
<path fill-rule="evenodd" clip-rule="evenodd" d="M43.7637 0.5C58.8276 5.50797 81.9454 12.8378 102.613 12.7923V52.378C84.2594 51.4675 61.4366 56.0202 43.7637 61.0509V0.5Z" fill="url(#paint0_linear_1127_30223)"/>
</g>
<defs>
<linearGradient id="paint0_linear_1127_30223" x1="43.766" y1="30.7731" x2="102.616" y2="30.7731" gradientUnits="userSpaceOnUse">
<stop stop-color="#575756"/>
<stop offset="1" stop-color="#B2B2B2"/>
</linearGradient>
<clipPath id="clip0_1127_30223">
<rect width="127" height="100" fill="white" transform="translate(0.25 0.5)"/>
</clipPath>
</defs>
</svg>
