<svg width="262" height="101" viewBox="0 0 262 101" fill="none" xmlns="http://www.w3.org/2000/svg">
<g clip-path="url(#clip0_1127_30304)">
<path d="M261.295 17.28H-4.12891V65.988H261.295V17.28Z" fill="#E5001F"/>
<path d="M261.295 65.988H-4.12891V85.568H261.295V65.988Z" fill="#231815"/>
<path fill-rule="evenodd" clip-rule="evenodd" d="M73.4641 75.8C73.4641 76.504 73.3756 77.1199 73.1986 77.6919C73.0217 78.2639 72.7563 78.748 72.4024 79.144C72.0485 79.54 71.6503 79.8479 71.208 80.1119C70.7656 80.3319 70.2347 80.464 69.6597 80.464C68.421 80.464 67.5363 80.024 66.9612 79.144V80.244H64.7051V68.408H67.0497V72.72C67.669 71.884 68.598 71.444 69.7924 71.444C70.3232 71.444 70.8541 71.5319 71.2964 71.7519C71.7388 71.9719 72.1369 72.28 72.4466 72.676C72.7563 73.072 73.0217 73.556 73.1986 74.084C73.3756 74.524 73.4641 75.14 73.4641 75.8ZM71.0752 75.8C71.0752 75.008 70.8983 74.348 70.5002 73.864C70.1463 73.424 69.6154 73.16 68.9961 73.16C68.3325 73.16 67.8459 73.424 67.492 73.864C67.1381 74.348 66.9612 75.008 66.9612 75.8C66.9612 76.636 67.1381 77.2959 67.5363 77.7359C67.9344 78.2199 68.421 78.44 69.0846 78.44C69.7039 78.44 70.1905 78.2199 70.5886 77.7359C70.8983 77.2519 71.0752 76.636 71.0752 75.8Z" fill="white"/>
<path fill-rule="evenodd" clip-rule="evenodd" d="M81.2924 80.156V78.924C80.9385 79.408 80.5404 79.804 80.0538 80.024C79.6114 80.244 79.0363 80.376 78.417 80.376C77.7977 80.376 77.2669 80.244 76.8245 80.024C76.3821 79.804 76.0282 79.452 75.807 79.012C75.6743 78.748 75.5858 78.484 75.5416 78.176C75.4974 77.868 75.4531 77.472 75.4531 76.988V71.532H77.7977V76.24C77.7977 76.68 77.8419 77.032 77.8862 77.296C77.9304 77.56 78.0189 77.824 78.1074 77.956C78.2401 78.132 78.3728 78.264 78.5497 78.308C78.7267 78.396 78.9921 78.396 79.2575 78.396C79.9211 78.396 80.4077 78.176 80.7174 77.78C81.027 77.384 81.1597 76.68 81.1597 75.756V71.488H83.5043V80.068H81.2924V80.156Z" fill="white"/>
<path fill-rule="evenodd" clip-rule="evenodd" d="M85.8496 68.3201H88.1942V70.3441H85.8496V68.3201ZM85.8496 71.5761H88.1942V80.1561H85.8496V71.5761Z" fill="white"/>
<path d="M92.9266 68.3201H90.582V80.1561H92.9266V68.3201Z" fill="white"/>
<path fill-rule="evenodd" clip-rule="evenodd" d="M101.554 80.1561V79.0561C100.979 79.9361 100.094 80.3761 98.9437 80.3761C98.3686 80.3761 97.7935 80.2881 97.3511 80.0681C96.8645 79.8481 96.4664 79.5401 96.1125 79.1441C95.7586 78.7481 95.5374 78.2641 95.3162 77.6921C95.1393 77.1201 95.0508 76.5041 95.0508 75.8001C95.0508 75.1401 95.1393 74.5241 95.3162 73.9521C95.4932 73.3801 95.7586 72.9401 96.0682 72.5441C96.4221 72.1481 96.8203 71.8401 97.2626 71.6201C97.705 71.4001 98.2359 71.3121 98.811 71.3121C99.386 71.3121 99.9169 71.4001 100.359 71.6201C100.802 71.8401 101.2 72.1481 101.465 72.5881V68.2761H103.81V80.1121H101.554V80.1561ZM101.509 75.8441C101.509 75.0081 101.332 74.3481 100.979 73.9081C100.625 73.4241 100.138 73.2041 99.4745 73.2041C98.8552 73.2041 98.3243 73.4241 97.9704 73.9081C97.6165 74.3921 97.4396 75.0081 97.4396 75.8441C97.4396 76.6801 97.6165 77.3401 97.9704 77.8241C98.3243 78.3081 98.8552 78.5281 99.4745 78.5281C100.138 78.5281 100.625 78.3081 101.023 77.8241C101.332 77.3401 101.509 76.6801 101.509 75.8441Z" fill="white"/>
<path fill-rule="evenodd" clip-rule="evenodd" d="M106.066 68.3198H108.411V70.3438H106.066V68.3198ZM106.066 71.5758H108.411V80.1558H106.066V71.5758Z" fill="white"/>
<path fill-rule="evenodd" clip-rule="evenodd" d="M116.461 80.156V75.228C116.461 74.48 116.373 73.996 116.152 73.688C115.93 73.38 115.532 73.248 115.001 73.248C114.338 73.248 113.851 73.468 113.586 73.864C113.276 74.26 113.143 74.876 113.143 75.756V80.2H110.799V71.62H113.055V72.808C113.453 72.324 113.851 71.928 114.294 71.708C114.736 71.488 115.267 71.356 115.93 71.356C116.461 71.356 116.992 71.444 117.39 71.664C117.833 71.884 118.186 72.148 118.408 72.5C118.496 72.632 118.585 72.808 118.629 72.94C118.673 73.072 118.717 73.248 118.762 73.424C118.806 73.6 118.806 73.776 118.85 73.996C118.85 74.216 118.85 74.436 118.85 74.744V80.156H116.461Z" fill="white"/>
<path fill-rule="evenodd" clip-rule="evenodd" d="M129.334 79.0999C129.334 79.7599 129.29 80.2879 129.201 80.6839C129.113 81.0799 128.98 81.4319 128.759 81.7839C128.051 82.8399 126.857 83.3679 125.043 83.3679C122.566 83.3679 121.239 82.4879 121.017 80.6839H123.406C123.495 81.0799 123.672 81.3439 123.937 81.5199C124.202 81.6959 124.601 81.7839 125.087 81.7839C125.795 81.7839 126.326 81.6079 126.591 81.2999C126.901 80.9919 127.034 80.3759 127.034 79.5839V78.6159C126.459 79.4959 125.574 79.9359 124.424 79.9359C123.849 79.9359 123.362 79.8479 122.92 79.6279C122.477 79.4079 122.079 79.1439 121.769 78.7919C121.46 78.4399 121.194 77.9999 121.017 77.4719C120.84 76.9439 120.752 76.3719 120.752 75.7119C120.752 75.0519 120.84 74.4799 121.017 73.9519C121.194 73.4239 121.46 72.9399 121.769 72.5879C122.079 72.1919 122.521 71.9279 122.964 71.7079C123.406 71.4879 123.937 71.3999 124.512 71.3999C125.131 71.3999 125.618 71.4879 126.016 71.7079C126.414 71.9279 126.768 72.2799 127.122 72.7639V71.6199H129.378V79.0999H129.334ZM127.078 75.6679C127.078 74.8759 126.901 74.2599 126.547 73.8639C126.193 73.4239 125.707 73.2039 125.043 73.2039C124.424 73.2039 123.937 73.4239 123.627 73.8639C123.273 74.3039 123.097 74.9199 123.097 75.6679C123.097 76.4599 123.273 77.0759 123.627 77.5159C123.981 77.9559 124.468 78.1759 125.087 78.1759C125.707 78.1759 126.193 77.9559 126.547 77.5159C126.901 77.0319 127.078 76.4159 127.078 75.6679Z" fill="white"/>
<path fill-rule="evenodd" clip-rule="evenodd" d="M142.783 83.192V79.1C142.429 79.54 142.075 79.892 141.633 80.068C141.19 80.288 140.704 80.376 140.084 80.376C139.509 80.376 138.978 80.288 138.536 80.068C138.094 79.848 137.696 79.54 137.342 79.188C137.032 78.792 136.767 78.308 136.59 77.78C136.413 77.252 136.324 76.636 136.324 75.932C136.324 75.228 136.413 74.612 136.59 74.04C136.767 73.468 137.032 72.984 137.386 72.588C137.74 72.192 138.138 71.884 138.58 71.664C139.067 71.444 139.598 71.356 140.173 71.356C141.367 71.356 142.252 71.796 142.827 72.632V71.576H145.083V83.192H142.783ZM142.871 75.888C142.871 75.052 142.694 74.392 142.296 73.952C141.942 73.512 141.412 73.292 140.748 73.292C140.129 73.292 139.598 73.512 139.244 73.996C138.89 74.48 138.713 75.14 138.713 75.976C138.713 76.812 138.89 77.428 139.244 77.912C139.598 78.396 140.129 78.616 140.748 78.616C141.412 78.616 141.942 78.396 142.296 77.912C142.694 77.384 142.871 76.724 142.871 75.888Z" fill="white"/>
<path fill-rule="evenodd" clip-rule="evenodd" d="M153.222 80.156V78.924C152.868 79.408 152.47 79.804 151.983 80.024C151.541 80.244 150.966 80.376 150.347 80.376C149.727 80.376 149.197 80.244 148.754 80.024C148.312 79.804 147.958 79.452 147.737 79.012C147.604 78.748 147.516 78.484 147.471 78.176C147.427 77.868 147.383 77.472 147.383 76.988V71.532H149.727V76.24C149.727 76.68 149.727 77.032 149.816 77.296C149.904 77.56 149.949 77.824 150.037 77.956C150.126 78.132 150.302 78.264 150.479 78.308C150.656 78.396 150.922 78.396 151.187 78.396C151.851 78.396 152.337 78.176 152.647 77.78C152.957 77.384 153.089 76.68 153.089 75.756V71.488H155.434V80.068H153.222V80.156Z" fill="white"/>
<path fill-rule="evenodd" clip-rule="evenodd" d="M163.353 80.1558C163.265 79.9358 163.221 79.8038 163.221 79.7158C163.221 79.6278 163.177 79.4958 163.177 79.3638C162.469 80.0678 161.496 80.4198 160.301 80.4198C159.328 80.4198 158.62 80.1998 158.089 79.7598C157.558 79.3198 157.293 78.6599 157.293 77.8679C157.293 77.2519 157.47 76.7678 157.78 76.3718C158.089 75.9758 158.576 75.6678 159.195 75.4918C159.328 75.4478 159.461 75.4038 159.549 75.4038C159.638 75.4038 159.77 75.3598 159.903 75.3158C160.036 75.2718 160.168 75.2719 160.345 75.2279C160.522 75.1839 160.743 75.1838 161.009 75.1398C161.496 75.0958 161.849 75.0078 162.115 74.9638C162.38 74.9198 162.601 74.8319 162.734 74.7879C162.867 74.6999 163 74.6118 163 74.5238C163.044 74.4358 163.044 74.3039 163.044 74.1279C163.044 73.3799 162.513 72.9838 161.496 72.9838C160.965 72.9838 160.522 73.0718 160.301 73.2918C160.036 73.4678 159.859 73.8198 159.814 74.3038H157.558C157.691 72.3678 159.018 71.4438 161.584 71.4438C162.955 71.4438 163.973 71.7078 164.636 72.2798C164.769 72.4118 164.902 72.4998 165.034 72.6318C165.123 72.7638 165.211 72.8958 165.256 73.0718C165.3 73.2478 165.344 73.4238 165.388 73.6438C165.433 73.8638 165.433 74.1278 165.433 74.4358V74.6558V74.8758V76.1079V77.2518V77.9118C165.433 78.2198 165.433 78.4838 165.433 78.7038C165.433 78.9238 165.477 79.1438 165.477 79.3198C165.477 79.4958 165.521 79.6278 165.565 79.8038C165.61 79.9358 165.654 80.0678 165.698 80.2438H163.353V80.1558ZM163.132 75.9758C163.044 76.0198 162.911 76.0639 162.823 76.1079C162.734 76.1519 162.646 76.1958 162.513 76.1958C162.424 76.2398 162.248 76.2398 162.115 76.2838C161.938 76.3278 161.717 76.3718 161.451 76.3718C160.788 76.4598 160.301 76.5918 160.08 76.8118C159.814 76.9878 159.682 77.2959 159.682 77.6479C159.682 77.9999 159.814 78.3079 160.036 78.5279C160.257 78.7479 160.611 78.8358 161.009 78.8358C161.672 78.8358 162.159 78.6599 162.513 78.3079C162.867 77.9559 163.044 77.5158 163.044 76.8998V75.9758H163.132Z" fill="white"/>
<path d="M170.165 68.3201H167.82V80.1561H170.165V68.3201Z" fill="white"/>
<path fill-rule="evenodd" clip-rule="evenodd" d="M172.6 68.3201H174.944V70.3441H172.6V68.3201ZM172.6 71.5761H174.944V80.1561H172.6V71.5761Z" fill="white"/>
<path fill-rule="evenodd" clip-rule="evenodd" d="M182.287 80.2C181.978 80.244 181.712 80.244 181.535 80.288C181.358 80.288 181.137 80.288 180.872 80.288C180.164 80.288 179.589 80.2 179.235 80.024C178.837 79.848 178.572 79.584 178.439 79.144C178.395 79.012 178.395 78.924 178.35 78.836C178.306 78.748 178.306 78.616 178.306 78.484C178.306 78.352 178.306 78.176 178.262 77.956C178.262 77.736 178.262 77.472 178.262 77.164V73.204H176.758V71.62H178.173V68.98H180.518V71.576H182.287V73.16H180.518V77.208C180.518 77.472 180.518 77.692 180.562 77.868C180.606 78.044 180.651 78.176 180.695 78.264C180.783 78.352 180.872 78.396 181.005 78.44C181.137 78.484 181.314 78.484 181.535 78.484C181.712 78.484 181.978 78.484 182.243 78.44V80.2H182.287Z" fill="white"/>
<path fill-rule="evenodd" clip-rule="evenodd" d="M189.41 80.1121C189.233 80.5961 189.056 80.9921 188.923 81.3001C188.79 81.6081 188.658 81.8721 188.525 82.0921C188.392 82.3121 188.215 82.4881 188.083 82.6201C187.906 82.7521 187.773 82.8401 187.552 82.9721C187.419 83.0161 187.331 83.0601 187.242 83.1041C187.154 83.1481 187.021 83.1481 186.888 83.1921C186.755 83.1921 186.579 83.1921 186.402 83.2361C186.225 83.2361 185.959 83.2361 185.65 83.2361H185.473H184.499V81.3001H184.765H185.428C185.915 81.3001 186.269 81.2121 186.49 81.0361C186.711 80.8601 186.8 80.5961 186.8 80.2001V79.9361L186.755 79.7161L183.703 71.6201H186.269L187.684 75.8441C187.773 76.1081 187.861 76.3721 187.906 76.6361C187.994 76.9441 188.083 77.3401 188.215 77.8241C188.304 77.5601 188.348 77.2961 188.392 77.1201C188.437 76.9001 188.481 76.7241 188.569 76.5921C188.613 76.4161 188.658 76.2841 188.702 76.1521C188.746 76.0201 188.79 75.8881 188.835 75.7561L190.162 71.6641H192.595L189.41 80.1121Z" fill="white"/>
<path fill-rule="evenodd" clip-rule="evenodd" d="M44.177 42.36C39.8859 41.612 40.638 38.884 44.3539 39.016C48.1141 39.104 51.0337 39.5 54.7939 41.084V35.848C54.7939 35.848 45.3271 32.988 38.2934 34.044C31.2154 35.1 23.4297 37.916 28.7381 43.504C30.1537 44.912 36.0373 46.364 39.3551 47.288C42.6729 48.212 43.6019 50.324 40.1956 50.808C36.7893 51.248 31.3924 50.764 26.8359 48.212V54.064C26.8359 54.064 46.7427 60.136 55.5459 52.26C58.6868 49.048 55.3248 43.944 44.177 42.36Z" fill="white"/>
<path fill-rule="evenodd" clip-rule="evenodd" d="M12.5916 32.548C15.5997 32.548 18.0328 31.316 18.0328 29.732C18.0328 28.148 15.5997 26.916 12.5916 26.916C9.58344 26.916 7.15039 28.192 7.15039 29.732C7.15039 31.272 9.58344 32.548 12.5916 32.548Z" fill="white"/>
<path fill-rule="evenodd" clip-rule="evenodd" d="M100.537 37.5641C96.6886 35.0561 91.0262 33.8241 83.5059 33.8241C76.9145 33.8241 71.7387 34.8801 67.8459 36.9921C63.9972 39.1041 62.0508 41.7881 62.0508 45.0441C62.0508 48.5641 64.3069 51.3801 68.9076 53.5801C72.6235 55.3401 77.4896 56.2201 83.5501 56.2201C90.3184 56.2201 95.5826 55.1641 99.4313 53.0521C103.28 50.9401 105.182 48.2561 105.182 44.9561C105.138 42.0081 103.59 39.5441 100.537 37.5641ZM88.8143 48.4761C87.443 49.2241 85.7177 49.5761 83.5501 49.5761C81.471 49.5761 79.7015 49.2241 78.3301 48.4761C76.9587 47.7281 76.2509 46.5841 76.2509 45.0441C76.2509 43.5481 76.9587 42.4041 78.3743 41.6561C79.7899 40.9081 81.5594 40.5561 83.7271 40.5561C85.762 40.5561 87.443 40.9081 88.8586 41.6561C90.2299 42.4041 90.9377 43.5041 90.9377 45.0001C90.8935 46.5841 90.2299 47.7721 88.8143 48.4761Z" fill="white"/>
<path d="M19.4492 33.868H5.69141V56.22H19.4492V33.868Z" fill="white"/>
<path fill-rule="evenodd" clip-rule="evenodd" d="M251.342 47.332C250.06 47.684 244.264 49.18 243.557 49.268C239.885 49.708 238.558 47.156 238.558 46.276V38.884H250.502V33.912H238.558V27.048H235.152L216.926 36.552V38.884H223.473L223.517 50.368C223.517 52.7 229.932 56.352 237.54 56.352C240.681 56.352 248.555 55.032 251.387 53.492L251.342 47.332Z" fill="white"/>
<path fill-rule="evenodd" clip-rule="evenodd" d="M211.041 49.18C211.041 48.608 211.174 41.744 211.13 41.216C211.086 40.688 210.997 40.204 210.909 39.808C210.82 39.412 210.643 39.016 210.422 38.708C210.201 38.4 209.98 38.048 209.67 37.74C208.829 36.86 204.538 34.044 196.753 33.868C189.321 33.736 181.225 34.924 176.802 37.96V44.032C176.934 43.152 188.79 38.796 194.275 40.204C195.337 40.468 197.726 40.908 197.682 42.976C196.841 43.988 190.913 44.604 187.949 45C185.693 45.308 175.651 46.496 175.563 51.512C175.519 53.624 178.483 56.088 185.826 56.396C191.311 56.616 198.655 55.692 199.805 54.24C202.061 57.232 213.076 56.308 213.076 56.308C213.386 55.956 215.509 51.512 215.465 50.896C215.377 50.852 211.041 51.424 211.041 49.18ZM197.726 51.996C193.877 54.02 187.02 54.108 186.711 51.38C186.401 48.608 190.648 48.036 192.285 47.772C193.966 47.508 197.814 46.672 197.814 46.672C197.416 46.98 197.726 51.996 197.726 51.996Z" fill="white"/>
<path fill-rule="evenodd" clip-rule="evenodd" d="M166.539 35.892C164.238 34.484 161.009 33.78 156.939 33.78C154.152 33.78 151.808 34.044 149.905 34.528C148.003 35.056 146.72 36.068 144.73 37.476C143.58 36.244 142.164 35.32 140.35 34.704C138.581 34.088 136.148 33.78 133.095 33.78C130.264 33.78 128.937 34.044 126.946 34.616C124.911 35.188 123.717 35.98 122.08 37.476V34.264H109.34V56.22H121.947C121.947 56.22 121.947 44.78 121.947 44.692C121.947 42.316 124.027 40.38 126.592 40.38C128.893 40.38 130.751 41.876 131.149 43.9V56.22H146.588V44.912V44.868V44.692C146.588 42.316 148.667 40.38 151.233 40.38C153.489 40.38 155.391 41.876 155.789 43.9V43.944V56.264H169.989V42.492C169.989 39.456 168.839 37.3 166.539 35.892Z" fill="white"/>
</g>
<defs>
<clipPath id="clip0_1127_30304">
<rect width="261" height="100" fill="white" transform="translate(0.25 0.5)"/>
</clipPath>
</defs>
</svg>
