<svg width="180" height="101" viewBox="0 0 180 101" fill="none" xmlns="http://www.w3.org/2000/svg">
<g clip-path="url(#clip0_1127_30351)">
<path d="M43.1173 6.38257H1.91406V95.3997H43.1173V6.38257Z" fill="#007DC5"/>
<path d="M133.728 6.38257H92.5273V95.3997H133.728V6.38257Z" fill="#007DC5"/>
<path d="M88.4328 6.38257H47.2324V95.3997H88.4328V6.38257Z" fill="#007DC5"/>
<path d="M179.044 6.38257H137.844V95.3997H179.044V6.38257Z" fill="#007DC5"/>
<path d="M39.7409 67.7238L26.4647 50.1478L38.8893 34.5116H28.1853L16.9319 49.0019V34.5116H7.84375V67.7238H16.9319V51.9894L28.6154 67.7238H39.7409Z" fill="white"/>
<path d="M119.852 34.5144V50.7366L103.172 34.5144H97.9727V67.7237H106.378V50.878L123.685 67.7237H128.283V34.5144H119.852Z" fill="white"/>
<path d="M67.8336 33.5562C58.0393 33.5562 50.1602 40.6079 50.1602 50.8897C50.1602 61.1714 58.0393 68.2318 67.8336 68.2318C77.628 68.2318 85.5071 61.1714 85.5071 50.8897C85.5071 40.6079 77.628 33.5562 67.8336 33.5562ZM76.419 50.8868C76.419 56.527 72.664 60.3921 67.8336 60.3921C62.9946 60.3921 59.2483 56.527 59.2483 50.8868C59.2483 45.2552 62.9946 41.3815 67.8336 41.3815C72.664 41.3815 76.419 45.2552 76.419 50.8868Z" fill="white"/>
<path d="M154.632 60.187V54.5555H169.39L169.396 47.446H154.632V41.8346H171.439V34.5144H145.648V67.7266H171.439V60.187H154.632Z" fill="white"/>
</g>
<defs>
<clipPath id="clip0_1127_30351">
<rect width="179" height="100" fill="white" transform="translate(0.75 0.5)"/>
</clipPath>
</defs>
</svg>
