<svg width="239" height="101" viewBox="0 0 239 101" fill="none" xmlns="http://www.w3.org/2000/svg">
<g clip-path="url(#clip0_1127_30231)">
<path fill-rule="evenodd" clip-rule="evenodd" d="M25.6156 83.0092H0.25L12.8721 60.9213H38.2378L25.6156 83.0092Z" fill="#DC2F34"/>
<path fill-rule="evenodd" clip-rule="evenodd" d="M50.8604 83.0092H76.226L63.6039 60.9213H38.2383L50.8604 83.0092Z" fill="#DC2F34"/>
<path fill-rule="evenodd" clip-rule="evenodd" d="M50.8595 38.7106L38.2374 16.5L25.6152 38.7106L38.2374 60.9212L50.8595 38.7106Z" fill="#DC2F34"/>
<path fill-rule="evenodd" clip-rule="evenodd" d="M87.6348 73.5604H97.8296V69.8791H87.6348V65.3388H99.0433V61.5348H87.6348H83.2656V65.3388V79.3278V83.0091H87.6348H99.286V79.3278H87.6348V73.5604Z" fill="black"/>
<path fill-rule="evenodd" clip-rule="evenodd" d="M87.2707 42.0238L91.8827 57.9762H92.004H95.7664H96.0091L100.5 42.0238V57.9762H104.505V36.5018H102.32H100.378H98.3151L93.9459 51.5952L89.4553 36.5018H87.3921H85.4502H83.2656V57.9762H87.2707V42.0238Z" fill="black"/>
<path fill-rule="evenodd" clip-rule="evenodd" d="M192.252 36.5018H188.004V57.9762H192.252V36.5018Z" fill="black"/>
<path fill-rule="evenodd" clip-rule="evenodd" d="M195.771 61.5348H191.523V83.0091H195.771V61.5348Z" fill="black"/>
<path fill-rule="evenodd" clip-rule="evenodd" d="M238.25 36.5018H234.002V57.9762H238.25V36.5018Z" fill="black"/>
<path fill-rule="evenodd" clip-rule="evenodd" d="M111.666 36.5018H107.418V57.9762H111.666V36.5018Z" fill="black"/>
<path fill-rule="evenodd" clip-rule="evenodd" d="M226.72 44.9689H218.224V36.5018H214.098V57.9762H218.224V48.6502H226.72V57.9762H230.968V36.5018H226.72V44.9689Z" fill="black"/>
<path fill-rule="evenodd" clip-rule="evenodd" d="M119.189 57.9762H123.559V40.3059H128.777V36.5018H123.559H119.189H113.971V40.3059H119.189V57.9762Z" fill="black"/>
<path fill-rule="evenodd" clip-rule="evenodd" d="M160.574 83.0091H164.943V65.3388H170.162V61.5348H164.943H160.574H155.477V65.3388H160.574V83.0091Z" fill="black"/>
<path fill-rule="evenodd" clip-rule="evenodd" d="M157.663 58.5897C163.125 58.5897 166.159 56.1355 166.159 51.3498V36.6245H161.911V51.7179C161.911 53.5586 160.333 55.1538 157.663 55.1538C154.508 55.1538 153.537 53.3132 153.537 51.7179V36.5018H149.289V51.2271C149.289 56.5037 152.566 58.5897 157.663 58.5897Z" fill="black"/>
<path fill-rule="evenodd" clip-rule="evenodd" d="M122.951 73.5604H133.146V69.8791H122.951V65.3388H134.359V61.5348H122.951H118.703V65.3388V79.3278V83.0091H122.951H134.724V79.3278H122.951V73.5604Z" fill="black"/>
<path fill-rule="evenodd" clip-rule="evenodd" d="M173.318 57.9762H179.387C183.392 57.9762 185.698 55.522 185.698 52.2088C185.698 49.5092 183.756 47.1777 181.571 46.5641C183.392 46.0733 184.97 44.1099 184.97 41.7784C184.97 38.5879 182.664 36.5018 178.294 36.5018H173.197H168.949V57.9762H173.318ZM178.173 54.7857H173.197V48.5275H178.173C179.994 48.5275 181.45 49.5092 181.45 51.5952C181.45 53.4359 179.994 54.7857 178.173 54.7857ZM178.537 39.9377C179.751 39.9377 180.965 41.0421 180.965 42.5147C180.965 43.7418 179.994 45.2143 178.294 45.2143H173.197V39.9377H178.537Z" fill="black"/>
<path fill-rule="evenodd" clip-rule="evenodd" d="M185.212 72.7015C187.033 72.0879 188.975 70.4927 188.975 67.5476C188.975 63.7436 186.426 61.5348 182.057 61.5348H176.717H172.469V83.0091H176.717V74.5421H180.358C182.542 74.5421 183.756 75.6465 184.12 77.2417C184.484 78.9597 184.363 81.4139 184.848 83.0091H189.217C188.853 81.4139 188.489 79.0824 188.489 77.3645C188.246 74.4194 186.79 73.315 185.212 72.7015ZM176.717 71.1062V65.2161H181.935C183.634 65.2161 184.848 66.4432 184.848 68.1612C184.848 69.3883 183.756 71.1062 182.057 71.1062H176.717Z" fill="black"/>
<path fill-rule="evenodd" clip-rule="evenodd" d="M106.203 61.5348H101.955V79.3278V83.0091H106.203H116.276V79.3278H106.203V61.5348Z" fill="black"/>
<path fill-rule="evenodd" clip-rule="evenodd" d="M137.151 48.8956C140.549 49.5092 142.613 50.1227 142.613 52.2088C142.613 53.5586 141.278 54.9084 138.365 54.9084C135.452 54.9084 133.996 53.3132 133.996 51.3498H129.869C129.869 55.0311 132.296 58.467 138.486 58.467C144.433 58.467 146.982 55.2766 146.982 51.7179C146.982 48.2821 144.797 46.196 140.914 45.4597C137.151 44.7234 134.602 44.6007 134.602 42.1465C134.602 40.5513 136.059 39.5696 138.365 39.5696C140.792 39.5696 142.249 40.7967 142.249 42.8828H146.375C146.375 39.4469 143.826 36.011 138.243 36.011C134.36 36.011 130.355 38.3425 130.355 42.5147C130.233 45.9505 132.782 48.1593 137.151 48.8956Z" fill="black"/>
<path fill-rule="evenodd" clip-rule="evenodd" d="M201.841 48.8956C205.239 49.5092 207.302 50.1227 207.302 52.2088C207.302 53.5586 205.967 54.9084 203.054 54.9084C200.141 54.9084 198.685 53.3132 198.685 51.3498H194.559C194.559 55.0311 196.986 58.467 203.176 58.467C209.123 58.467 211.671 55.2766 211.671 51.7179C211.671 48.2821 209.487 46.196 205.603 45.4597C201.841 44.7234 199.292 44.6007 199.292 42.1465C199.292 40.5513 200.748 39.5696 203.054 39.5696C205.482 39.5696 206.938 40.7967 206.938 42.8828H211.064C211.064 39.4469 208.516 36.011 202.933 36.011C199.049 36.011 195.044 38.3425 195.044 42.5147C194.923 45.9505 197.471 48.1593 201.841 48.8956Z" fill="black"/>
<path fill-rule="evenodd" clip-rule="evenodd" d="M145.526 79.696C142.128 79.696 140.065 76.2601 140.065 72.2106C140.065 68.1612 142.006 64.7253 145.526 64.7253C148.196 64.7253 149.531 66.3205 150.138 68.4066H154.629C153.9 64.2344 150.623 61.0439 145.526 61.0439C138.972 61.0439 135.695 66.0751 135.695 72.2106C135.695 78.3461 139.094 83.3773 145.526 83.3773C150.623 83.3773 154.022 80.4322 154.629 75.7692H150.138C149.531 78.1007 148.196 79.696 145.526 79.696Z" fill="black"/>
<path fill-rule="evenodd" clip-rule="evenodd" d="M207.909 79.696C204.511 79.696 202.447 76.2601 202.447 72.2106C202.447 68.1612 204.389 64.7253 207.909 64.7253C210.579 64.7253 211.914 66.3205 212.521 68.4066H217.011C216.283 64.2344 213.006 61.0439 207.909 61.0439C201.355 61.0439 198.078 66.0751 198.078 72.2106C198.078 78.3461 201.476 83.3773 207.909 83.3773C213.006 83.3773 216.404 80.4322 217.011 75.7692H212.521C211.914 78.1007 210.579 79.696 207.909 79.696Z" fill="black"/>
</g>
<defs>
<clipPath id="clip0_1127_30231">
<rect width="238" height="100" fill="white" transform="translate(0.25 0.5)"/>
</clipPath>
</defs>
</svg>
