<svg width="223" height="101" viewBox="0 0 223 101" fill="none" xmlns="http://www.w3.org/2000/svg">
<g clip-path="url(#clip0_1127_30373)">
<path d="M15.9367 18.1118C11.5473 20.3692 7.07965 22.7044 3.39576 26.5186C-0.0529851 30.0215 -0.993552 36.0152 1.12272 40.53C3.36432 44.939 6.27191 48.9816 9.74459 52.5174C7.42313 40.6833 9.63114 28.4147 15.9367 18.1118Z" fill="#37A58C"/>
<path d="M12.332 54.7749C16.643 57.4993 20.8755 60.068 25.8135 61.2356C31.2218 62.4811 36.3165 60.2237 39.5301 55.9425C42.0588 51.8584 44.0353 47.4616 45.4086 42.8652C36.2292 50.7332 24.4559 54.9723 12.332 54.7749Z" fill="#DD0661"/>
<path d="M44.5461 21.7704C43.5018 19.8784 42.0045 18.271 40.1864 17.0899C38.3683 15.9088 36.2854 15.1904 34.1215 14.9982C29.242 14.8101 24.3602 15.308 19.6211 16.4772C30.3592 19.9022 41.019 28.776 46.5056 38.9732C46.7408 33.0573 47.0543 26.7522 44.5461 21.7704Z" fill="#4F4F4F"/>
<path d="M138.368 38.9731V57.9663H132.881V38.9731H120.262V84.977H132.881V65.906H138.289V84.977H150.909V38.9731H138.368Z" fill="#010101"/>
<path d="M163.135 38.9731C159.138 38.9731 156.395 42.3981 156.395 46.5237V84.977H168.935V65.906H174.03V84.977H186.493V38.9731H163.135ZM174.03 57.9663H168.935V48.6254C168.935 46.9129 169.562 46.2902 171.13 46.2902H174.03V57.9663Z" fill="#010101"/>
<path d="M81.8561 61.7026C84.7561 61.3913 88.1265 58.3555 88.1265 54.3078V46.5237C88.0481 42.3203 84.9129 38.9731 81.6209 38.9731H57.7148V84.977H70.1774V65.906H73.3126C74.8018 65.906 75.5072 66.6066 75.5072 68.3191V85.0549H88.1265V69.2532C88.1265 65.1276 84.8345 62.014 81.8561 61.7026ZM75.5072 55.6311C75.5856 57.0322 74.9586 57.8106 73.9396 57.9663H70.2557V46.2902H73.391C74.9586 46.2902 75.5856 47.0686 75.5856 48.6254L75.5072 55.6311Z" fill="#010101"/>
<path d="M106.231 47.847H114.852V38.9731H93.6113V84.977H114.852V76.1032H106.231V65.906H113.52V57.9663H106.231V47.847Z" fill="#010101"/>
<path d="M221.372 80.3845C222.031 78.6187 222.324 76.7389 222.234 74.8578V39.051H209.928V74.5464C209.937 74.8996 209.871 75.2508 209.735 75.5769C209.598 75.9031 209.393 76.1969 209.134 76.4393C208.875 76.6817 208.568 76.8672 208.232 76.9836C207.896 77.1001 207.539 77.1449 207.185 77.1152H207.107C206.753 77.1388 206.399 77.0897 206.066 76.9711C205.733 76.8524 205.428 76.6666 205.17 76.4255C204.913 76.1843 204.708 75.893 204.569 75.5696C204.43 75.2463 204.36 74.8979 204.363 74.5464V39.051H192.058V74.8578C191.948 76.7398 192.242 78.6236 192.92 80.3845C193.425 81.4455 194.156 82.3849 195.063 83.1375C195.97 83.8902 197.03 84.4382 198.171 84.7435C199.281 84.9549 200.413 85.0333 201.542 84.9771H212.828C213.956 84.991 215.084 84.9129 216.199 84.7435C217.317 84.4095 218.353 83.85 219.243 83.0999C220.133 82.3499 220.858 81.4254 221.372 80.3845Z" fill="#010101"/>
</g>
<defs>
<clipPath id="clip0_1127_30373">
<rect width="222" height="100" fill="white" transform="translate(0.25 0.5)"/>
</clipPath>
</defs>
</svg>
