<svg width="275" height="101" viewBox="0 0 275 101" fill="none" xmlns="http://www.w3.org/2000/svg">
<g clip-path="url(#clip0_1127_30283)">
<path d="M62.6674 38.0219H73.4347C74.6419 38.0219 75.8818 38.1523 77.0891 38.3807C78.2963 38.6417 79.373 39.0658 80.3193 39.6856C81.2655 40.3054 82.0485 41.1536 82.6359 42.1975C83.2232 43.2414 83.5168 44.5463 83.5168 46.1448C83.5168 47.6781 83.1253 49.0156 82.3748 50.19C81.6244 51.3644 80.5477 52.2453 79.1446 52.8977L85.4745 63.0107H75.8166L71.0528 54.0395H70.7918V62.9454H62.6348V38.0219H62.6674ZM70.7592 48.5589H72.3906C72.6843 48.5589 72.9779 48.5263 73.3042 48.4937C73.6305 48.461 73.9568 48.3632 74.2504 48.2001C74.5441 48.037 74.7725 47.8412 75.0009 47.5802C75.1966 47.3193 75.2945 46.9604 75.2945 46.5037C75.2945 46.047 75.1966 45.7208 75.0335 45.4598C74.8703 45.1988 74.6746 45.0031 74.4135 44.8726C74.1525 44.7421 73.8915 44.6768 73.5652 44.6116C73.2716 44.579 72.9779 44.5463 72.7169 44.5463H70.7266V48.5589H70.7592Z" fill="#D20014"/>
<path d="M84.4297 50.3532C84.4297 48.3632 84.7886 46.5364 85.4738 44.9379C86.159 43.3394 87.1378 41.9692 88.3777 40.8274C89.6176 39.6856 91.0858 38.8375 92.7825 38.2176C94.4792 37.5978 96.3064 37.3042 98.2967 37.3042C100.287 37.3042 102.114 37.5978 103.811 38.2176C105.508 38.8375 106.976 39.6856 108.216 40.8274C109.456 41.9692 110.434 43.3394 111.152 44.9379C111.87 46.5364 112.196 48.3632 112.196 50.3532C112.196 52.3432 111.837 54.17 111.152 55.8338C110.434 57.4649 109.456 58.8677 108.216 60.0421C106.976 61.2165 105.508 62.0973 103.811 62.7497C102.114 63.3696 100.287 63.6958 98.2967 63.6958C96.3064 63.6958 94.4792 63.3696 92.7825 62.7497C91.0858 62.1299 89.6176 61.2165 88.3777 60.0421C87.1378 58.8677 86.159 57.4649 85.4738 55.8338C84.7886 54.17 84.4297 52.3432 84.4297 50.3532ZM93.3698 50.3532C93.3698 51.1688 93.5003 51.9191 93.7287 52.6041C93.9898 53.2892 94.316 53.8764 94.7402 54.3658C95.1644 54.8551 95.6864 55.2466 96.3064 55.5075C96.9263 55.7685 97.5789 55.899 98.2967 55.899C99.0145 55.899 99.6671 55.7685 100.254 55.5075C100.842 55.2466 101.364 54.8551 101.821 54.3658C102.277 53.8764 102.604 53.2892 102.865 52.6041C103.126 51.9191 103.224 51.1688 103.224 50.3532C103.224 49.5703 103.093 48.8199 102.865 48.1349C102.604 47.4498 102.277 46.8952 101.821 46.4385C101.364 45.9818 100.842 45.6229 100.254 45.362C99.6671 45.101 99.0145 44.9705 98.2967 44.9705C97.5789 44.9705 96.9263 45.101 96.3064 45.362C95.6864 45.6229 95.1644 45.9818 94.7402 46.4385C94.316 46.8952 93.9571 47.4498 93.7287 48.1349C93.5003 48.8199 93.3698 49.5376 93.3698 50.3532Z" fill="#D20014"/>
<path d="M113.143 50.4836C113.143 48.4936 113.501 46.6668 114.187 45.0683C114.905 43.4371 115.851 42.067 117.091 40.8926C118.298 39.7508 119.766 38.8374 121.398 38.2175C123.062 37.5977 124.823 37.2715 126.716 37.2715C128.641 37.2715 130.468 37.5977 132.197 38.2175C133.927 38.8374 135.362 39.6855 136.504 40.7295L131.349 46.9277C130.892 46.3079 130.305 45.8512 129.587 45.525C128.869 45.1987 128.086 45.0356 127.238 45.0356C126.52 45.0356 125.868 45.1661 125.248 45.3945C124.628 45.6555 124.106 46.0143 123.649 46.471C123.192 46.9277 122.833 47.5149 122.572 48.1674C122.311 48.8525 122.181 49.5702 122.181 50.4183C122.181 51.2339 122.311 51.9842 122.572 52.6367C122.833 53.2891 123.192 53.8437 123.681 54.3004C124.138 54.7571 124.66 55.116 125.28 55.377C125.9 55.6379 126.553 55.7358 127.205 55.7358C128.184 55.7358 129 55.5401 129.685 55.1486C130.37 54.7571 130.925 54.2678 131.316 53.7458L136.472 59.9115C135.33 61.0533 133.959 61.9341 132.295 62.6192C130.664 63.3042 128.771 63.6305 126.683 63.6305C124.791 63.6305 123.029 63.3042 121.365 62.6844C119.701 62.0646 118.265 61.1511 117.058 59.9767C115.851 58.8023 114.872 57.4322 114.154 55.8011C113.469 54.2678 113.143 52.4736 113.143 50.4836Z" fill="#D20014"/>
<path d="M145.707 53.0282H145.641V62.9781H137.484V38.0219H145.609V47.2214H145.674L152.33 38.0219H162.217L152.82 49.4397L162.673 62.9781H152.363L145.707 53.0282Z" fill="#D20014"/>
<path d="M177.225 62.9781H168.774L161.955 38.0219H170.83L173.505 52.0495H173.636L176.54 38.0219H185.317L188.449 52.0495H188.58L191.288 38.0219H199.902L192.952 62.9781H184.501L181.01 48.8851H180.879L177.225 62.9781Z" fill="#D20014"/>
<path d="M198.629 50.3532C198.629 48.3632 198.988 46.5364 199.673 44.9379C200.391 43.3394 201.337 41.9692 202.577 40.8274C203.817 39.6856 205.285 38.8375 206.982 38.2176C208.678 37.5978 210.506 37.3042 212.496 37.3042C214.486 37.3042 216.313 37.5978 218.01 38.2176C219.707 38.8375 221.175 39.6856 222.415 40.8274C223.655 41.9692 224.634 43.3394 225.351 44.9379C226.069 46.5364 226.396 48.3632 226.396 50.3532C226.396 52.3432 226.037 54.17 225.351 55.8338C224.634 57.4649 223.655 58.8677 222.415 60.0421C221.175 61.2165 219.707 62.0973 218.01 62.7497C216.313 63.3696 214.486 63.6958 212.496 63.6958C210.506 63.6958 208.678 63.3696 206.982 62.7497C205.285 62.1299 203.817 61.2165 202.577 60.0421C201.337 58.8677 200.358 57.4649 199.673 55.8338C198.988 54.17 198.629 52.3432 198.629 50.3532ZM207.536 50.3532C207.536 51.1688 207.667 51.9191 207.895 52.6041C208.156 53.2892 208.483 53.8764 208.907 54.3658C209.331 54.8551 209.853 55.2466 210.473 55.5075C211.093 55.7685 211.745 55.899 212.463 55.899C213.181 55.899 213.834 55.7685 214.421 55.5075C215.008 55.2466 215.53 54.8551 215.987 54.3658C216.444 53.8764 216.77 53.2892 217.031 52.6041C217.292 51.9191 217.39 51.1688 217.39 50.3532C217.39 49.5703 217.26 48.8199 217.031 48.1349C216.77 47.4498 216.444 46.8952 215.987 46.4385C215.53 45.9818 215.008 45.6229 214.421 45.362C213.834 45.101 213.181 44.9705 212.463 44.9705C211.745 44.9705 211.093 45.101 210.473 45.362C209.853 45.6229 209.331 45.9818 208.907 46.4385C208.483 46.8952 208.124 47.4498 207.895 48.1349C207.667 48.8199 207.536 49.5376 207.536 50.3532Z" fill="#D20014"/>
<path d="M227.311 50.3532C227.311 48.3632 227.669 46.5364 228.355 44.9379C229.04 43.3394 230.019 41.9692 231.259 40.8274C232.498 39.6856 233.967 38.8375 235.663 38.2176C237.36 37.5978 239.187 37.3042 241.178 37.3042C243.168 37.3042 244.995 37.5978 246.692 38.2176C248.388 38.8375 249.857 39.6856 251.096 40.8274C252.336 41.9692 253.315 43.3394 254.033 44.9379C254.751 46.5364 255.077 48.3632 255.077 50.3532C255.077 52.3432 254.718 54.17 254.033 55.8338C253.315 57.4649 252.336 58.8677 251.096 60.0421C249.857 61.2165 248.388 62.0973 246.692 62.7497C244.995 63.3696 243.168 63.6958 241.178 63.6958C239.187 63.6958 237.36 63.3696 235.663 62.7497C233.967 62.1299 232.498 61.2165 231.259 60.0421C230.019 58.8677 229.04 57.4649 228.355 55.8338C227.669 54.17 227.311 52.3432 227.311 50.3532ZM236.251 50.3532C236.251 51.1688 236.381 51.9191 236.61 52.6041C236.871 53.2892 237.197 53.8764 237.621 54.3658C238.045 54.8551 238.567 55.2466 239.187 55.5075C239.807 55.7685 240.46 55.899 241.178 55.899C241.895 55.899 242.548 55.7685 243.135 55.5075C243.723 55.2466 244.245 54.8551 244.701 54.3658C245.158 53.8764 245.484 53.2892 245.745 52.6041C246.007 51.9191 246.104 51.1688 246.104 50.3532C246.104 49.5703 245.974 48.8199 245.745 48.1349C245.484 47.4498 245.158 46.8952 244.701 46.4385C244.245 45.9818 243.723 45.6229 243.135 45.362C242.548 45.101 241.895 44.9705 241.178 44.9705C240.46 44.9705 239.807 45.101 239.187 45.362C238.567 45.6229 238.045 45.9818 237.621 46.4385C237.197 46.8952 236.838 47.4498 236.61 48.1349C236.349 48.8199 236.251 49.5376 236.251 50.3532Z" fill="#D20014"/>
<path d="M256.512 38.0219H264.962V55.7685H273.25V63.0107H256.512V38.0219Z" fill="#D20014"/>
<path d="M50.2038 25.5275H0.25V75.4725H50.2038V25.5275Z" fill="#D20014"/>
<path d="M23.3508 53.6154L17.7388 62.9781H5.24219L20.2185 38.0219H23.3508V53.6154Z" fill="white"/>
<path d="M32.7156 62.9781L27.1035 53.6154V38.0219H30.2358L45.1795 62.9781H32.7156Z" fill="white"/>
<path d="M267.246 40.9579C267.246 40.5338 267.311 40.1424 267.474 39.7509C267.638 39.3921 267.866 39.0658 268.127 38.8049C268.388 38.5439 268.714 38.3155 269.073 38.185C269.432 38.0219 269.824 37.9567 270.248 37.9567C270.639 37.9567 271.031 38.0219 271.423 38.185C271.781 38.3481 272.108 38.5439 272.369 38.8049C272.63 39.0658 272.858 39.3921 273.021 39.7509C273.184 40.1097 273.25 40.5012 273.25 40.9253C273.25 41.3494 273.184 41.7409 273.021 42.1323C272.858 42.4912 272.63 42.8174 272.369 43.0784C272.108 43.3394 271.781 43.5677 271.423 43.6982C271.064 43.8613 270.672 43.9266 270.248 43.9266C269.824 43.9266 269.432 43.8613 269.073 43.6982C268.714 43.5351 268.388 43.3394 268.127 43.0784C267.866 42.8174 267.638 42.4912 267.474 42.1323C267.344 41.7735 267.246 41.382 267.246 40.9579ZM267.736 40.9579C267.736 41.3168 267.801 41.643 267.931 41.9692C268.062 42.2628 268.258 42.5564 268.486 42.7848C268.714 43.0132 268.975 43.1763 269.302 43.3068C269.595 43.4372 269.922 43.5025 270.281 43.5025C270.639 43.5025 270.966 43.4372 271.259 43.3068C271.553 43.1763 271.847 42.9805 272.075 42.7522C272.303 42.5238 272.499 42.2628 272.63 41.9366C272.76 41.6104 272.826 41.2842 272.826 40.9253C272.826 40.5665 272.76 40.2402 272.63 39.914C272.499 39.5878 272.303 39.3268 272.075 39.0985C271.847 38.8701 271.586 38.707 271.259 38.5765C270.966 38.446 270.639 38.3808 270.281 38.3808C269.922 38.3808 269.595 38.446 269.302 38.5765C269.008 38.707 268.714 38.9027 268.486 39.0985C268.258 39.3268 268.062 39.5878 267.931 39.914C267.801 40.2402 267.736 40.5991 267.736 40.9579ZM269.139 39.2289H270.411C270.835 39.2289 271.129 39.2942 271.325 39.4573C271.52 39.6204 271.618 39.8814 271.618 40.2076C271.618 40.5338 271.52 40.7296 271.357 40.8927C271.194 41.0232 270.966 41.121 270.705 41.1537L271.716 42.6869H271.194L270.248 41.2189H269.628V42.6869H269.139V39.2289ZM269.628 40.7622H270.215C270.346 40.7622 270.444 40.7622 270.574 40.7622C270.672 40.7622 270.803 40.7296 270.868 40.697C270.933 40.6643 271.031 40.5991 271.064 40.5338C271.129 40.4686 271.129 40.3381 271.129 40.2076C271.129 40.0771 271.096 39.9793 271.064 39.914C271.031 39.8488 270.966 39.7835 270.868 39.7509C270.803 39.7183 270.705 39.6857 270.607 39.6857C270.509 39.6857 270.411 39.6857 270.346 39.6857H269.595V40.7622H269.628Z" fill="#D20014"/>
</g>
<defs>
<clipPath id="clip0_1127_30283">
<rect width="274" height="100" fill="white" transform="translate(0.25 0.5)"/>
</clipPath>
</defs>
</svg>
