<svg width="281" height="101" viewBox="0 0 281 101" fill="none" xmlns="http://www.w3.org/2000/svg">
<path d="M41.6794 64.5124C41.6794 71.4814 37.9301 74.5506 30.8598 74.5506H2.27609L4.04949 67.8689H30.6667C32.9846 67.8689 34.2065 67.2097 34.2065 64.5124V63.7662C34.2065 61.0689 32.9846 60.4097 30.6667 60.4097H12.5301C5.45982 60.4097 1.71289 57.3405 1.71289 50.3715V50.0673C1.71289 43.0958 5.45982 40.0291 12.5301 40.0291H40.2062L38.4328 46.7083H12.7256C10.4053 46.7083 9.18348 47.37 9.18348 50.0673V50.3715C9.18348 53.0688 10.4053 53.7305 12.7256 53.7305H30.8598C37.9301 53.7305 41.6794 56.7972 41.6794 63.7662V64.5124ZM86.0537 74.5506L84.2804 67.8689H60.2977C57.9168 67.8689 56.183 66.7557 56.183 63.916V50.6613C56.183 47.8215 57.9168 46.7083 60.2977 46.7083H84.0825L85.8606 40.0291H60.1045C52.7852 40.0291 48.7101 43.4025 48.7101 50.6613V63.916C48.7101 71.1747 52.7852 74.5506 60.1045 74.5506H86.0537ZM125.448 59.934H100.152V74.5506H92.6795V40.0291H100.152V53.3755H125.448V40.0291H132.921V74.5506H125.448V59.934ZM228.975 74.5506L227.201 67.8689H203.219C200.838 67.8689 199.104 66.7557 199.104 63.916V50.6613C199.104 47.8215 200.838 46.7083 203.219 46.7083H227.003L228.782 40.0291H203.023C195.706 40.0291 191.631 43.4025 191.631 50.6613V63.916C191.631 71.1747 195.706 74.5506 203.023 74.5506H228.975ZM141.653 63.916V40.0291H149.126V63.916C149.126 66.7557 150.859 67.8689 153.24 67.8689H172.056C174.437 67.8689 176.171 66.7557 176.171 63.916V40.0291H183.641V63.916C183.641 71.1747 179.571 74.5506 172.249 74.5506H153.045C145.725 74.5506 141.653 71.1747 141.653 63.916ZM271.315 63.916C271.315 66.7557 269.581 67.8689 267.2 67.8689H245.787C243.409 67.8689 241.675 66.7557 241.675 63.916V50.6613C241.675 47.8215 243.409 46.7083 245.787 46.7083H267.2C269.581 46.7083 271.315 47.8215 271.315 50.6613V63.916ZM267.394 74.5506C274.713 74.5506 278.788 71.1747 278.788 63.916V50.6613C278.788 43.4025 274.713 40.0291 267.394 40.0291H245.594C238.275 40.0291 234.202 43.4025 234.202 50.6613V63.916C234.202 71.1747 238.275 74.5506 245.594 74.5506H267.394ZM157.024 25.5695H168.27L165.908 35.0716H159.389L157.024 25.5695ZM172.391 25.5695L169.403 35.0716H176.171L181.966 25.5695H172.391ZM143.328 25.5695H152.903L155.891 35.0716H149.126L143.328 25.5695Z" fill="#363C46"/>
</svg>
