<svg width="253" height="101" viewBox="0 0 253 101" fill="none" xmlns="http://www.w3.org/2000/svg">
<g clip-path="url(#clip0_1127_30274)">
<path fill-rule="evenodd" clip-rule="evenodd" d="M27.7601 31.9235V39.3256C24.2247 38.0445 20.4066 37.3327 17.4369 37.3327C13.6187 37.3327 11.6389 38.4715 11.6389 40.6068C11.6389 41.8879 12.4874 42.742 15.1742 44.0231L22.2449 47.1548C27.9015 49.7171 30.7298 53.4181 30.7298 58.258C30.7298 65.8025 24.2247 70.5 14.0429 70.5C10.3662 70.5 5.98232 69.9306 1.45707 68.9342V61.2473C5.98232 62.5285 10.0833 63.2402 13.3359 63.2402C17.5783 63.2402 19.8409 62.1014 19.8409 59.8238C19.8409 58.5427 18.9924 57.5463 16.8712 56.5498L9.09343 53.1335C3.43687 50.5712 0.75 47.0125 0.75 42.1726C0.75 35.0552 6.97222 30.5 16.7298 30.5C20.1237 30.5 24.3662 31.0694 27.7601 31.9235Z" fill="#0095AD"/>
<path fill-rule="evenodd" clip-rule="evenodd" d="M36.2441 31.2118H47.6987V69.7883H36.2441V31.2118Z" fill="#0095AD"/>
<path fill-rule="evenodd" clip-rule="evenodd" d="M84.891 31.2118V38.3292H67.6385V47.0125H82.7698V53.4182H67.6385V62.3862H85.1739V69.7883H56.4668V31.2118H84.891Z" fill="#0095AD"/>
<path fill-rule="evenodd" clip-rule="evenodd" d="M139.053 31.2118V69.7883H127.882V44.4502L117.134 70.073H110.064L99.316 44.4502V69.7883H91.6797V31.2118H105.68L115.437 54.6993L125.336 31.2118H139.053Z" fill="#0095AD"/>
<path fill-rule="evenodd" clip-rule="evenodd" d="M176.245 31.2118V38.3292H158.992V47.0125H174.123V53.4182H158.992V62.3862H176.527V69.7883H147.82V31.2118H176.245Z" fill="#0095AD"/>
<path fill-rule="evenodd" clip-rule="evenodd" d="M216.548 31.2118V69.7883H204.387L190.67 45.0196V69.7883H183.033V31.2118H195.478L209.053 55.6958V31.2118H216.548Z" fill="#0095AD"/>
<path fill-rule="evenodd" clip-rule="evenodd" d="M249.78 31.9235V39.3257C246.245 38.0445 242.427 37.3328 239.457 37.3328C235.639 37.3328 233.518 38.4716 233.518 40.6068C233.518 42.0303 234.366 42.742 237.053 44.0232L244.124 47.1549C249.78 49.7171 252.609 53.4182 252.609 58.4004C252.609 65.8025 246.104 70.6424 235.922 70.6424C232.245 70.6424 227.861 70.073 223.336 69.0766V61.3897C227.861 62.6709 231.962 63.2403 235.215 63.2403C239.457 63.2403 241.72 62.1015 241.72 59.9662C241.72 58.5428 240.871 57.6887 238.75 56.6922L230.972 53.2759C225.174 50.7136 222.629 47.2972 222.629 42.315C222.629 35.1976 228.851 30.6424 238.609 30.6424C242.144 30.5001 246.386 31.0695 249.78 31.9235Z" fill="#0095AD"/>
</g>
<defs>
<clipPath id="clip0_1127_30274">
<rect width="252" height="100" fill="white" transform="translate(0.75 0.5)"/>
</clipPath>
</defs>
</svg>
