<svg width="242" height="101" viewBox="0 0 242 101" fill="none" xmlns="http://www.w3.org/2000/svg">
<g clip-path="url(#clip0_1127_30454)">
<path d="M138.01 50.7822C138.01 45.1191 137.988 32.1606 137.988 32.1606C137.988 32.1606 138.174 32.1296 139.461 32.1405C147.795 32.208 156.13 32.1989 164.465 32.1478C165.597 32.1405 165.887 32.1606 165.887 32.1606V38.6079C165.887 38.6079 165.49 38.5386 164.413 38.5295C158.446 38.4821 152.477 38.5423 146.507 38.4803C145.249 38.4675 144.887 38.524 144.887 38.524V47.3971C144.887 47.3971 145.125 47.5503 146.619 47.523C152.425 47.4154 158.233 47.5138 164.04 47.45C165.21 47.4372 165.568 47.4372 165.568 47.4372L165.566 53.6894C165.566 53.6894 165.172 53.7241 164.097 53.715C158.237 53.6657 152.375 53.7277 146.514 53.6639C145.261 53.6493 144.887 53.6493 144.887 53.6493L144.89 63.1845C144.89 63.1845 145.191 63.2884 146.414 63.2756C152.328 63.2118 158.244 63.2975 164.158 63.21C165.583 63.1899 165.918 63.1899 165.918 63.1899V69.568C165.918 69.568 163.038 69.5643 161.706 69.568C154.339 69.5917 146.972 69.5479 139.606 69.6081C138.364 69.619 137.982 69.6081 137.982 69.6081C137.982 69.6081 138.01 56.5018 138.01 50.7822Z" fill="black"/>
<path d="M190.583 38.6718C186.595 38.6718 182.957 38.6718 179.318 38.6718C177.114 38.6718 171.571 38.712 171.571 38.712V32.1606H200.245L200.309 36.5944C200.309 36.5944 200.031 37.0103 198.684 38.6992C192.739 46.157 186.963 53.7625 181.13 61.3169C180.767 61.7874 179.755 63.1261 179.755 63.1261C179.755 63.1261 181.185 63.0678 181.686 63.0696C187.494 63.0878 200.656 63.0787 200.656 63.0787L200.577 69.5899C200.577 69.5899 197.617 69.5571 196.131 69.5626C187.957 69.5936 179.782 69.5443 171.609 69.61C170.317 69.6209 170.008 69.5042 170.008 69.5042V64.2879C170.008 64.2879 183.705 47.6069 189.674 39.9485C189.91 39.6476 190.121 39.3248 190.583 38.6718Z" fill="black"/>
<path d="M241.25 69.6208C238.82 69.6208 233.709 69.6008 233.709 69.6008L230.535 63.1388C230.535 63.1388 227.412 63.1279 225.694 63.1224C222.093 63.1096 213.54 63.0969 213.54 63.0969C213.54 63.0969 213.43 63.323 213.085 64.3006C212.469 66.0424 210.893 69.619 210.893 69.619L203.443 69.5041L219.642 32.0767H225.418C225.418 32.0767 226.559 34.9091 227.07 36.184C231.308 46.7514 235.93 57.1493 240.401 67.6146C240.639 68.1745 240.927 68.791 241.25 69.6208ZM222.355 41.4057C220.202 46.7405 218.238 51.6339 216.246 56.5164C215.901 57.3608 215.825 57.5925 215.825 57.5925L228.797 57.587C228.797 57.587 228.726 57.4046 228.368 56.5073C226.409 51.6248 224.473 46.7314 222.355 41.4057Z" fill="black"/>
<path d="M134.495 32.1751C131.934 38.1428 129.51 43.8004 127.077 49.4544C124.397 55.6847 118.7 69.2688 118.7 69.2688L112.227 69.2378C112.227 69.2378 101.907 44.3804 97.2342 33.7655C96.594 32.3119 96.5664 32.3429 96.5664 32.3429L104.348 31.8523C104.348 31.8523 106.104 36.2898 106.895 38.2686C109.64 45.1482 112.374 52.0315 115.112 58.9111C115.256 59.2722 115.418 59.626 115.704 60.2863C116.129 59.2595 116.465 58.4734 116.779 57.6782C119.955 49.6404 123.146 41.6099 126.278 33.5558C126.681 32.518 126.809 32.1423 126.809 32.1423C128.873 32.2007 132.226 32.1751 134.495 32.1751Z" fill="black"/>
<path d="M70.357 57.2039C70.357 57.2039 70.4433 58.6502 70.5365 59.4345C70.8178 61.769 72.6194 63.084 74.7575 63.5874C78.4315 64.4501 82.1262 64.4118 85.7812 63.4306C87.1773 63.0567 88.3784 62.3144 88.9082 60.7659C89.8452 58.0265 88.7839 55.7941 85.9762 55.0882C82.6871 54.262 79.3444 53.6802 76.0328 52.9616C73.8791 52.4947 71.691 52.1883 69.6236 51.3238C66.0186 49.8173 64.0047 47.1034 63.7942 42.9778C63.5681 38.5695 65.1972 35.2702 69.0455 33.3423C73.0456 31.3379 77.3288 31.0516 81.6517 31.2631C84.4438 31.3999 87.2239 31.7264 89.8349 32.9374C93.5658 34.6701 96.2476 39.1933 96.0819 43.441C96.0733 43.6581 96.0629 44.1286 96.0629 44.1286L88.9997 44.125C88.9997 44.125 89.0583 43.7511 88.96 43.1967C88.3318 39.6474 86.8667 38.1464 83.4101 37.6302C79.9743 37.1159 76.5419 37.0776 73.2285 38.389C71.6754 39.0036 70.7746 40.2475 70.7608 42.0166C70.747 43.8003 71.6495 44.9986 73.2303 45.6096C73.7825 45.823 74.3503 46.0145 74.9266 46.1331C77.7723 46.7149 80.6266 47.2529 83.4705 47.8402C85.7329 48.3053 88.0229 48.639 90.2076 49.4817C94.3614 51.0848 96.1492 53.6838 96.2993 58.4314C96.4512 63.2427 94.5633 66.688 90.7219 68.417C86.6147 70.2664 82.2574 70.405 77.8914 70.2317C75.3201 70.1296 72.7488 69.8633 70.2776 68.9751C65.6545 67.3154 63.0004 63.509 62.7829 58.4149C62.7329 57.2148 62.7795 57.0252 62.7795 57.0252L70.357 57.2039Z" fill="black"/>
<path d="M23.7833 51.196L5.39258 70.5727H23.7833V51.196Z" fill="#97D700"/>
<path d="M3.33984 68.4954L21.6339 49.219H3.33984V68.4954Z" fill="#97D700"/>
<path d="M24.483 46.2169L41.3672 28.427H3.33984V46.2169H24.483Z" fill="#97D700"/>
<path d="M26.623 48.2032V70.5729H43.4554V30.468L26.623 48.2032Z" fill="#97D700"/>
<path d="M0.5 25.425V73.575H46.2964V25.425H0.5ZM23.783 51.1962V70.5729H5.39234L23.783 51.1962ZM3.34049 68.4955V49.2191H21.6346L3.34049 68.4955ZM41.3678 28.4271L24.4837 46.2171H3.34049V28.4271H41.3678ZM26.6235 70.5729V48.2032L43.4542 30.4698V70.5729H26.6235Z" fill="black"/>
</g>
<defs>
<clipPath id="clip0_1127_30454">
<rect width="241" height="100" fill="white" transform="translate(0.25 0.5)"/>
</clipPath>
</defs>
</svg>
