<svg width="277" height="101" viewBox="0 0 277 101" fill="none" xmlns="http://www.w3.org/2000/svg">
<g clip-path="url(#clip0_1127_30466)">
<path d="M38.2938 12.5L75.8357 49.8961L38.2938 87.2941L0.75 49.8961L38.2938 12.5Z" fill="#EF3E33"/>
<path fill-rule="evenodd" clip-rule="evenodd" d="M92.3322 61.3214H98.8862V41.2376H106.292V36.4055H85.0898V41.2376H92.3322V61.3214ZM114.674 36.4055H108.12V61.3214H114.674V36.4055ZM124.485 47.3465L124.419 36.4055H117.865V61.3214H124.419V48.0697L132.284 61.3214H140.41L131.595 47.3805L139.755 36.4055H131.99L124.485 47.3465ZM148.545 47.3465L148.478 36.4055H141.926V61.3214H148.478V48.0697L156.345 61.3214H164.471L155.656 47.3805L163.816 36.4055H156.049L148.545 47.3465ZM181.815 36.4055V51.8304C181.716 55.0054 180.144 57.009 177.062 57.009C173.983 57.009 172.409 55.0054 172.312 51.8304V36.4055H165.758V52.1768C165.822 59.1143 171.1 61.8411 177.062 61.8411C183.027 61.8411 188.302 59.1143 188.369 52.1768V36.4055H181.815ZM198.72 51.7983H201.177C204.521 51.7983 204.652 53.0393 204.913 56.0429C205.078 57.8018 205.274 59.5964 205.636 61.3214H212.745C212.19 59.3197 211.828 57.3536 211.664 55.284C211.238 51.4179 210.451 49.1751 206.258 49.0715C209.567 48.5197 212.287 46.5519 212.287 42.8251C212.287 37.5448 207.109 36.4055 203.112 36.4055H192.166V61.3214H198.72V51.7983ZM198.72 46.9662V41.2376H201.276C203.373 41.2376 205.404 41.5484 205.404 44.1019C205.404 46.6555 203.373 46.9662 201.276 46.9662H198.72ZM221.761 36.4055H215.205V61.3214H221.761V36.4055ZM239.535 61.3214V56.4911H231.877V36.4055H225.323V61.3214H239.535ZM249.47 51.6251L252.681 41.2716L255.794 51.6251H249.47ZM246.259 61.3214L247.799 56.4554H257.401L258.973 61.3214H266.378L257.04 36.4055H249.043L239.704 61.3214H246.259Z" fill="black"/>
<path d="M20.041 32.111C22.3356 32.111 24.2179 33.9627 24.2179 36.2484C24.2179 36.9591 24.0387 37.6288 23.7214 38.2127C25.9335 38.3038 27.6993 40.1198 27.6993 42.3466C27.6993 44.6305 25.8403 46.4841 23.5457 46.4841C22.8071 46.4841 22.1133 46.2912 21.5128 45.9555C21.4967 46.1734 21.4877 46.393 21.4877 46.6144C21.4877 50.9483 25.0157 54.4608 29.3665 54.4608C33.7173 54.4608 37.2434 50.9483 37.2434 46.6144C37.2434 46.3198 37.2362 46.0269 37.2058 45.7412C36.5317 46.2091 35.6964 46.4841 34.8126 46.4841C32.518 46.4841 30.6572 44.6305 30.6572 42.3466C30.6572 40.1198 32.4247 38.3038 34.6369 38.2127C34.3196 37.6288 34.1385 36.9591 34.1385 36.2484C34.1385 33.9627 35.9993 32.111 38.2939 32.111C40.5867 32.111 42.4457 33.9627 42.4457 36.2484C42.4457 36.9591 42.2665 37.6288 41.9492 38.2127C44.1631 38.3038 45.9289 40.1198 45.9289 42.3466C45.9289 44.6305 44.0681 46.4841 41.7735 46.4841C40.8879 46.4841 40.0669 46.2073 39.391 45.7359C39.3588 46.0234 39.3426 46.3162 39.3426 46.6144C39.3426 50.9483 42.8706 54.4608 47.2196 54.4608C51.5722 54.4608 55.0966 50.9483 55.0966 46.6144C55.0966 46.4001 55.0966 46.1859 55.0804 45.9751C54.4871 46.3001 53.7933 46.4859 53.0673 46.4859C50.7727 46.4859 48.9137 44.6341 48.9137 42.3484C48.9137 40.1234 50.6794 38.3056 52.8916 38.2145C52.5761 37.6306 52.395 36.9609 52.395 36.252C52.395 33.9663 54.2558 32.1127 56.5486 32.1127L56.545 63.3661H20.041V32.111Z" fill="white"/>
<path d="M78.5637 76.0717H74.7148V74.6878H84.0833V76.0717H80.2165V87.2931H78.5637V76.0717Z" fill="#808285"/>
<path d="M87.3892 74.6876V79.9625H93.5111V74.6876H95.1622V87.2928H93.5111V81.384H87.3892V87.2928H85.7363V74.6876H87.3892Z" fill="#808285"/>
<path d="M104.724 81.3834H99.8229V85.928H105.307V87.2941H98.1719V74.687H105.025V76.0531H99.8229V80.037H104.724V81.3834Z" fill="#808285"/>
<path d="M114.539 80.9157C114.896 81.0103 115.348 81.046 115.891 81.046C117.863 81.046 119.064 80.0746 119.064 78.3728C119.064 76.6889 117.863 75.8853 116.079 75.8853C115.366 75.8853 114.821 75.9407 114.539 76.0157V80.9157ZM112.906 74.8371C113.695 74.7068 114.728 74.5943 116.042 74.5943C117.657 74.5943 118.84 74.9693 119.589 75.6425C120.265 76.2407 120.697 77.1568 120.697 78.2782C120.697 79.4192 120.36 80.3175 119.722 80.971C118.84 81.8889 117.449 82.3549 115.853 82.3549C115.366 82.3549 114.914 82.3371 114.539 82.2442V87.2942H112.906V74.8371Z" fill="#808285"/>
<path d="M123.642 81.0465C123.642 83.759 125.107 86.1714 127.697 86.1714C130.288 86.1714 131.754 83.7965 131.754 80.934C131.754 78.409 130.438 75.7912 127.717 75.7912C124.994 75.7912 123.642 78.2965 123.642 81.0465ZM133.48 80.859C133.48 85.1804 130.833 87.5 127.604 87.5C124.243 87.5 121.916 84.9 121.916 81.084C121.916 77.0822 124.393 74.4626 127.773 74.4626C131.247 74.4626 133.48 77.1001 133.48 80.859Z" fill="#808285"/>
<path d="M137.269 87.2931L134.059 74.6878H135.785L137.287 81.0646C137.664 82.636 138.001 84.2074 138.227 85.4235H138.264C138.47 84.1699 138.865 82.6735 139.297 81.0467L140.987 74.6878H142.696L144.234 81.0842C144.592 82.5806 144.929 84.077 145.118 85.4038H145.155C145.417 84.0199 145.774 82.6181 146.168 81.0467L147.841 74.6878H149.51L145.924 87.2931H144.216L142.62 80.7289C142.226 79.1199 141.962 77.886 141.794 76.6146H141.756C141.55 77.8682 141.249 79.1021 140.781 80.7289L138.978 87.2931H137.269Z" fill="#808285"/>
<path d="M157.818 81.3834H152.917V85.928H158.399V87.2941H151.266V74.687H158.119V76.0531H152.917V80.037H157.818V81.3834Z" fill="#808285"/>
<path d="M162.137 80.5976H163.808C165.554 80.5976 166.662 79.644 166.662 78.2029C166.662 76.5762 165.479 75.8655 163.75 75.8655C162.962 75.8655 162.418 75.9226 162.137 75.9958V80.5976ZM160.504 74.8565C161.329 74.7065 162.531 74.594 163.639 74.594C165.385 74.594 166.531 74.9315 167.3 75.6226C167.92 76.1833 168.295 77.044 168.295 78.0351C168.295 79.6815 167.244 80.7851 165.93 81.2333V81.2886C166.888 81.6261 167.468 82.5243 167.77 83.8333C168.182 85.5922 168.483 86.8064 168.745 87.2939H167.056C166.85 86.9189 166.568 85.8529 166.23 84.2833C165.855 82.5422 165.159 81.8886 163.677 81.8315H162.137V87.2939H160.504V74.8565Z" fill="#808285"/>
<path d="M176.873 81.0465C176.873 83.759 178.337 86.1714 180.928 86.1714C183.52 86.1714 184.985 83.7965 184.985 80.934C184.985 78.409 183.671 75.7912 180.948 75.7912C178.224 75.7912 176.873 78.2965 176.873 81.0465ZM186.711 80.859C186.711 85.1804 184.063 87.5 180.835 87.5C177.473 87.5 175.146 84.9 175.146 81.084C175.146 77.0822 177.624 74.4626 181.003 74.4626C184.477 74.4626 186.711 77.1001 186.711 80.859Z" fill="#808285"/>
<path d="M189.061 74.6876H195.876V76.0519H190.713V80.2429H195.482V81.5893H190.713V87.2928H189.061V74.6876Z" fill="#808285"/>
<path d="M211.588 86.9003C211.006 87.2003 209.785 87.4985 208.247 87.4985C204.679 87.4985 202.012 85.2539 202.012 81.1022C202.012 77.1379 204.697 74.4808 208.621 74.4808C210.179 74.4808 211.194 74.8183 211.626 75.0433L211.213 76.37C210.611 76.0718 209.729 75.8468 208.679 75.8468C205.712 75.8468 203.74 77.7361 203.74 81.0468C203.74 84.1503 205.524 86.1146 208.584 86.1146C209.598 86.1146 210.611 85.9093 211.269 85.5914L211.588 86.9003Z" fill="#808285"/>
<path d="M214.15 81.0465C214.15 83.759 215.615 86.1714 218.205 86.1714C220.797 86.1714 222.262 83.7965 222.262 80.934C222.262 78.409 220.948 75.7912 218.225 75.7912C215.502 75.7912 214.15 78.2965 214.15 81.0465ZM223.988 80.859C223.988 85.1804 221.34 87.5 218.112 87.5C214.751 87.5 212.422 84.9 212.422 81.084C212.422 77.0822 214.901 74.4626 218.28 74.4626C221.754 74.4626 223.988 77.1001 223.988 80.859Z" fill="#808285"/>
<path d="M226.336 74.6876H227.989V85.9286H233.395V87.2928H226.336V74.6876Z" fill="#808285"/>
<path d="M235.496 81.0465C235.496 83.759 236.96 86.1714 239.551 86.1714C242.143 86.1714 243.606 83.7965 243.606 80.934C243.606 78.409 242.293 75.7912 239.57 75.7912C236.847 75.7912 235.496 78.2965 235.496 81.0465ZM245.334 80.859C245.334 85.1804 242.686 87.5 239.457 87.5C236.096 87.5 233.768 84.9 233.768 81.084C233.768 77.0822 236.247 74.4626 239.626 74.4626C243.1 74.4626 245.334 77.1001 245.334 80.859Z" fill="#808285"/>
<path d="M249.086 74.6875V82.1679C249.086 84.9732 250.345 86.1714 252.034 86.1714C253.893 86.1714 255.113 84.9375 255.113 82.1679V74.6875H256.764V82.0571C256.764 85.9285 254.719 87.4982 251.978 87.4982C249.388 87.4982 247.434 86.0393 247.434 82.1125V74.6875H249.086Z" fill="#808285"/>
<path d="M261.006 80.5976H262.677C264.423 80.5976 265.531 79.644 265.531 78.2029C265.531 76.5762 264.348 75.8655 262.62 75.8655C261.833 75.8655 261.288 75.9226 261.006 75.9958V80.5976ZM259.373 74.8565C260.198 74.7065 261.399 74.594 262.508 74.594C264.254 74.594 265.4 74.9315 266.169 75.6226C266.789 76.1833 267.164 77.044 267.164 78.0351C267.164 79.6815 266.113 80.7851 264.798 81.2333V81.2886C265.757 81.6261 266.338 82.5243 266.639 83.8333C267.051 85.5922 267.352 86.8064 267.614 87.2939H265.925C265.719 86.9189 265.438 85.8529 265.099 84.2833C264.724 82.5422 264.029 81.8886 262.546 81.8315H261.006V87.2939H259.373V74.8565Z" fill="#808285"/>
<path d="M269.539 85.3104C270.271 85.7782 271.323 86.1336 272.449 86.1336C274.12 86.1336 275.097 85.255 275.097 83.9836C275.097 82.8229 274.421 82.1318 272.712 81.4961C270.647 80.7479 269.369 79.6622 269.369 77.9051C269.369 75.9408 271.004 74.4819 273.464 74.4819C274.74 74.4819 275.697 74.7819 276.242 75.0997L275.792 76.4265C275.398 76.1836 274.552 75.8283 273.408 75.8283C271.68 75.8283 271.022 76.8569 271.022 77.7176C271.022 78.8961 271.793 79.4747 273.539 80.1479C275.679 80.9711 276.75 81.9997 276.75 83.8514C276.75 85.7979 275.323 87.4996 272.336 87.4996C271.117 87.4996 269.783 87.1246 269.107 86.6764L269.539 85.3104Z" fill="#808285"/>
</g>
<defs>
<clipPath id="clip0_1127_30466">
<rect width="276" height="100" fill="white" transform="translate(0.75 0.5)"/>
</clipPath>
</defs>
</svg>
