<svg width="211" height="101" viewBox="0 0 211 101" fill="none" xmlns="http://www.w3.org/2000/svg">
<g clip-path="url(#clip0_1127_30371)">
<path d="M141.685 10.5H143.19V86.6206H141.685V10.5ZM105.565 86.6206H107.07V10.5H105.565V86.6206ZM69.095 10.5H70.6V86.6206H69.69C69.69 86.6206 63.39 86.9372 61.885 85.8819C61.29 85.4246 60.24 84.0879 59.19 81.2035L56.95 73.2186C56.355 70.6508 53.8 68.3995 52.295 68.3995H47.78V82.4347C47.78 84.8618 51.385 85.1432 51.385 85.1432V86.6558C51.385 86.6558 47.325 86.5151 45.225 86.5151C43.125 86.5151 39.065 86.6558 39.065 86.6558V85.1432C39.065 85.1432 42.53 84.8266 42.53 82.4347V52.2889C42.53 51.5502 42.075 50.7764 41.34 50.495L39.1 49.51V47.7161C39.1 47.7161 46.45 47.8568 48.235 47.8568H55.27C61.57 47.8568 64.125 52.5352 64.125 57.2136C64.125 63.6859 59.47 65.9724 56.18 67.309C60.24 68.505 61.57 71.2136 63.075 74.8367L65.035 80.8518C65.35 81.7663 65.77 82.6457 66.225 83.5603C66.54 84.299 67.87 84.9322 69.06 85.0729C69.095 85.108 69.095 10.5 69.095 10.5ZM58.735 57.3543C58.735 53.4497 55.9 49.9673 53.17 49.9673H49.88C48.83 49.9673 47.78 50.8819 47.78 52.2186V66.6759H52.295C53.345 66.5703 58.735 65.7965 58.735 57.3543ZM32.8 86.6206H34.305V10.5H32.8V86.6206ZM133.145 67.309C129.26 65.0578 125.655 63.0879 121.735 61.1181C120.23 60.3794 118.13 58.2688 118.13 55.5251C118.13 51.304 122.33 49.51 125.025 49.51C129.96 49.51 132.83 53.5905 132.83 58.2688H135.245V48.9121C130.73 47.8568 126.705 47.5402 125.06 47.5402C118.62 47.5402 113.195 50.5653 113.195 57.9523C113.195 61.1181 114.385 63.0879 116.66 65.3392C119.67 68.1884 125.06 69.2437 129.715 72.5854C132.725 74.696 133.005 77.8618 133.005 78.3191C133.005 80.8869 131.045 85.108 125.06 85.108C120.86 85.108 116.065 83.1382 116.065 74.5553H113.055V84.1935C113.055 84.1935 118.76 87.5 125.2 87.5C131.64 87.5 138.115 84.3342 138.115 76.8065C137.8 71.5302 134.965 68.3643 133.145 67.309ZM210.25 86.6206C210.25 86.6206 206.785 86.304 204.265 86.304C201.745 86.304 198.28 86.6206 198.28 86.6206V85.108C199.645 85.108 201.885 84.1935 201.115 82.3995L198.105 72.4447H188.06L184.77 82.3995C184.455 83.4548 185.505 85.108 187.605 85.108V86.6206C187.605 86.6206 184.91 86.304 182.81 86.304C181.445 86.304 180.255 86.4447 179.345 86.4447L177.98 86.5854V10.5H179.485V84.51C181.585 83.1382 182.775 80.2889 183.23 78.9171L194.045 47.1181H196.005L206.645 82.3995C207.24 84.0528 208.29 84.6508 210.11 85.108C210.25 85.108 210.25 86.6206 210.25 86.6206ZM197.51 69.8769L193.625 56.6156L189.11 69.8769H197.51ZM0.985 47.7161L0.25 57.9523C0.985 57.9523 1.755 57.9523 2.35 57.9523C2.665 56.4397 2.665 55.103 3.4 53.7312C3.715 53.1332 3.995 52.6759 4.45 52.2186C5.185 51.4799 6.095 50.8467 7.145 50.706C8.93 50.2487 10.89 50.108 12.535 50.108V82.6809C12.535 84.0528 10.575 85.108 8.65 85.108V86.902C10.155 86.7613 13.165 86.5854 15.09 86.5854C17.015 86.5854 20.025 86.902 21.53 86.902V85.108C19.57 85.108 17.645 84.0528 17.645 82.6809V50.108C19.43 50.108 21.39 50.2487 23.035 50.706C24.085 51.0226 24.995 51.6206 25.73 52.2186C26.185 52.6759 26.465 53.2739 26.78 53.7312C27.515 55.103 27.515 56.4397 27.83 57.9523C28.565 57.9523 29.335 57.9523 29.93 57.9523L29.195 47.7161H0.985ZM92.51 84.3342H88.31C86.525 84.3342 85.16 83.8769 85.16 82.0829V67.309H89.675C93.14 67.309 93.735 68.6809 93.735 72.7261H95.835C95.835 72.7261 95.52 67.5905 95.52 66.2538C95.52 65.0578 95.835 59.7814 95.835 59.7814H93.735C93.735 63.8618 93.14 65.1985 89.675 65.1985H85.16V52.3945C85.16 50.4246 86.805 49.9673 88.17 49.9673H91.005C92.51 49.9673 97.445 50.4246 97.445 56.7563H99.405L98.95 47.5754C98.95 47.5754 90.41 47.892 88.31 47.892C86.35 47.892 76.445 47.5754 76.445 47.5754V49.3693L78.685 50.2839C79.42 50.6005 79.875 51.3392 79.875 52.0779V82.2236C79.875 84.6508 76.41 84.9322 76.41 84.9322V86.4447C76.41 86.4447 86.455 86.304 88.555 86.304C90.655 86.304 100.56 86.4447 100.56 86.4447L102.065 75.892H100.105C99.405 81.3442 96.115 84.3342 92.51 84.3342ZM175.145 59.7814C175.145 68.3643 167.795 71.0729 164.05 71.0729C161.635 71.0729 158.345 70.7563 157.295 70.6156V82.3643C157.295 84.7915 160.9 85.0729 160.9 85.0729V86.5854C160.9 86.5854 156.84 86.4447 154.74 86.4447C152.64 86.4447 148.58 86.5854 148.58 86.5854V85.0729C148.58 85.0729 152.045 84.7563 152.045 82.3643V52.2186C152.045 51.4799 151.59 50.706 150.855 50.4246L148.615 49.51V47.7161C148.615 47.7161 152.5 48.0327 153.725 48.0327C155.09 48.0327 161.985 47.7161 161.985 47.7161C167.06 47.7161 175.145 48.0327 175.145 59.7814ZM169.615 59.7814C169.615 57.8116 168.705 50.1432 163 50.1432H161.215C159.71 50.1432 157.47 50.8819 157.47 52.2538V68.505C157.47 68.505 160.76 69.103 162.265 69.103C163 68.9623 169.615 68.2236 169.615 59.7814ZM200.66 43.6357C200.66 41.0678 202.76 39.098 205.315 39.098C207.87 39.098 209.97 41.2085 209.97 43.6357C209.97 46.2035 207.87 48.1734 205.315 48.1734C202.76 48.1734 200.66 46.0628 200.66 43.6357ZM201.395 43.6357C201.395 45.7462 203.04 47.3995 205.14 47.3995C207.24 47.3995 208.885 45.7462 208.885 43.6357C208.885 41.5251 207.24 39.8719 205.14 39.8719C203.215 39.8719 201.395 41.5251 201.395 43.6357ZM204.545 45.9221H203.635V41.0678H204.685C205.28 41.0678 205.875 41.0678 206.47 41.3844C207.065 41.701 207.38 42.1231 207.38 42.5804C207.38 43.3191 206.785 43.7764 205.735 43.9523L207.835 46.0628H206.785L204.825 43.9523H204.51L204.545 45.9221ZM204.545 43.3543H204.86C205.77 43.3543 206.645 43.2136 206.645 42.4397C206.645 41.6658 205.595 41.5251 204.86 41.5251H204.72V43.3191H204.545V43.3543Z" fill="#6D6D6D"/>
</g>
<defs>
<clipPath id="clip0_1127_30371">
<rect width="210" height="100" fill="white" transform="translate(0.25 0.5)"/>
</clipPath>
</defs>
</svg>
