<svg width="158" height="101" viewBox="0 0 158 101" fill="none" xmlns="http://www.w3.org/2000/svg">
<g clip-path="url(#clip0_1127_30339)">
<path fill-rule="evenodd" clip-rule="evenodd" d="M9.91201 73.9694C6.28109 66.1662 4.21056 60.0738 8.20158 50.3199C16.1236 31.3223 42.8604 19.6176 62.6955 14.9658C85.2912 9.59362 118.24 6.92255 140.505 17.1566C150.858 22.0186 151.188 23.9694 157.25 30.572C156.739 26.6704 153.108 21.8085 151.218 19.5876C150.528 18.8673 149.838 18.3571 149.147 17.3967C143.116 10.584 127.242 4.73167 117.759 2.78089C83.7608 -4.27193 36.8289 5.21186 13.1828 28.6212C4.03052 37.6548 -3.71146 50.3199 2.50013 64.4556C4.21056 68.3571 7.33136 72.0186 9.91201 73.9694Z" fill="#ED1C24"/>
<path fill-rule="evenodd" clip-rule="evenodd" d="M146.207 25.2299C155.179 41.3163 147.227 55.4519 134.984 65.686C124.812 74.2094 110.318 81.0522 94.7741 85.1939C71.4881 91.7665 29.3874 95.9081 7.63188 79.5816C6.25153 78.6212 4.87118 77.3907 3.67087 76.1602C2.65061 74.9598 1.45031 73.2491 0.25 72.2587C1.96044 80.0618 10.2425 86.8745 15.944 90.0558C40.1001 104.432 75.2991 102.001 100.656 94.4375C115.839 90.0558 133.424 81.2623 143.777 70.548C152.389 61.5144 159.981 48.129 153.619 34.4736C152.089 31.3223 148.458 26.4303 146.207 25.2299Z" fill="#0054A0"/>
<path fill-rule="evenodd" clip-rule="evenodd" d="M96.6942 40.806H102.216C102.216 42.2766 101.525 44.2274 101.015 45.668C99.815 49.5695 100.505 50.8 93.6034 50.0497L96.6942 40.806ZM85.6514 61.5443C88.7422 61.5443 102.546 61.7844 104.976 61.0641V59.1133C102.906 58.3931 93.2433 58.6331 90.8427 58.6331L92.5531 53.0209H103.236C105.636 53.0209 105.817 53.0209 106.507 51.0701C111.848 35.4639 114.099 37.8949 92.193 37.8949C89.1022 37.8949 88.5621 39.8456 87.7219 42.5167L82.8907 56.4123C81.8704 59.8336 81.3303 61.5443 85.6514 61.5443Z" fill="#0054A0"/>
<path fill-rule="evenodd" clip-rule="evenodd" d="M72.2087 37.8949C70.4983 37.8949 68.5778 37.6548 68.2477 38.8553C67.9176 40.8061 69.9581 40.566 71.1884 40.8061L65.8471 56.6524C64.2867 61.0342 64.9769 61.5144 69.628 61.5144C75.1494 61.5144 78.2402 62.2347 77.9101 59.3235C76.5298 58.3631 75.6596 58.8433 73.7691 58.6032L79.8006 40.8061C81.5111 40.566 83.2515 40.8061 84.8119 40.3259L85.142 38.6152C83.5816 37.6548 82.8914 37.8949 80.8209 37.8949C81.331 34.9838 85.292 27.4207 78.7504 29.8517C72.7188 32.0426 74.0992 32.2827 72.2087 37.8949Z" fill="#0054A0"/>
<path fill-rule="evenodd" clip-rule="evenodd" d="M125.502 44.9477C123.941 43.237 124.121 39.3354 122.231 38.135C121.901 37.8949 111.188 36.9045 113.258 39.8456C114.459 41.7964 114.819 38.8853 116.199 42.5167C116.889 44.4675 118.78 48.369 119.14 50.3198C118.12 50.8 117.249 51.7904 116.199 52.5107C115.179 53.231 114.309 54.2214 113.258 55.1818C112.238 55.9021 111.188 56.8925 110.318 57.6127C109.117 58.8432 107.917 58.8432 108.427 61.2742C110.318 61.9945 111.518 60.3138 114.459 57.6127C115.659 56.6524 119.29 53.231 120.31 52.7508C123.251 56.4123 121.18 61.5143 127.392 61.5143C129.973 61.5143 132.223 61.7544 133.934 61.0341C134.444 58.363 133.243 58.6031 130.993 58.6031L126.522 47.6187C128.082 46.6584 130.663 44.4375 132.043 42.9969C133.093 42.0365 136.874 39.8156 135.674 37.6247C133.964 37.1446 132.733 38.5851 130.333 40.806C128.952 42.2766 127.062 43.7472 125.502 44.9477Z" fill="#0054A0"/>
<path fill-rule="evenodd" clip-rule="evenodd" d="M45.9815 37.8949C43.7309 37.8949 42.7106 37.6548 41.3303 38.3751C41.3303 39.6055 41.3303 40.0857 42.0204 40.3258C42.5306 40.5659 42.7106 40.5659 43.0407 40.5659L44.061 41.0461L36.469 53.0209C35.7789 51.7904 34.7586 46.6884 34.2185 44.7376C32.328 36.6944 33.8884 37.9249 25.2462 37.9249C23.8658 37.9249 21.6153 38.165 22.8456 39.8757C23.8658 41.8264 24.556 39.1554 25.4262 42.3066L29.2072 57.9129C31.9679 68.6272 37.8194 56.2022 41.9604 49.6296C44.9312 44.9477 50.9627 37.8949 45.9815 37.8949Z" fill="#0054A0"/>
<path fill-rule="evenodd" clip-rule="evenodd" d="M51.8332 40.3259L54.2338 40.806C53.3636 44.9477 47.6922 57.3727 48.2023 60.5539C49.9127 62.0245 51.9833 61.5143 54.5939 61.5143C57.2046 61.5143 59.9353 62.2346 59.2451 59.0834L56.6645 58.6032C58.3749 53.4711 60.2954 48.3691 62.0058 43.237C63.2061 39.5756 64.0764 37.8649 59.2451 37.8649C56.3344 37.8949 50.963 36.6644 51.8332 40.3259Z" fill="#0054A0"/>
<path fill-rule="evenodd" clip-rule="evenodd" d="M60.8059 26.4303C54.7744 28.8612 57.7151 35.9441 63.0565 33.9933C68.7579 32.0425 66.5074 24.4795 60.8059 26.4303Z" fill="#0054A0"/>
</g>
<defs>
<clipPath id="clip0_1127_30339">
<rect width="157" height="100" fill="white" transform="translate(0.25 0.5)"/>
</clipPath>
</defs>
</svg>
